{"glyphs":{"0":{"ha":886,"x_min":83,"x_max":803,"o":"m 443 -19 q 250 44 331 -19 q 126 226 169 107 q 83 510 83 344 l 83 510 q 126 794 83 675 q 250 976 169 913 q 443 1039 331 1039 l 443 1039 q 636 976 556 1039 q 760 794 717 913 q 803 510 803 675 l 803 510 q 760 226 803 344 q 636 44 717 107 q 443 -19 556 -19 l 443 -19 z m 443 25 q 676 151 594 25 q 757 510 757 276 l 757 510 q 676 869 757 743 q 443 994 594 994 l 443 994 q 210 869 292 994 q 129 510 129 743 l 129 510 q 210 151 129 276 q 443 25 292 25 l 443 25 z "},"1":{"ha":518,"x_min":72,"x_max":354,"o":"m 343 0 l 321 0 q 310 11 310 0 l 310 11 l 310 943 l 101 790 q 86 793 93 785 l 86 793 l 78 804 q 81 819 72 813 l 81 819 l 315 1014 q 329 1019 324 1019 l 329 1019 l 343 1019 q 354 1008 354 1019 l 354 1008 l 354 11 q 343 0 354 0 l 343 0 z "},"2":{"ha":828,"x_min":82,"x_max":731,"o":"m 719 0 l 100 0 q 89 11 89 0 l 89 11 l 89 17 q 94 31 89 25 l 94 31 l 338 293 q 530 517 467 431 q 614 663 593 604 q 635 786 635 721 l 635 786 q 569 939 635 883 q 397 994 504 994 l 397 994 q 228 945 297 994 q 128 801 160 896 l 128 801 q 114 794 125 792 l 114 794 l 92 800 q 84 805 86 801 q 83 814 82 808 l 83 814 q 199 981 118 922 q 397 1039 281 1039 l 397 1039 q 544 1008 481 1039 q 644 919 608 976 q 681 786 681 861 l 681 786 q 660 655 681 717 q 572 499 639 593 q 367 261 504 406 l 367 261 l 161 43 l 719 43 q 731 32 731 43 l 731 32 l 731 11 q 719 0 731 0 l 719 0 z "},"3":{"ha":817,"x_min":69,"x_max":733,"o":"m 407 -19 q 190 53 285 -19 q 69 260 96 126 l 69 260 l 69 264 q 76 272 69 269 l 76 272 l 96 278 l 100 278 q 110 271 108 278 l 110 271 q 222 86 143 147 q 407 25 300 25 l 407 25 q 551 59 486 25 q 651 151 615 93 q 688 278 688 208 l 688 278 q 615 451 688 385 q 421 518 542 518 l 421 518 l 354 518 q 343 529 343 518 l 343 529 l 343 550 q 354 561 343 561 l 354 561 l 428 561 q 551 590 496 561 q 637 669 606 619 q 668 778 668 718 l 668 778 q 634 889 668 839 q 540 967 600 939 q 406 994 481 994 l 406 994 q 231 942 304 994 q 132 803 157 890 l 132 803 q 127 795 131 797 q 118 794 124 793 l 118 794 l 96 801 q 89 806 90 803 q 89 815 88 810 l 89 815 q 203 977 117 915 q 406 1039 289 1039 l 406 1039 q 563 1005 493 1039 q 674 911 633 971 q 714 778 714 851 l 714 778 q 663 629 714 694 q 522 540 611 564 l 522 540 q 678 446 622 515 q 733 278 733 376 l 733 278 q 692 131 733 199 q 576 22 650 63 q 407 -19 501 -19 l 407 -19 z "},"4":{"ha":904,"x_min":69,"x_max":829,"o":"m 657 0 l 635 0 q 624 11 624 0 l 624 11 l 624 250 l 81 250 q 69 261 69 250 l 69 261 l 69 271 q 74 285 69 279 l 74 285 l 624 1013 q 638 1019 629 1019 l 638 1019 l 657 1019 q 668 1008 668 1019 l 668 1008 l 668 293 l 818 293 q 829 282 829 293 l 829 282 l 829 261 q 818 250 829 250 l 818 250 l 668 250 l 668 11 q 657 0 668 0 l 657 0 z m 624 942 l 133 293 l 624 293 l 624 942 z "},"5":{"ha":807,"x_min":81,"x_max":738,"o":"m 418 -19 q 202 54 296 -19 q 81 258 108 128 l 81 258 l 81 264 q 88 272 81 271 l 88 272 l 107 278 q 121 271 119 281 l 121 271 q 233 86 154 147 q 418 25 311 25 l 418 25 q 560 60 497 25 q 657 162 622 96 q 692 317 692 228 l 692 317 q 619 528 692 450 q 421 606 546 606 l 421 606 q 265 571 336 606 q 143 472 193 536 l 143 472 q 128 468 136 465 l 128 468 l 122 471 q 114 483 114 475 l 114 483 l 163 1008 q 175 1019 163 1019 l 175 1019 l 682 1019 q 693 1008 693 1019 l 693 1008 l 693 988 q 682 976 693 976 l 682 976 l 203 976 l 163 550 q 276 624 210 597 q 421 650 343 650 l 421 650 q 588 609 515 650 q 699 492 660 568 q 738 317 738 417 l 738 317 q 697 142 738 218 q 584 23 657 65 q 418 -19 511 -19 l 418 -19 z "},"6":{"ha":789,"x_min":69,"x_max":725,"o":"m 397 -19 q 226 22 300 -19 q 110 140 151 64 q 69 315 69 215 l 69 315 q 105 490 69 407 q 232 700 140 574 l 232 700 l 460 1013 q 474 1019 464 1019 l 474 1019 l 500 1019 q 509 1015 507 1019 q 507 1006 511 1011 l 507 1006 l 192 574 q 397 650 272 650 l 397 650 q 569 608 494 650 q 684 491 643 567 q 725 315 725 415 l 725 315 q 684 140 725 215 q 569 22 643 64 q 397 -19 494 -19 l 397 -19 z m 397 25 q 603 103 528 25 q 679 315 679 181 l 679 315 q 603 528 679 450 q 397 606 528 606 l 397 606 q 191 528 267 606 q 115 315 115 450 l 115 315 q 191 103 115 181 q 397 25 267 25 l 397 25 z "},"7":{"ha":803,"x_min":69,"x_max":725,"o":"m 279 0 l 254 0 q 246 13 242 0 l 246 13 l 671 976 l 81 976 q 69 988 69 976 l 69 988 l 69 1008 q 81 1019 69 1019 l 81 1019 l 714 1019 q 725 1008 725 1019 l 725 1008 l 725 1001 q 722 988 725 996 l 722 988 l 293 8 q 279 0 290 0 l 279 0 z "},"8":{"ha":846,"x_min":76,"x_max":769,"o":"m 424 -19 q 246 17 325 -19 q 122 122 167 54 q 76 274 76 189 l 76 274 q 138 444 76 372 q 303 540 200 515 l 303 540 q 164 628 217 564 q 111 778 111 693 l 111 778 q 152 911 111 851 q 264 1005 193 971 q 424 1039 335 1039 l 424 1039 q 583 1005 513 1039 q 695 911 654 971 q 736 778 736 851 l 736 778 q 683 628 736 693 q 543 540 631 564 l 543 540 q 708 443 646 515 q 769 274 769 371 l 769 274 q 724 122 769 189 q 600 18 679 56 q 424 -19 521 -19 l 424 -19 z m 424 561 q 561 589 500 561 q 656 666 622 617 q 690 778 690 715 l 690 778 q 656 889 690 839 q 561 967 622 939 q 424 994 500 994 l 424 994 q 286 967 347 994 q 191 889 225 939 q 157 778 157 839 l 157 778 q 191 666 157 715 q 286 589 225 617 q 424 561 347 561 l 424 561 z m 424 25 q 578 57 510 25 q 685 145 646 89 q 724 272 724 201 l 724 272 q 685 399 724 343 q 578 485 646 454 q 424 517 510 517 l 424 517 q 269 485 338 517 q 161 399 200 454 q 122 272 122 343 l 122 272 q 161 145 122 201 q 269 57 200 89 q 424 25 338 25 l 424 25 z "},"9":{"ha":789,"x_min":64,"x_max":719,"o":"m 301 0 l 275 0 q 266 4 268 0 q 268 14 264 8 l 268 14 l 590 439 q 392 369 510 369 l 392 369 q 220 411 294 369 q 105 528 146 453 q 64 704 64 604 l 64 704 q 105 880 64 804 q 220 997 146 956 q 392 1039 294 1039 l 392 1039 q 563 997 489 1039 q 678 880 638 956 q 719 704 719 804 l 719 704 q 683 526 719 611 q 553 319 647 442 l 553 319 l 315 7 q 301 0 311 0 l 301 0 z m 392 414 q 598 492 522 414 q 674 704 674 569 l 674 704 q 598 917 674 839 q 392 994 522 994 l 392 994 q 185 917 261 994 q 110 704 110 839 l 110 704 q 185 492 110 569 q 392 414 261 414 l 392 414 z "},"\u0000":{"ha":0,"x_min":null,"x_max":null,"o":""},"\r":{"ha":314,"x_min":null,"x_max":null,"o":""}," ":{"ha":314,"x_min":null,"x_max":null,"o":""},"A":{"ha":954,"x_min":40,"x_max":913,"o":"m 72 0 l 51 0 q 43 3 46 0 q 43 13 40 7 l 43 13 l 446 1011 q 460 1019 449 1019 l 460 1019 l 494 1019 q 508 1011 506 1019 l 508 1011 l 911 13 q 913 7 913 11 l 913 7 q 903 0 913 0 l 903 0 l 879 0 q 865 8 868 0 l 865 8 l 746 307 l 207 307 l 86 8 q 72 0 83 0 l 72 0 z m 476 978 l 224 350 l 728 350 l 476 978 z "},"B":{"ha":911,"x_min":139,"x_max":829,"o":"m 488 0 l 150 0 q 139 11 139 0 l 139 11 l 139 1008 q 150 1019 139 1019 l 150 1019 l 465 1019 q 701 948 621 1019 q 782 764 782 876 l 782 764 q 617 532 782 589 l 617 532 q 829 276 829 485 l 829 276 q 744 76 829 151 q 488 0 660 0 l 488 0 z m 458 976 l 183 976 l 183 551 l 474 551 q 738 764 738 551 l 738 764 q 668 919 738 863 q 458 976 599 976 l 458 976 z m 481 508 l 183 508 l 183 43 l 481 43 q 783 276 783 43 l 783 276 q 481 508 783 508 l 481 508 z "},"C":{"ha":1057,"x_min":83,"x_max":983,"o":"m 553 -19 q 306 44 413 -19 q 142 228 200 108 q 83 510 83 349 l 83 510 q 142 791 83 671 q 306 975 200 911 q 553 1039 413 1039 l 553 1039 q 806 970 701 1039 q 963 775 910 901 l 963 775 q 964 771 964 774 l 964 771 q 956 761 964 764 l 956 761 l 933 753 q 929 751 932 751 l 929 751 q 919 758 922 751 l 919 758 q 778 935 868 875 q 553 994 689 994 l 553 994 q 322 932 418 994 q 178 760 226 869 q 129 510 129 650 l 129 510 q 178 258 129 368 q 322 87 226 149 q 553 25 418 25 l 553 25 q 794 97 696 25 q 939 299 893 168 l 939 299 q 954 306 943 310 l 954 306 l 975 299 q 982 285 983 294 l 982 285 q 824 62 933 143 q 553 -19 715 -19 l 553 -19 z "},"D":{"ha":1015,"x_min":139,"x_max":932,"o":"m 419 0 l 150 0 q 139 11 139 0 l 139 11 l 139 1008 q 150 1019 139 1019 l 150 1019 l 419 1019 q 804 883 676 1019 q 932 510 932 746 l 932 510 q 804 137 932 274 q 419 0 676 0 l 419 0 z m 413 976 l 183 976 l 183 43 l 413 43 q 767 166 649 43 q 886 510 886 289 l 886 510 q 767 853 886 731 q 413 976 649 976 l 413 976 z "},"E":{"ha":817,"x_min":139,"x_max":761,"o":"m 750 0 l 150 0 q 139 11 139 0 l 139 11 l 139 1008 q 150 1019 139 1019 l 150 1019 l 735 1019 q 746 1008 746 1019 l 746 1008 l 746 988 q 735 976 746 976 l 735 976 l 183 976 l 183 551 l 690 551 q 701 540 701 551 l 701 540 l 701 519 q 690 508 701 508 l 690 508 l 183 508 l 183 43 l 750 43 q 761 32 761 43 l 761 32 l 761 11 q 750 0 761 0 l 750 0 z "},"F":{"ha":783,"x_min":139,"x_max":731,"o":"m 172 0 l 150 0 q 139 11 139 0 l 139 11 l 139 1008 q 150 1019 139 1019 l 150 1019 l 719 1019 q 731 1008 731 1019 l 731 1008 l 731 988 q 719 976 731 976 l 719 976 l 183 976 l 183 538 l 663 538 q 674 526 674 538 l 674 526 l 674 506 q 663 494 674 494 l 663 494 l 183 494 l 183 11 q 172 0 183 0 l 172 0 z "},"G":{"ha":1083,"x_min":83,"x_max":1000,"o":"m 558 -19 q 310 45 418 -19 q 143 229 203 110 q 83 510 83 349 l 83 510 q 143 790 83 671 q 310 974 203 910 q 558 1039 418 1039 l 558 1039 q 811 970 707 1039 q 968 775 915 901 l 968 775 q 969 771 969 774 l 969 771 q 961 761 969 764 l 961 761 l 939 753 q 935 751 938 751 l 935 751 q 925 758 928 751 l 925 758 q 784 935 874 875 q 558 994 694 994 l 558 994 q 326 932 424 994 q 179 760 229 869 q 129 510 129 650 l 129 510 q 179 260 129 369 q 326 88 229 150 q 558 25 422 25 l 558 25 q 769 74 681 25 q 906 212 858 122 q 954 424 954 301 l 954 424 l 954 453 l 585 453 q 574 464 574 453 l 574 464 l 574 485 q 585 496 574 496 l 585 496 l 989 496 q 1000 485 1000 496 l 1000 485 l 1000 426 q 949 197 1000 297 q 799 38 899 96 q 558 -19 700 -19 l 558 -19 z "},"H":{"ha":1028,"x_min":139,"x_max":889,"o":"m 172 0 l 150 0 q 139 11 139 0 l 139 11 l 139 1008 q 150 1019 139 1019 l 150 1019 l 172 1019 q 183 1008 183 1019 l 183 1008 l 183 549 l 844 549 l 844 1008 q 856 1019 844 1019 l 856 1019 l 878 1019 q 889 1008 889 1019 l 889 1008 l 889 11 q 878 0 889 0 l 878 0 l 856 0 q 844 11 844 0 l 844 11 l 844 506 l 183 506 l 183 11 q 172 0 183 0 l 172 0 z "},"I":{"ha":322,"x_min":139,"x_max":183,"o":"m 172 0 l 150 0 q 139 11 139 0 l 139 11 l 139 1008 q 150 1019 139 1019 l 150 1019 l 172 1019 q 183 1008 183 1019 l 183 1008 l 183 11 q 172 0 183 0 l 172 0 z "},"J":{"ha":631,"x_min":21,"x_max":510,"o":"m 261 -19 q 113 24 174 -19 q 22 165 53 68 l 22 165 l 21 169 q 25 177 21 175 q 31 179 29 179 l 31 179 l 50 186 l 56 188 q 64 178 63 188 l 64 178 q 138 63 90 100 q 261 25 186 25 l 261 25 q 390 59 346 25 q 450 155 435 93 q 465 314 465 217 l 465 314 l 465 976 l 157 976 q 146 988 146 976 l 146 988 l 146 1008 q 157 1019 146 1019 l 157 1019 l 499 1019 q 510 1008 510 1019 l 510 1008 l 510 293 q 451 58 510 135 q 261 -19 393 -19 l 261 -19 z "},"K":{"ha":924,"x_min":139,"x_max":856,"o":"m 172 0 l 150 0 q 139 11 139 0 l 139 11 l 139 1008 q 150 1019 139 1019 l 150 1019 l 172 1019 q 183 1008 183 1019 l 183 1008 l 183 383 l 750 1014 q 764 1019 756 1019 l 764 1019 l 790 1019 q 799 1015 797 1019 q 796 1006 800 1011 l 796 1006 l 449 619 l 854 14 q 856 8 856 13 l 856 8 q 853 3 856 6 q 846 0 850 0 l 846 0 l 817 0 q 804 7 808 0 l 804 7 l 419 586 l 183 322 l 183 11 q 172 0 183 0 l 172 0 z "},"L":{"ha":819,"x_min":139,"x_max":771,"o":"m 760 0 l 150 0 q 139 11 139 0 l 139 11 l 139 1008 q 150 1019 139 1019 l 150 1019 l 172 1019 q 183 1008 183 1019 l 183 1008 l 183 43 l 760 43 q 771 32 771 43 l 771 32 l 771 11 q 760 0 771 0 l 760 0 z "},"M":{"ha":1271,"x_min":139,"x_max":1132,"o":"m 172 0 l 150 0 q 139 11 139 0 l 139 11 l 139 1008 q 150 1019 139 1019 l 150 1019 l 178 1019 q 190 1013 186 1019 l 190 1013 l 638 247 l 1083 1013 q 1096 1019 1088 1019 l 1096 1019 l 1121 1019 q 1132 1008 1132 1019 l 1132 1008 l 1132 11 q 1121 0 1132 0 l 1121 0 l 1099 0 q 1088 11 1088 0 l 1088 11 l 1088 933 l 660 201 q 647 194 656 194 l 647 194 l 624 194 q 611 201 615 194 l 611 201 l 183 938 l 183 11 q 172 0 183 0 l 172 0 z "},"N":{"ha":1019,"x_min":139,"x_max":881,"o":"m 172 0 l 150 0 q 139 11 139 0 l 139 11 l 139 1008 q 150 1019 139 1019 l 150 1019 l 178 1019 q 190 1013 185 1019 l 190 1013 l 836 75 l 836 1008 q 847 1019 836 1019 l 847 1019 l 869 1019 q 881 1008 881 1019 l 881 1008 l 881 11 q 869 0 881 0 l 869 0 l 842 0 q 829 7 835 0 l 829 7 l 183 944 l 183 11 q 172 0 183 0 l 172 0 z "},"O":{"ha":1117,"x_min":83,"x_max":1033,"o":"m 558 -19 q 310 45 418 -19 q 143 229 203 110 q 83 510 83 349 l 83 510 q 143 790 83 671 q 310 974 203 910 q 558 1039 418 1039 l 558 1039 q 806 974 699 1039 q 974 790 914 910 q 1033 510 1033 671 l 1033 510 q 974 229 1033 349 q 806 45 914 110 q 558 -19 699 -19 l 558 -19 z m 558 25 q 790 88 693 25 q 938 260 888 150 q 988 510 988 369 l 988 510 q 938 760 988 650 q 791 932 888 869 q 558 994 694 994 l 558 994 q 326 932 424 994 q 179 760 229 869 q 129 510 129 650 l 129 510 q 179 260 129 369 q 326 88 229 150 q 558 25 422 25 l 558 25 z "},"P":{"ha":863,"x_min":139,"x_max":793,"o":"m 172 0 l 150 0 q 139 11 139 0 l 139 11 l 139 1008 q 150 1019 139 1019 l 150 1019 l 433 1019 q 706 936 618 1019 q 793 700 793 853 l 793 700 q 707 463 793 544 q 433 381 621 381 l 433 381 l 183 381 l 183 11 q 172 0 183 0 l 172 0 z m 426 976 l 183 976 l 183 424 l 426 424 q 672 492 596 424 q 747 700 747 560 l 747 700 q 671 906 747 836 q 426 976 594 976 l 426 976 z "},"Q":{"ha":1144,"x_min":83,"x_max":1061,"o":"m 1050 0 l 554 0 q 308 63 415 0 q 142 244 201 126 q 83 519 83 363 l 83 519 q 143 793 83 675 q 310 975 203 911 q 558 1039 418 1039 l 558 1039 q 806 975 699 1039 q 974 793 914 911 q 1033 519 1033 675 l 1033 519 q 958 222 1033 346 q 751 43 882 99 l 751 43 l 1050 43 q 1061 32 1061 43 l 1061 32 l 1061 11 q 1050 0 1061 0 l 1050 0 z m 558 44 q 790 106 693 44 q 938 274 888 167 q 988 519 988 382 l 988 519 q 938 763 988 656 q 790 933 888 871 q 558 994 693 994 l 558 994 q 326 933 424 994 q 179 763 229 871 q 129 519 129 654 l 129 519 q 179 274 129 382 q 326 106 229 167 q 558 44 422 44 l 558 44 z "},"R":{"ha":904,"x_min":139,"x_max":814,"o":"m 172 0 l 150 0 q 139 11 139 0 l 139 11 l 139 1008 q 150 1019 139 1019 l 150 1019 l 433 1019 q 706 937 618 1019 q 793 707 793 854 l 793 707 q 572 410 793 463 l 572 410 l 813 14 q 814 7 814 11 l 814 7 q 806 0 814 0 l 806 0 l 776 0 q 764 7 768 0 l 764 7 l 529 401 q 433 394 481 394 l 433 394 l 183 394 l 183 11 q 172 0 183 0 l 172 0 z m 426 976 l 183 976 l 183 438 l 426 438 q 671 506 594 438 q 747 707 747 575 l 747 707 q 671 908 747 839 q 426 976 594 976 l 426 976 z "},"S":{"ha":804,"x_min":68,"x_max":732,"o":"m 414 -19 q 68 247 144 -19 l 68 247 l 68 250 q 76 261 68 257 l 76 261 l 97 268 l 101 268 q 111 260 108 268 l 111 260 q 222 81 150 136 q 414 25 293 25 l 414 25 q 611 84 536 25 q 686 244 686 143 l 686 244 q 625 401 686 346 q 433 500 564 457 l 433 500 l 371 521 q 97 789 97 613 l 97 789 q 135 919 97 863 q 242 1008 174 976 q 394 1039 310 1039 l 394 1039 q 601 978 521 1039 q 714 797 682 917 l 714 797 l 714 794 q 706 783 714 786 l 706 783 l 683 778 l 681 778 q 669 786 672 778 l 669 786 q 574 943 642 892 q 394 994 506 994 l 394 994 q 263 968 321 994 q 174 895 206 942 q 142 789 142 849 l 142 789 q 385 564 142 643 l 385 564 l 449 543 q 665 426 599 493 q 732 244 732 360 l 732 244 q 692 106 732 165 q 579 13 651 46 q 414 -19 507 -19 l 414 -19 z "},"T":{"ha":875,"x_min":49,"x_max":826,"o":"m 449 0 l 426 0 q 415 11 415 0 l 415 11 l 415 976 l 60 976 q 49 988 49 976 l 49 988 l 49 1008 q 60 1019 49 1019 l 60 1019 l 815 1019 q 826 1008 826 1019 l 826 1008 l 826 988 q 815 976 826 976 l 815 976 l 460 976 l 460 11 q 449 0 460 0 l 449 0 z "},"U":{"ha":989,"x_min":121,"x_max":868,"o":"m 494 -19 q 310 24 394 -19 q 173 165 225 67 q 121 415 121 263 l 121 415 l 121 1008 q 132 1019 121 1019 l 132 1019 l 154 1019 q 165 1008 165 1019 l 165 1008 l 165 415 q 257 121 165 217 q 494 25 349 25 l 494 25 q 731 122 639 25 q 824 415 824 218 l 824 415 l 824 1008 q 835 1019 824 1019 l 835 1019 l 857 1019 q 868 1008 868 1019 l 868 1008 l 868 415 q 815 165 868 263 q 678 24 763 67 q 494 -19 593 -19 l 494 -19 z "},"V":{"ha":949,"x_min":42,"x_max":908,"o":"m 492 0 l 457 0 q 443 8 446 0 l 443 8 l 43 1007 l 42 1013 q 51 1019 42 1019 l 51 1019 l 75 1019 q 89 1011 86 1019 l 89 1011 l 475 46 l 863 1011 q 876 1019 865 1019 l 876 1019 l 897 1019 q 906 1016 903 1019 q 906 1007 908 1013 l 906 1007 l 506 8 q 492 0 503 0 l 492 0 z "},"W":{"ha":1490,"x_min":42,"x_max":1450,"o":"m 442 0 l 407 0 q 394 8 397 0 l 394 8 l 43 1007 l 42 1011 q 44 1017 42 1014 q 53 1019 47 1019 l 53 1019 l 76 1019 q 89 1011 88 1019 l 89 1011 l 425 54 l 719 1010 q 732 1019 721 1019 l 732 1019 l 760 1019 q 772 1010 771 1019 l 772 1010 l 1068 58 l 1403 1011 q 1415 1019 1406 1019 l 1415 1019 l 1438 1019 q 1447 1016 1443 1019 q 1447 1007 1450 1013 l 1447 1007 l 1096 8 q 1083 0 1094 0 l 1083 0 l 1049 0 q 1036 10 1038 0 l 1036 10 l 744 950 l 454 10 q 442 0 453 0 l 442 0 z "},"X":{"ha":869,"x_min":49,"x_max":819,"o":"m 82 0 l 58 0 q 51 4 53 0 q 51 14 49 8 l 51 14 l 407 535 l 83 1006 l 81 1013 q 90 1019 81 1019 l 90 1019 l 115 1019 q 128 1013 125 1019 l 128 1013 l 435 565 l 743 1013 q 756 1019 747 1019 l 756 1019 l 779 1019 q 788 1015 786 1019 q 786 1006 790 1011 l 786 1006 l 463 535 l 818 14 l 819 8 q 811 0 819 0 l 811 0 l 786 0 q 774 7 778 0 l 774 7 l 435 503 l 94 7 q 82 0 92 0 l 82 0 z "},"Y":{"ha":896,"x_min":42,"x_max":856,"o":"m 460 0 l 438 0 q 426 11 426 0 l 426 11 l 426 415 l 43 1006 q 42 1011 42 1007 l 42 1011 q 44 1017 42 1014 q 51 1019 47 1019 l 51 1019 l 76 1019 q 89 1013 86 1019 l 89 1013 l 449 457 l 808 1013 q 821 1019 813 1019 l 821 1019 l 844 1019 q 853 1015 851 1019 q 853 1006 856 1011 l 853 1006 l 471 417 l 471 11 q 460 0 471 0 l 460 0 z "},"Z":{"ha":860,"x_min":69,"x_max":782,"o":"m 771 0 l 81 0 q 69 11 69 0 l 69 11 l 69 18 q 74 32 69 26 l 74 32 l 711 976 l 92 976 q 81 988 81 976 l 81 988 l 81 1008 q 92 1019 81 1019 l 92 1019 l 763 1019 q 774 1008 774 1019 l 774 1008 l 774 1001 q 769 988 774 994 l 769 988 l 132 43 l 771 43 q 782 32 782 43 l 782 32 l 782 11 q 771 0 782 0 l 771 0 z "},"a":{"ha":840,"x_min":63,"x_max":718,"o":"m 397 -14 q 221 32 297 -14 q 103 158 144 78 q 63 342 63 239 l 63 342 q 103 525 63 444 q 221 651 144 606 q 397 697 297 697 l 397 697 q 568 648 490 697 q 676 519 646 599 l 676 519 l 683 672 q 694 683 683 683 l 694 683 l 707 683 q 718 672 718 683 l 718 672 l 718 11 q 707 0 718 0 l 707 0 l 694 0 q 683 11 683 0 l 683 11 l 676 164 q 568 35 646 85 q 397 -14 490 -14 l 397 -14 z m 394 28 q 544 67 479 28 q 647 177 610 106 q 683 342 683 249 l 683 342 q 647 506 683 435 q 544 617 610 578 q 394 656 479 656 l 394 656 q 244 617 310 656 q 142 506 179 578 q 106 342 106 435 l 106 342 q 142 177 106 249 q 244 67 179 106 q 394 28 310 28 l 394 28 z "},"b":{"ha":840,"x_min":122,"x_max":778,"o":"m 443 -14 q 272 35 350 -14 q 164 164 194 85 l 164 164 l 157 11 q 146 0 157 0 l 146 0 l 133 0 q 122 11 122 0 l 122 11 l 122 1031 q 133 1042 122 1042 l 133 1042 l 153 1042 q 164 1031 164 1042 l 164 1031 l 164 521 q 273 649 196 600 q 443 697 350 697 l 443 697 q 619 651 543 697 q 737 525 696 606 q 778 342 778 444 l 778 342 q 737 158 778 239 q 619 32 696 78 q 443 -14 543 -14 l 443 -14 z m 446 28 q 596 67 531 28 q 698 177 661 106 q 735 342 735 249 l 735 342 q 698 506 735 435 q 596 617 661 578 q 446 656 531 656 l 446 656 q 296 617 361 656 q 194 506 231 578 q 157 342 157 435 l 157 342 q 194 177 157 249 q 296 67 231 106 q 446 28 361 28 l 446 28 z "},"c":{"ha":722,"x_min":63,"x_max":669,"o":"m 392 -14 q 219 31 293 -14 q 103 158 144 76 q 63 342 63 239 l 63 342 q 103 525 63 444 q 219 651 144 606 q 392 697 294 697 l 392 697 q 558 653 490 697 q 660 522 626 608 l 660 522 l 661 517 q 653 508 661 511 l 653 508 l 635 503 l 629 501 q 621 510 624 501 l 621 510 q 392 656 561 656 l 392 656 q 233 613 297 656 q 138 499 169 569 q 106 342 106 428 l 106 342 q 138 184 106 256 q 234 70 169 113 q 392 28 299 28 l 392 28 q 628 182 564 28 l 628 182 q 642 188 632 192 l 642 188 l 660 181 q 665 165 669 176 l 665 165 q 560 31 631 76 q 392 -14 490 -14 l 392 -14 z "},"d":{"ha":840,"x_min":63,"x_max":718,"o":"m 397 -14 q 221 32 297 -14 q 103 158 144 78 q 63 342 63 239 l 63 342 q 103 525 63 444 q 221 651 144 606 q 397 697 297 697 l 397 697 q 567 649 490 697 q 676 521 644 600 l 676 521 l 676 1031 q 688 1042 676 1042 l 688 1042 l 707 1042 q 718 1031 718 1042 l 718 1031 l 718 11 q 707 0 718 0 l 707 0 l 694 0 q 683 11 683 0 l 683 11 l 676 164 q 568 35 646 85 q 397 -14 490 -14 l 397 -14 z m 394 28 q 544 67 479 28 q 647 177 610 106 q 683 342 683 249 l 683 342 q 647 506 683 435 q 544 617 610 578 q 394 656 479 656 l 394 656 q 244 617 310 656 q 142 506 179 578 q 106 342 106 435 l 106 342 q 142 177 106 249 q 244 67 179 106 q 394 28 310 28 l 394 28 z "},"e":{"ha":736,"x_min":63,"x_max":682,"o":"m 385 -14 q 215 32 289 -14 q 102 159 142 78 q 63 342 63 240 l 63 342 q 103 524 63 443 q 218 651 144 606 q 386 697 292 697 l 386 697 q 603 599 526 697 q 682 338 681 500 l 682 338 q 671 326 682 326 l 671 326 l 106 326 q 187 109 111 190 q 385 28 263 28 l 385 28 q 538 67 478 28 q 635 182 599 106 l 635 182 q 649 188 639 193 l 649 188 l 664 182 q 671 168 675 178 l 671 168 q 385 -14 589 -14 l 385 -14 z m 386 656 q 247 619 308 656 q 147 518 185 583 q 106 365 110 453 l 106 365 l 636 365 q 568 575 635 494 q 386 656 501 656 l 386 656 z "},"f":{"ha":469,"x_min":25,"x_max":517,"o":"m 193 0 l 174 0 q 163 11 163 0 l 163 11 l 163 643 l 36 643 q 25 654 25 643 l 25 654 l 25 672 q 36 683 25 683 l 36 683 l 163 683 l 163 821 q 213 992 163 935 q 344 1050 263 1050 l 344 1050 q 515 929 464 1050 l 515 929 q 517 924 517 928 l 517 924 q 508 914 517 917 l 508 914 l 490 908 q 486 907 489 907 l 486 907 q 476 915 479 907 l 476 915 q 344 1008 435 1008 l 344 1008 q 204 814 204 1008 l 204 814 l 204 683 l 421 683 q 432 672 432 683 l 432 672 l 432 654 q 421 643 432 643 l 421 643 l 204 643 l 204 11 q 193 0 204 0 l 193 0 z "},"g":{"ha":840,"x_min":63,"x_max":718,"o":"m 406 -317 q 222 -269 296 -317 q 114 -132 149 -222 l 114 -132 q 119 -118 110 -121 l 119 -118 l 138 -111 q 151 -117 147 -107 l 151 -117 q 406 -275 217 -275 l 406 -275 q 599 -216 521 -275 q 676 -22 676 -157 l 676 -22 l 676 163 q 567 35 644 83 q 397 -14 490 -14 l 397 -14 q 221 32 297 -14 q 103 158 144 78 q 63 342 63 239 l 63 342 q 103 525 63 444 q 221 651 144 606 q 397 697 297 697 l 397 697 q 568 648 490 697 q 676 519 646 599 l 676 519 l 683 672 q 694 683 683 683 l 694 683 l 707 683 q 718 672 718 683 l 718 672 l 718 -18 q 630 -246 718 -175 q 406 -317 542 -317 l 406 -317 z m 394 28 q 544 67 479 28 q 647 177 610 106 q 683 342 683 249 l 683 342 q 647 506 683 435 q 544 617 610 578 q 394 656 479 656 l 394 656 q 244 617 310 656 q 142 506 179 578 q 106 342 106 435 l 106 342 q 142 177 106 249 q 244 67 179 106 q 394 28 310 28 l 394 28 z "},"h":{"ha":790,"x_min":122,"x_max":672,"o":"m 153 0 l 133 0 q 122 11 122 0 l 122 11 l 122 1031 q 133 1042 122 1042 l 133 1042 l 153 1042 q 164 1031 164 1042 l 164 1031 l 164 525 q 274 652 197 607 q 432 697 350 697 l 432 697 q 608 630 544 697 q 672 443 672 563 l 672 443 l 672 11 q 661 0 672 0 l 661 0 l 642 0 q 631 11 631 0 l 631 11 l 631 424 q 428 656 631 656 l 428 656 q 307 624 368 656 q 205 530 246 593 q 164 375 164 467 l 164 375 l 164 11 q 153 0 164 0 l 153 0 z "},"i":{"ha":286,"x_min":101,"x_max":185,"o":"m 143 872 q 113 884 125 872 q 101 914 101 896 l 101 914 q 113 943 101 932 q 143 954 125 954 l 143 954 q 173 943 161 954 q 185 914 185 932 l 185 914 q 173 884 185 896 q 143 872 161 872 l 143 872 z m 153 0 l 133 0 q 122 11 122 0 l 122 11 l 122 672 q 133 683 122 683 l 133 683 l 153 683 q 164 672 164 683 l 164 672 l 164 11 q 153 0 164 0 l 153 0 z "},"j":{"ha":286,"x_min":-160,"x_max":185,"o":"m 143 872 q 113 884 125 872 q 101 914 101 896 l 101 914 q 113 943 101 932 q 143 954 125 954 l 143 954 q 173 943 161 954 q 185 914 185 932 l 185 914 q 173 884 185 896 q 143 872 161 872 l 143 872 z m -4 -317 q -99 -288 -62 -317 q -158 -197 -136 -260 l -158 -197 q -160 -192 -160 -196 l -160 -192 q -151 -182 -160 -185 l -151 -182 l -137 -178 q -132 -176 -136 -176 l -132 -176 q -122 -185 -125 -176 l -122 -185 q -76 -253 -104 -232 q -4 -275 -49 -275 l -4 -275 q 122 -89 122 -275 l 122 -89 l 122 672 q 133 683 122 683 l 133 683 l 153 683 q 164 672 164 683 l 164 672 l 164 -96 q 117 -262 164 -208 q -4 -317 69 -317 l -4 -317 z "},"k":{"ha":692,"x_min":122,"x_max":639,"o":"m 153 0 l 133 0 q 122 11 122 0 l 122 11 l 122 1031 q 133 1042 122 1042 l 133 1042 l 153 1042 q 164 1031 164 1042 l 164 1031 l 164 329 l 550 678 q 564 683 556 683 l 564 683 l 590 683 q 599 679 597 683 q 596 669 601 675 l 596 669 l 328 429 l 636 14 l 639 7 q 629 0 639 0 l 629 0 l 603 0 q 589 7 593 0 l 589 7 l 296 400 l 164 282 l 164 11 q 153 0 164 0 l 153 0 z "},"l":{"ha":286,"x_min":122,"x_max":164,"o":"m 153 0 l 133 0 q 122 11 122 0 l 122 11 l 122 1031 q 133 1042 122 1042 l 133 1042 l 153 1042 q 164 1031 164 1042 l 164 1031 l 164 11 q 153 0 164 0 l 153 0 z "},"m":{"ha":1260,"x_min":122,"x_max":1142,"o":"m 153 0 l 133 0 q 122 11 122 0 l 122 11 l 122 672 q 133 683 122 683 l 133 683 l 146 683 q 157 672 157 683 l 157 672 l 164 525 q 267 653 197 608 q 418 697 338 697 l 418 697 q 568 649 508 697 q 646 514 628 600 l 646 514 q 749 649 676 601 q 907 697 822 697 l 907 697 q 1078 629 1015 697 q 1142 443 1142 561 l 1142 443 l 1142 11 q 1131 0 1142 0 l 1131 0 l 1111 0 q 1100 11 1100 0 l 1100 11 l 1100 424 q 1051 597 1100 538 q 904 656 1003 656 l 904 656 q 786 625 844 656 q 690 531 728 594 q 653 375 653 467 l 653 375 l 653 11 q 642 0 653 0 l 642 0 l 622 0 q 611 11 611 0 l 611 11 l 611 424 q 563 597 611 538 q 415 656 514 656 l 415 656 q 297 625 356 656 q 201 531 239 594 q 164 375 164 467 l 164 375 l 164 11 q 153 0 164 0 l 153 0 z "},"n":{"ha":790,"x_min":122,"x_max":672,"o":"m 153 0 l 133 0 q 122 11 122 0 l 122 11 l 122 672 q 133 683 122 683 l 133 683 l 146 683 q 157 672 157 683 l 157 672 l 163 524 q 273 651 196 606 q 432 697 350 697 l 432 697 q 608 630 544 697 q 672 443 672 563 l 672 443 l 672 11 q 661 0 672 0 l 661 0 l 642 0 q 631 11 631 0 l 631 11 l 631 424 q 428 656 631 656 l 428 656 q 307 624 368 656 q 205 530 246 593 q 164 375 164 467 l 164 375 l 164 11 q 153 0 164 0 l 153 0 z "},"o":{"ha":789,"x_min":63,"x_max":726,"o":"m 394 -14 q 221 32 296 -14 q 104 159 146 78 q 63 342 63 240 l 63 342 q 104 524 63 443 q 221 651 146 606 q 394 697 296 697 l 394 697 q 568 651 493 697 q 685 524 643 606 q 726 342 726 443 l 726 342 q 685 159 726 240 q 568 32 643 78 q 394 -14 493 -14 l 394 -14 z m 394 28 q 544 67 479 28 q 647 177 610 106 q 683 342 683 249 l 683 342 q 647 506 683 435 q 544 617 610 578 q 394 656 479 656 l 394 656 q 244 617 310 656 q 142 506 179 578 q 106 342 106 435 l 106 342 q 142 177 106 249 q 244 67 179 106 q 394 28 310 28 l 394 28 z "},"p":{"ha":840,"x_min":122,"x_max":778,"o":"m 153 -303 l 133 -303 q 122 -292 122 -303 l 122 -292 l 122 672 q 133 683 122 683 l 133 683 l 146 683 q 157 672 157 683 l 157 672 l 164 519 q 272 648 194 599 q 443 697 350 697 l 443 697 q 619 651 543 697 q 737 525 696 606 q 778 342 778 444 l 778 342 q 737 158 778 239 q 619 32 696 78 q 443 -14 543 -14 l 443 -14 q 273 35 350 -14 q 164 163 196 83 l 164 163 l 164 -292 q 153 -303 164 -303 l 153 -303 z m 446 28 q 596 67 531 28 q 698 177 661 106 q 735 342 735 249 l 735 342 q 698 506 735 435 q 596 617 661 578 q 446 656 531 656 l 446 656 q 296 617 361 656 q 194 506 231 578 q 157 342 157 435 l 157 342 q 194 177 157 249 q 296 67 231 106 q 446 28 361 28 l 446 28 z "},"q":{"ha":840,"x_min":63,"x_max":718,"o":"m 707 -303 l 689 -303 q 676 -292 678 -303 l 676 -292 l 676 163 q 567 35 644 83 q 397 -14 490 -14 l 397 -14 q 221 32 297 -14 q 103 158 144 78 q 63 342 63 239 l 63 342 q 103 525 63 444 q 221 651 144 606 q 397 697 297 697 l 397 697 q 568 648 490 697 q 676 519 646 599 l 676 519 l 683 672 q 694 683 683 683 l 694 683 l 707 683 q 718 672 718 683 l 718 672 l 718 -292 q 707 -303 718 -303 l 707 -303 z m 394 28 q 544 67 479 28 q 647 177 610 106 q 683 342 683 249 l 683 342 q 647 506 683 435 q 544 617 610 578 q 394 656 479 656 l 394 656 q 244 617 310 656 q 142 506 179 578 q 106 342 106 435 l 106 342 q 142 177 106 249 q 244 67 179 106 q 394 28 310 28 l 394 28 z "},"r":{"ha":486,"x_min":122,"x_max":458,"o":"m 153 0 l 133 0 q 122 11 122 0 l 122 11 l 122 672 q 133 683 122 683 l 133 683 l 146 683 q 157 672 157 683 l 157 672 l 164 521 q 270 647 203 601 q 422 693 338 693 l 422 693 q 449 692 442 693 l 449 692 q 458 681 458 690 l 458 681 l 458 661 q 450 650 458 650 l 450 650 l 418 651 q 294 615 353 651 q 200 517 236 578 q 164 389 164 457 l 164 389 l 164 11 q 153 0 164 0 l 153 0 z "},"s":{"ha":633,"x_min":58,"x_max":550,"o":"m 332 -14 q 60 165 122 -14 l 60 165 q 58 169 58 167 l 58 169 q 67 179 58 178 l 67 179 l 85 185 l 90 186 q 99 178 97 186 l 99 178 q 184 64 128 100 q 332 28 240 28 l 332 28 q 458 65 408 28 q 507 167 507 101 l 507 167 q 467 260 507 225 q 339 318 426 294 l 339 318 l 290 331 q 140 403 188 357 q 92 519 92 450 l 92 519 q 151 647 92 597 q 307 697 210 697 l 307 697 q 451 658 389 697 q 540 539 513 618 l 540 539 q 542 535 542 538 l 542 535 q 533 525 542 528 l 533 525 l 515 519 q 511 518 514 518 l 511 518 q 501 526 504 518 l 501 526 q 307 656 447 656 l 307 656 q 181 618 228 656 q 135 519 135 581 l 135 519 q 174 428 135 463 q 313 368 214 394 l 313 368 l 356 357 q 503 284 456 331 q 550 169 550 238 l 550 169 q 490 36 550 86 q 332 -14 429 -14 l 332 -14 z "},"t":{"ha":507,"x_min":11,"x_max":494,"o":"m 326 -14 q 206 40 250 -14 q 163 207 163 93 l 163 207 l 163 643 l 22 643 q 11 654 11 643 l 11 654 l 11 672 q 22 683 11 683 l 22 683 l 163 683 l 163 919 q 174 931 163 931 l 174 931 l 193 931 q 204 919 204 931 l 204 919 l 204 683 l 422 683 q 433 672 433 683 l 433 672 l 433 654 q 422 643 433 643 l 422 643 l 204 643 l 204 214 q 234 72 204 115 q 326 28 264 28 l 326 28 q 454 121 413 28 l 454 121 q 468 126 458 129 l 468 126 l 483 121 q 489 104 494 117 l 489 104 q 326 -14 436 -14 l 326 -14 z "},"u":{"ha":783,"x_min":118,"x_max":661,"o":"m 356 -14 q 181 54 244 -14 q 118 240 118 122 l 118 240 l 118 672 q 129 683 118 683 l 129 683 l 149 683 q 160 672 160 683 l 160 672 l 160 260 q 360 28 160 28 l 360 28 q 479 59 419 28 q 579 153 539 90 q 619 308 619 217 l 619 308 l 619 672 q 631 683 619 683 l 631 683 l 650 683 q 661 672 661 683 l 661 672 l 661 11 q 650 0 661 0 l 650 0 l 638 0 q 626 11 626 0 l 626 11 l 621 160 q 512 32 588 78 q 356 -14 436 -14 l 356 -14 z "},"v":{"ha":694,"x_min":42,"x_max":657,"o":"m 353 0 l 342 0 q 328 8 331 0 l 328 8 l 43 671 l 42 676 q 51 683 42 683 l 51 683 l 75 683 q 89 675 86 683 l 89 675 l 349 67 l 607 675 q 621 683 610 683 l 621 683 l 643 683 q 651 671 657 683 l 651 671 l 367 8 q 353 0 364 0 l 353 0 z "},"w":{"ha":1069,"x_min":42,"x_max":1029,"o":"m 299 0 l 288 0 q 275 8 278 0 l 275 8 l 43 671 l 42 675 q 53 683 42 683 l 53 683 l 76 683 q 89 675 86 683 l 89 675 l 294 78 l 518 675 q 531 683 521 683 l 531 683 l 542 683 q 554 675 551 683 l 554 675 l 776 79 l 982 675 q 996 683 985 683 l 996 683 l 1018 683 q 1027 681 1025 683 q 1026 671 1029 679 l 1026 671 l 794 8 q 782 0 792 0 l 782 0 l 771 0 q 758 8 761 0 l 758 8 l 535 607 l 311 8 q 299 0 308 0 l 299 0 z "},"x":{"ha":658,"x_min":39,"x_max":617,"o":"m 79 0 l 51 0 q 42 4 44 0 q 44 14 39 8 l 44 14 l 303 358 l 68 669 q 65 676 65 675 l 65 676 q 75 683 65 683 l 75 683 l 103 683 q 117 676 111 683 l 117 676 l 331 390 l 542 676 q 556 683 547 683 l 556 683 l 583 683 q 592 680 590 683 q 590 669 594 676 l 590 669 l 356 357 l 614 14 l 617 7 q 607 0 617 0 l 607 0 l 579 0 q 565 7 569 0 l 565 7 l 326 325 l 93 7 q 79 0 88 0 l 79 0 z "},"y":{"ha":692,"x_min":42,"x_max":651,"o":"m 247 -303 l 226 -303 q 218 -299 221 -303 q 218 -290 215 -296 l 218 -290 l 338 3 l 43 671 l 42 676 q 51 683 42 683 l 51 683 l 75 683 q 89 675 86 683 l 89 675 l 358 57 l 606 675 q 618 683 608 683 l 618 683 l 640 683 q 649 680 646 683 q 649 671 651 676 l 649 671 l 261 -294 q 247 -303 258 -303 l 247 -303 z "},"z":{"ha":683,"x_min":89,"x_max":594,"o":"m 583 0 l 100 0 q 92 3 94 0 q 89 11 89 7 l 89 11 l 89 14 q 93 26 89 21 l 93 26 l 522 643 l 108 643 q 97 654 97 643 l 97 654 l 97 672 q 108 683 97 683 l 108 683 l 576 683 q 588 674 588 683 l 588 674 l 588 669 q 583 657 588 664 l 583 657 l 154 40 l 583 40 q 594 29 594 40 l 594 29 l 594 11 q 583 0 594 0 l 583 0 z "},"ก":{"ha":819,"x_min":131,"x_max":694,"o":"m 142 753 l 438 753 q 628 690 561 753 q 694 508 694 626 l 694 508 l 694 11 q 683 0 694 0 l 683 0 l 663 0 q 651 11 651 0 l 651 11 l 651 508 q 596 658 651 606 q 438 711 540 711 l 438 711 l 174 711 l 174 11 q 163 0 174 0 l 163 0 l 142 0 q 131 11 131 0 l 131 11 l 131 742 q 142 753 131 753 l 142 753 z "},"ถ":{"ha":822,"x_min":125,"x_max":697,"o":"m 136 753 l 440 753 q 631 690 564 753 q 697 508 697 626 l 697 508 l 697 11 q 686 0 697 0 l 686 0 l 665 0 q 654 11 654 0 l 654 11 l 654 508 q 599 658 654 606 q 440 711 543 711 l 440 711 l 168 711 l 168 214 q 204 81 168 128 q 307 33 240 33 l 307 33 q 381 56 353 33 l 381 56 q 396 54 390 64 l 396 54 l 407 38 q 406 22 413 29 l 406 22 q 307 -8 369 -8 l 307 -8 q 172 49 219 -8 q 125 214 125 107 l 125 214 l 125 742 q 136 753 125 753 l 136 753 z "},"ฤ":{"ha":822,"x_min":125,"x_max":697,"o":"m 136 753 l 440 753 q 631 690 564 753 q 697 508 697 626 l 697 508 l 697 -281 q 686 -292 697 -292 l 686 -292 l 665 -292 q 654 -281 654 -292 l 654 -281 l 654 508 q 599 658 654 606 q 440 711 543 711 l 440 711 l 168 711 l 168 214 q 204 81 168 128 q 307 33 240 33 l 307 33 q 381 56 353 33 l 381 56 q 396 54 390 64 l 396 54 l 407 38 q 406 22 413 29 l 406 22 q 307 -8 369 -8 l 307 -8 q 172 49 219 -8 q 125 214 125 107 l 125 214 l 125 742 q 136 753 125 753 l 136 753 z "},"ภ":{"ha":842,"x_min":22,"x_max":717,"o":"m 169 753 l 460 753 q 650 690 583 753 q 717 508 717 626 l 717 508 l 717 11 q 706 0 717 0 l 706 0 l 685 0 q 674 11 674 0 l 674 11 l 674 508 q 618 658 674 606 q 460 711 563 711 l 460 711 l 201 711 l 201 168 q 166 40 201 85 q 65 -6 131 -6 l 65 -6 q 33 -4 43 -6 l 33 -4 q 22 8 22 -1 l 22 8 l 22 28 q 32 38 22 38 l 32 38 l 63 36 q 133 70 108 36 q 158 168 158 104 l 158 168 l 158 742 q 169 753 158 753 l 169 753 z "},"ฦ":{"ha":842,"x_min":22,"x_max":717,"o":"m 169 753 l 460 753 q 650 690 583 753 q 717 508 717 626 l 717 508 l 717 -281 q 706 -292 717 -292 l 706 -292 l 685 -292 q 674 -281 674 -292 l 674 -281 l 674 508 q 618 658 674 606 q 460 711 563 711 l 460 711 l 201 711 l 201 168 q 166 40 201 85 q 65 -6 131 -6 l 65 -6 q 33 -4 43 -6 l 33 -4 q 22 8 22 -1 l 22 8 l 22 28 q 32 38 22 38 l 32 38 l 63 36 q 133 70 108 36 q 158 168 158 104 l 158 168 l 158 742 q 169 753 158 753 l 169 753 z "},"ฎ":{"ha":842,"x_min":22,"x_max":717,"o":"m 169 753 l 460 753 q 650 690 583 753 q 717 508 717 626 l 717 508 l 717 -336 q 706 -347 717 -347 l 706 -347 l 682 -347 q 669 -339 674 -347 l 669 -339 q 574 -240 636 -276 q 438 -203 513 -203 l 438 -203 q 239 -350 289 -203 l 239 -350 q 233 -358 236 -357 q 225 -358 231 -360 l 225 -358 l 206 -351 q 199 -337 194 -347 l 199 -337 q 288 -207 226 -253 q 438 -161 350 -161 l 438 -161 q 574 -194 513 -161 q 674 -285 635 -226 l 674 -285 l 674 508 q 618 658 674 606 q 460 711 563 711 l 460 711 l 201 711 l 201 168 q 166 40 201 85 q 65 -6 131 -6 l 65 -6 q 33 -4 43 -6 l 33 -4 q 22 8 22 -1 l 22 8 l 22 28 q 32 38 22 38 l 32 38 l 63 36 q 133 70 108 36 q 158 168 158 104 l 158 168 l 158 742 q 169 753 158 753 l 169 753 z "},"ฏ":{"ha":842,"x_min":22,"x_max":717,"o":"m 169 753 l 460 753 q 650 690 583 753 q 717 508 717 626 l 717 508 l 717 -192 q 681 -313 717 -268 q 583 -358 644 -358 l 583 -358 q 499 -327 533 -358 q 450 -237 464 -296 l 450 -237 q 401 -327 436 -296 q 318 -358 367 -358 l 318 -358 q 224 -318 261 -358 q 175 -203 188 -278 l 175 -203 l 175 -200 q 185 -189 175 -192 l 185 -189 l 204 -185 l 207 -185 q 217 -194 214 -185 l 217 -194 q 254 -285 226 -253 q 319 -317 282 -317 l 319 -317 q 388 -282 358 -317 q 428 -183 418 -247 l 428 -183 q 440 -172 429 -172 l 440 -172 l 457 -172 q 469 -183 468 -172 l 469 -183 q 510 -281 481 -244 q 582 -317 539 -317 l 582 -317 q 649 -283 625 -317 q 674 -192 674 -249 l 674 -192 l 674 508 q 618 658 674 606 q 460 711 563 711 l 460 711 l 201 711 l 201 168 q 166 40 201 85 q 65 -6 131 -6 l 65 -6 q 33 -4 43 -6 l 33 -4 q 22 8 22 -1 l 22 8 l 22 28 q 32 38 22 38 l 32 38 l 63 36 q 133 70 108 36 q 158 168 158 104 l 158 168 l 158 742 q 169 753 158 753 l 169 753 z "},"ญ":{"ha":1310,"x_min":125,"x_max":1179,"o":"m 1147 753 l 1168 753 q 1179 742 1179 753 l 1179 742 l 1179 -25 q 1106 -230 1179 -154 q 908 -306 1032 -306 l 908 -306 q 749 -261 817 -306 q 651 -135 682 -217 l 651 -135 q 657 -121 647 -125 l 657 -121 l 675 -112 q 689 -118 685 -108 l 689 -118 q 774 -226 717 -187 q 908 -264 831 -264 l 908 -264 q 1074 -199 1011 -264 q 1136 -25 1136 -135 l 1136 -25 l 1136 156 q 1031 32 1103 78 q 874 -14 960 -14 l 874 -14 q 701 58 761 -14 q 640 261 640 129 l 640 261 l 640 508 q 585 658 640 606 q 426 711 529 711 l 426 711 l 168 711 l 168 214 q 204 81 168 128 q 307 33 240 33 l 307 33 q 381 56 353 33 l 381 56 q 396 54 390 64 l 396 54 l 407 38 q 406 22 413 29 l 406 22 q 307 -8 369 -8 l 307 -8 q 172 49 219 -8 q 125 214 125 107 l 125 214 l 125 742 q 136 753 125 753 l 136 753 l 426 753 q 617 690 550 753 q 683 508 683 626 l 683 508 l 683 261 q 734 88 683 149 q 878 28 785 28 l 878 28 q 1010 63 951 28 q 1103 162 1069 97 q 1136 311 1136 226 l 1136 311 l 1136 742 q 1147 753 1136 753 l 1147 753 z "},"ฌ":{"ha":1304,"x_min":125,"x_max":1179,"o":"m 1147 753 l 1168 753 q 1179 742 1179 753 l 1179 742 l 1179 267 q 1119 59 1179 132 q 946 -14 1058 -14 l 946 -14 q 788 32 858 -14 q 683 156 717 78 l 683 156 l 678 11 q 667 0 678 0 l 667 0 l 651 0 q 640 11 640 0 l 640 11 l 640 508 q 585 658 640 606 q 426 711 529 711 l 426 711 l 168 711 l 168 214 q 204 81 168 128 q 307 33 240 33 l 307 33 q 381 56 353 33 l 381 56 q 396 54 390 64 l 396 54 l 407 38 q 406 22 413 29 l 406 22 q 307 -8 369 -8 l 307 -8 q 172 49 219 -8 q 125 214 125 107 l 125 214 l 125 742 q 136 753 125 753 l 136 753 l 426 753 q 617 690 550 753 q 683 508 683 626 l 683 508 l 683 311 q 716 163 683 228 q 808 63 749 99 q 942 28 867 28 l 942 28 q 1085 90 1035 28 q 1136 267 1136 151 l 1136 267 l 1136 742 q 1147 753 1136 753 l 1147 753 z "},"ณ":{"ha":1310,"x_min":125,"x_max":1179,"o":"m 1147 753 l 1168 753 q 1179 742 1179 753 l 1179 742 l 1179 11 q 1168 0 1179 0 l 1168 0 l 1153 0 q 1142 11 1142 0 l 1142 11 l 1136 156 q 1032 32 1103 78 q 874 -14 961 -14 l 874 -14 q 701 58 761 -14 q 640 261 640 129 l 640 261 l 640 508 q 585 658 640 606 q 426 711 529 711 l 426 711 l 168 711 l 168 214 q 204 81 168 128 q 307 33 240 33 l 307 33 q 381 56 353 33 l 381 56 q 396 54 390 64 l 396 54 l 407 38 q 406 22 413 29 l 406 22 q 307 -8 369 -8 l 307 -8 q 172 49 219 -8 q 125 214 125 107 l 125 214 l 125 742 q 136 753 125 753 l 136 753 l 426 753 q 617 690 550 753 q 683 508 683 626 l 683 508 l 683 261 q 734 88 683 149 q 878 28 785 28 l 878 28 q 1012 63 953 28 q 1103 163 1071 99 q 1136 311 1136 228 l 1136 311 l 1136 742 q 1147 753 1136 753 l 1147 753 z "},"ข":{"ha":744,"x_min":86,"x_max":619,"o":"m 588 753 l 608 753 q 619 742 619 753 l 619 742 l 619 267 q 554 59 619 132 q 368 -14 489 -14 l 368 -14 q 182 59 247 -14 q 117 267 117 132 l 117 267 l 117 346 q 141 456 117 408 q 210 558 165 503 l 210 558 q 258 626 242 599 q 274 683 274 654 l 274 683 l 274 711 l 97 711 q 86 722 86 711 l 86 722 l 86 742 q 97 753 86 753 l 97 753 l 304 753 q 315 742 315 753 l 315 742 l 315 683 q 297 612 315 644 q 243 533 279 579 l 243 533 q 181 440 203 482 q 160 346 160 399 l 160 346 l 160 267 q 214 90 160 151 q 368 28 268 28 l 368 28 q 522 90 468 28 q 576 267 576 151 l 576 267 l 576 742 q 588 753 576 753 l 588 753 z "},"ช":{"ha":756,"x_min":86,"x_max":663,"o":"m 626 767 l 651 767 q 660 763 658 767 q 658 753 663 758 l 658 753 l 504 558 q 598 512 565 553 q 631 397 631 471 l 631 397 l 631 267 q 564 59 631 132 q 374 -14 497 -14 l 374 -14 q 183 59 250 -14 q 117 267 117 132 l 117 267 l 117 346 q 141 456 117 408 q 210 558 165 503 l 210 558 q 258 626 242 599 q 274 683 274 654 l 274 683 l 274 711 l 97 711 q 86 722 86 711 l 86 722 l 86 742 q 97 753 86 753 l 97 753 l 304 753 q 315 742 315 753 l 315 742 l 315 683 q 297 612 315 644 q 243 533 279 579 l 243 533 q 181 440 203 483 q 160 346 160 397 l 160 346 l 160 267 q 215 90 160 151 q 374 28 271 28 l 374 28 q 532 90 476 28 q 588 267 588 151 l 588 267 l 588 397 q 563 485 588 454 q 490 517 538 517 l 490 517 l 388 517 q 376 528 376 517 l 376 528 l 376 547 q 388 558 376 558 l 388 558 l 454 558 l 611 760 q 626 767 615 767 l 626 767 z "},"ฃ":{"ha":750,"x_min":42,"x_max":625,"o":"m 593 753 l 614 753 q 625 742 625 753 l 625 742 l 625 267 q 559 59 625 132 q 371 -14 493 -14 l 371 -14 q 183 59 249 -14 q 117 267 117 132 l 117 267 l 117 324 q 144 435 117 388 q 219 539 171 482 l 219 539 q 271 606 254 579 q 288 661 288 632 l 288 661 l 288 713 l 232 713 l 151 619 q 138 614 146 614 l 138 614 l 125 614 q 113 621 117 614 l 113 621 l 43 739 l 42 744 q 50 753 42 753 l 50 753 l 74 753 q 86 746 82 753 l 86 746 l 135 663 l 208 747 q 222 753 213 753 l 222 753 l 318 753 q 329 742 329 753 l 329 742 l 329 661 q 310 590 329 622 q 251 511 290 557 l 251 511 q 183 417 207 458 q 160 324 160 375 l 160 324 l 160 267 q 215 90 160 153 q 371 28 269 28 l 371 28 q 527 90 472 28 q 582 267 582 153 l 582 267 l 582 742 q 593 753 582 753 l 593 753 z "},"ซ":{"ha":761,"x_min":42,"x_max":668,"o":"m 632 767 l 657 767 q 666 763 664 767 q 664 753 668 758 l 664 753 l 510 558 q 603 512 571 553 q 636 397 636 471 l 636 397 l 636 267 q 569 59 636 132 q 376 -14 501 -14 l 376 -14 q 184 59 251 -14 q 117 267 117 132 l 117 267 l 117 324 q 144 435 117 388 q 219 539 171 482 l 219 539 q 271 606 254 579 q 288 661 288 632 l 288 661 l 288 713 l 232 713 l 151 619 q 138 614 146 614 l 138 614 l 125 614 q 113 621 117 614 l 113 621 l 43 739 l 42 744 q 50 753 42 753 l 50 753 l 74 753 q 86 746 82 753 l 86 746 l 135 663 l 208 747 q 222 753 213 753 l 222 753 l 318 753 q 329 742 329 753 l 329 742 l 329 661 q 310 591 329 624 q 251 511 290 558 l 251 511 q 183 417 207 458 q 160 324 160 375 l 160 324 l 160 267 q 216 90 160 151 q 376 28 272 28 l 376 28 q 537 90 481 28 q 593 267 593 151 l 593 267 l 593 397 q 568 485 593 454 q 496 517 543 517 l 496 517 l 393 517 q 382 528 382 517 l 382 528 l 382 547 q 393 558 382 558 l 393 558 l 460 558 l 617 760 q 632 767 621 767 l 632 767 z "},"ค":{"ha":833,"x_min":125,"x_max":708,"o":"m 157 0 l 136 0 q 125 11 125 0 l 125 11 l 125 461 q 203 684 125 601 q 415 767 282 767 l 415 767 q 629 684 550 767 q 708 461 708 601 l 708 461 l 708 11 q 697 0 708 0 l 697 0 l 676 0 q 665 11 665 0 l 665 11 l 665 457 q 598 652 665 579 q 415 725 531 725 l 415 725 q 235 653 301 725 q 168 457 168 581 l 168 457 l 168 375 l 449 375 q 460 364 460 375 l 460 364 l 460 344 q 449 333 460 333 l 449 333 l 168 333 l 168 11 q 157 0 168 0 l 157 0 z "},"ศ":{"ha":842,"x_min":125,"x_max":797,"o":"m 419 758 l 786 758 q 797 747 797 758 l 797 747 l 797 729 q 786 718 797 718 l 786 718 l 556 718 q 668 622 628 690 q 708 457 708 553 l 708 457 l 708 11 q 697 0 708 0 l 697 0 l 676 0 q 665 11 665 0 l 665 11 l 665 457 q 597 647 665 576 q 415 717 529 717 l 415 717 q 235 647 301 717 q 168 457 168 576 l 168 457 l 168 375 l 449 375 q 460 364 460 375 l 460 364 l 460 344 q 449 333 460 333 l 449 333 l 168 333 l 168 11 q 157 0 168 0 l 157 0 l 136 0 q 125 11 125 0 l 125 11 l 125 461 q 204 678 125 599 q 419 758 283 758 l 419 758 z "},"ฅ":{"ha":853,"x_min":128,"x_max":725,"o":"m 160 0 l 139 0 q 128 11 128 0 l 128 11 l 128 522 q 174 678 128 615 q 306 764 219 740 l 306 764 l 426 694 l 547 764 q 679 678 633 740 q 725 522 725 615 l 725 522 l 725 11 q 714 0 725 0 l 714 0 l 693 0 q 682 11 682 0 l 682 11 l 682 522 q 647 648 682 597 q 549 718 613 699 l 549 718 l 431 650 l 422 650 l 304 718 q 206 648 240 699 q 171 522 171 597 l 171 522 l 171 375 l 460 375 q 471 364 471 375 l 471 364 l 471 344 q 460 333 471 333 l 460 333 l 171 333 l 171 11 q 160 0 171 0 l 160 0 z "},"ด":{"ha":833,"x_min":111,"x_max":708,"o":"m 335 -11 q 169 58 228 -11 q 111 258 111 128 l 111 258 l 111 461 q 192 683 111 600 q 408 767 274 767 l 408 767 q 567 729 499 767 q 672 622 635 692 q 708 461 708 553 l 708 461 l 708 11 q 697 0 708 0 l 697 0 l 676 0 q 665 11 665 0 l 665 11 l 665 457 q 595 651 665 578 q 408 725 525 725 l 408 725 q 224 651 294 725 q 154 457 154 578 l 154 457 l 154 258 q 201 90 154 149 q 335 31 247 31 l 335 31 q 391 37 367 31 q 440 57 415 43 l 440 57 q 449 60 446 61 q 456 56 453 60 l 456 56 l 465 39 q 464 24 471 29 l 464 24 q 335 -11 415 -11 l 335 -11 z "},"ต":{"ha":850,"x_min":111,"x_max":722,"o":"m 342 -11 q 172 59 233 -11 q 111 258 111 129 l 111 258 l 111 457 q 160 660 111 581 q 303 764 210 739 l 303 764 l 424 694 l 544 764 q 676 678 631 740 q 722 522 722 615 l 722 522 l 722 11 q 711 0 722 0 l 711 0 l 690 0 q 679 11 679 0 l 679 11 l 679 522 q 644 648 679 597 q 546 718 610 699 l 546 718 l 428 650 l 419 650 l 301 718 q 192 628 231 696 q 154 457 154 561 l 154 457 l 154 258 q 204 90 154 150 q 342 31 254 31 l 342 31 q 398 37 374 31 q 447 57 422 43 l 447 57 q 456 61 453 61 q 463 56 460 61 l 463 56 l 472 39 q 471 24 478 29 l 471 24 q 342 -11 421 -11 l 342 -11 z "},"ฒ":{"ha":1332,"x_min":111,"x_max":1207,"o":"m 342 -11 q 172 59 233 -11 q 111 258 111 129 l 111 258 l 111 457 q 160 660 111 581 q 300 764 208 739 l 300 764 l 418 694 l 536 764 q 666 678 621 740 q 711 522 711 615 l 711 522 l 711 311 q 744 162 711 226 q 837 63 778 97 q 969 28 896 28 l 969 28 q 1113 90 1063 28 q 1164 267 1164 151 l 1164 267 l 1164 742 q 1175 753 1164 753 l 1175 753 l 1196 753 q 1207 742 1207 753 l 1207 742 l 1207 267 q 1147 59 1207 132 q 974 -14 1086 -14 l 974 -14 q 816 32 888 -14 q 711 156 744 78 l 711 156 l 706 11 q 694 0 706 0 l 694 0 l 679 0 q 668 11 668 0 l 668 11 l 668 522 q 635 648 668 597 q 538 718 601 699 l 538 718 l 422 650 l 414 650 l 299 718 q 192 628 229 696 q 154 457 154 561 l 154 457 l 154 258 q 204 90 154 150 q 342 31 254 31 l 342 31 q 398 37 374 31 q 447 57 422 43 l 447 57 q 456 61 453 61 q 463 56 460 61 l 463 56 l 472 39 q 471 24 478 29 l 471 24 q 342 -11 421 -11 l 342 -11 z "},"ท":{"ha":828,"x_min":131,"x_max":703,"o":"m 163 0 l 142 0 q 131 11 131 0 l 131 11 l 131 742 q 142 753 131 753 l 142 753 l 157 753 q 168 742 168 753 l 168 742 l 174 589 q 283 719 208 671 q 454 767 358 767 l 454 767 q 638 692 572 767 q 703 482 703 618 l 703 482 l 703 11 q 692 0 703 0 l 692 0 l 671 0 q 660 11 660 0 l 660 11 l 660 482 q 606 662 660 599 q 450 725 551 725 l 450 725 q 309 689 372 725 q 210 586 246 653 q 174 431 174 519 l 174 431 l 174 11 q 163 0 174 0 l 163 0 z "},"ฑ":{"ha":826,"x_min":61,"x_max":694,"o":"m 540 764 q 655 719 615 764 q 694 592 694 675 l 694 592 l 694 11 q 683 0 694 0 l 683 0 l 663 0 q 651 11 651 0 l 651 11 l 651 592 q 623 689 651 656 q 540 722 594 722 l 540 722 q 470 703 506 722 q 388 635 435 683 q 265 494 340 586 l 265 494 q 185 374 206 421 q 165 249 165 326 l 165 249 l 165 11 q 154 0 165 0 l 154 0 l 133 0 q 122 11 122 0 l 122 11 l 122 249 q 146 389 122 332 q 231 518 169 446 l 231 518 q 275 572 264 557 q 290 601 286 588 q 293 642 293 615 l 293 642 l 293 713 l 251 713 l 171 619 q 157 614 165 614 l 157 614 l 144 614 q 132 621 136 614 l 132 621 l 63 739 l 61 744 q 69 753 61 753 l 69 753 l 93 753 q 106 746 101 753 l 106 746 l 154 663 l 228 747 q 242 753 232 753 l 242 753 l 324 753 q 335 742 335 753 l 335 742 l 335 635 q 439 735 393 706 q 540 764 485 764 l 540 764 z "},"น":{"ha":822,"x_min":125,"x_max":692,"o":"m 371 -14 q 189 60 253 -14 q 125 271 125 133 l 125 271 l 125 742 q 136 753 125 753 l 136 753 l 157 753 q 168 742 168 753 l 168 742 l 168 271 q 222 91 168 154 q 375 28 275 28 l 375 28 q 515 64 453 28 q 613 167 578 100 q 649 322 649 233 l 649 322 l 649 742 q 660 753 649 753 l 660 753 l 681 753 q 692 742 692 753 l 692 742 l 692 11 q 681 0 692 0 l 681 0 l 665 0 q 654 11 654 0 l 654 11 l 649 164 q 540 34 614 82 q 371 -14 465 -14 l 371 -14 z "},"ม":{"ha":822,"x_min":131,"x_max":697,"o":"m 451 -14 q 283 34 357 -14 q 174 164 208 82 l 174 164 l 168 11 q 157 0 168 0 l 157 0 l 142 0 q 131 11 131 0 l 131 11 l 131 742 q 142 753 131 753 l 142 753 l 163 753 q 174 742 174 753 l 174 742 l 174 322 q 209 167 174 233 q 307 64 244 100 q 447 28 369 28 l 447 28 q 601 94 547 28 q 654 282 654 160 l 654 282 l 654 742 q 665 753 654 753 l 665 753 l 686 753 q 697 742 697 753 l 697 742 l 697 282 q 633 64 697 142 q 451 -14 568 -14 l 451 -14 z "},"ฆ":{"ha":819,"x_min":47,"x_max":694,"o":"m 663 753 l 683 753 q 694 742 694 753 l 694 742 l 694 282 q 629 64 694 142 q 446 -14 564 -14 l 446 -14 q 273 31 346 -14 q 165 156 200 75 l 165 156 l 160 11 q 149 0 160 0 l 149 0 l 133 0 q 122 11 122 0 l 122 11 l 122 332 q 149 439 122 393 q 224 539 175 485 l 224 539 q 276 605 258 578 q 293 661 293 632 l 293 661 l 293 713 l 238 713 l 157 619 q 143 614 151 614 l 143 614 l 131 614 q 118 621 122 614 l 118 621 l 49 739 l 47 744 q 56 753 47 753 l 56 753 l 79 753 q 92 746 88 753 l 92 746 l 140 663 l 214 747 q 228 753 218 753 l 228 753 l 324 753 q 335 742 335 753 l 335 742 l 335 661 q 315 590 335 624 q 256 513 294 557 l 256 513 q 188 422 211 461 q 165 332 165 382 l 165 332 l 165 294 q 201 158 165 218 q 299 63 236 97 q 442 28 363 28 l 442 28 q 597 94 543 28 q 651 282 651 160 l 651 282 l 651 742 q 663 753 651 753 l 663 753 z "},"ธ":{"ha":714,"x_min":97,"x_max":631,"o":"m 140 503 l 411 444 q 631 217 631 396 l 631 217 q 564 58 631 115 q 381 0 497 0 l 381 0 l 131 0 q 119 11 119 0 l 119 11 l 119 363 q 131 374 119 374 l 131 374 l 151 374 q 163 363 163 374 l 163 363 l 163 42 l 381 42 q 533 88 478 42 q 588 217 588 135 l 588 217 q 403 404 588 364 l 403 404 l 107 468 q 97 481 97 471 l 97 481 l 97 526 q 166 702 97 638 q 353 767 235 767 l 353 767 q 522 721 450 767 q 624 593 594 675 l 624 593 q 625 588 625 592 l 625 588 q 615 578 625 582 l 615 578 l 597 572 q 593 571 596 571 l 593 571 q 583 579 586 571 l 583 579 q 496 687 557 649 q 353 725 435 725 l 353 725 q 198 671 256 725 q 140 526 140 617 l 140 526 l 140 503 z "},"ร":{"ha":660,"x_min":64,"x_max":576,"o":"m 338 -14 q 167 35 238 -14 q 65 182 97 83 l 65 182 l 64 188 q 72 197 64 196 l 72 197 l 92 204 l 97 206 q 106 196 104 206 l 106 196 q 338 28 165 28 l 338 28 q 481 72 428 28 q 533 189 533 115 l 533 189 q 357 363 533 315 l 357 363 l 306 376 q 99 582 99 432 l 99 582 q 158 717 99 667 q 317 767 218 767 l 317 767 q 471 723 406 767 q 567 592 536 679 l 567 592 q 568 586 568 590 l 568 586 q 558 576 568 581 l 558 576 l 540 571 q 536 569 539 569 l 536 569 q 526 578 529 569 l 526 578 q 445 688 499 651 q 317 725 392 725 l 317 725 q 189 686 236 725 q 142 582 142 647 l 142 582 q 188 483 142 524 q 328 415 233 442 l 328 415 l 374 403 q 576 189 576 347 l 576 189 q 512 41 576 96 q 338 -14 447 -14 l 338 -14 z "},"จ":{"ha":706,"x_min":39,"x_max":636,"o":"m 340 767 q 556 677 476 767 q 636 436 636 588 l 636 436 q 569 192 636 299 q 374 4 503 86 l 374 4 q 360 0 365 0 l 360 0 l 325 0 q 311 8 314 0 l 311 8 l 193 372 l 83 372 q 72 383 72 372 l 72 383 l 72 403 q 83 414 72 414 l 83 414 l 214 414 q 228 406 225 414 l 228 406 l 347 35 q 531 213 468 114 q 593 436 593 311 l 593 436 q 524 647 593 569 q 340 725 456 725 l 340 725 q 183 682 253 725 q 83 565 114 639 l 83 565 q 78 558 81 560 q 68 558 75 557 l 68 558 l 50 564 q 43 579 39 568 l 43 579 q 156 716 75 665 q 340 767 238 767 l 340 767 z "},"ฐ":{"ha":714,"x_min":39,"x_max":693,"o":"m 346 758 l 682 758 q 693 747 693 758 l 693 747 l 693 729 q 682 718 693 718 l 682 718 l 478 718 q 593 613 550 689 q 636 436 636 536 l 636 436 q 569 192 636 299 q 374 4 503 86 l 374 4 q 360 0 365 0 l 360 0 l 325 0 q 311 8 314 0 l 311 8 l 193 372 l 83 372 q 72 383 72 372 l 72 383 l 72 403 q 83 414 72 414 l 83 414 l 214 414 q 228 406 225 414 l 228 406 l 347 35 q 531 213 468 114 q 593 436 593 311 l 593 436 q 525 641 593 565 q 342 717 457 717 l 342 717 q 184 673 254 717 q 83 557 114 629 l 83 557 q 78 550 81 551 q 68 550 75 549 l 68 550 l 50 556 q 43 571 39 560 l 43 571 q 158 708 75 657 q 346 758 240 758 l 346 758 z m 590 -97 l 611 -97 q 622 -108 622 -97 l 622 -108 l 622 -139 q 585 -260 622 -215 q 486 -306 547 -306 l 486 -306 q 399 -274 435 -306 q 350 -183 364 -242 l 350 -183 q 301 -274 336 -242 q 215 -306 265 -306 l 215 -306 q 120 -265 158 -306 q 69 -150 82 -225 l 69 -150 l 69 -147 q 79 -136 69 -139 l 79 -136 l 99 -132 l 101 -132 q 111 -142 108 -132 l 111 -142 q 150 -232 121 -200 q 218 -264 179 -264 l 218 -264 q 288 -228 257 -264 q 328 -131 318 -193 l 328 -131 q 340 -119 329 -119 l 340 -119 l 357 -119 q 369 -131 368 -119 l 369 -131 q 411 -228 381 -192 q 485 -264 442 -264 l 485 -264 q 553 -230 528 -264 q 579 -139 579 -196 l 579 -139 l 579 -108 q 590 -97 579 -97 l 590 -97 z "},"ว":{"ha":696,"x_min":53,"x_max":626,"o":"m 328 -14 q 165 36 233 -14 q 63 174 96 86 l 63 174 l 61 179 q 69 189 61 188 l 69 189 l 88 194 q 94 196 90 196 l 94 196 q 103 188 101 196 l 103 188 q 191 69 133 111 q 328 28 249 28 l 328 28 q 515 124 446 28 q 583 381 583 219 l 583 381 q 513 632 583 539 q 322 725 442 725 l 322 725 q 185 683 243 725 q 97 565 128 642 l 97 565 q 92 558 94 560 q 82 558 89 557 l 82 558 l 64 564 q 57 579 53 568 l 57 579 q 159 717 90 667 q 322 767 228 767 l 322 767 q 483 719 414 767 q 589 585 551 672 q 626 381 626 497 l 626 381 q 590 172 626 261 q 485 34 553 82 q 328 -14 418 -14 l 328 -14 z "},"ง":{"ha":711,"x_min":35,"x_max":642,"o":"m 376 764 q 569 678 497 764 q 642 446 642 592 l 642 446 q 557 178 642 293 q 313 3 472 63 l 313 3 q 299 0 307 0 l 299 0 l 281 0 q 268 10 271 0 l 268 10 l 36 740 l 35 744 q 38 750 35 747 q 46 753 42 753 l 46 753 l 67 753 q 79 743 76 753 l 79 743 l 301 42 l 306 42 q 523 203 447 99 q 599 446 599 307 l 599 446 q 539 647 599 572 q 376 722 479 722 l 376 722 q 281 697 321 722 l 281 697 q 265 701 271 693 l 265 701 l 256 715 q 258 732 250 725 l 258 732 q 376 764 306 764 l 376 764 z "},"ฉ":{"ha":778,"x_min":106,"x_max":653,"o":"m 347 -14 q 174 58 235 -14 q 114 261 114 129 l 114 261 l 114 403 q 125 414 114 414 l 125 414 l 146 414 q 157 403 157 414 l 157 403 l 157 261 q 208 88 157 149 q 351 28 258 28 l 351 28 q 484 63 425 28 q 576 162 543 97 q 610 311 610 226 l 610 311 l 610 506 q 549 666 610 607 q 383 725 488 725 l 383 725 q 241 688 300 725 q 150 585 182 650 l 150 585 q 144 578 147 579 q 135 578 142 576 l 135 578 l 117 583 q 110 599 106 588 l 110 599 q 214 722 143 676 q 383 767 285 767 l 383 767 q 580 696 507 767 q 653 506 653 625 l 653 506 l 653 11 q 642 0 653 0 l 642 0 l 626 0 q 615 11 615 0 l 615 11 l 610 156 q 505 32 576 78 q 347 -14 433 -14 l 347 -14 z "},"ล":{"ha":772,"x_min":89,"x_max":647,"o":"m 376 767 q 574 696 500 767 q 647 506 647 625 l 647 506 l 647 11 q 636 0 647 0 l 636 0 l 615 0 q 604 11 604 0 l 604 11 l 604 392 l 457 392 q 216 340 300 392 q 132 189 132 289 l 132 189 q 178 73 132 115 q 308 31 225 31 l 308 31 q 414 57 374 31 l 414 57 q 423 61 419 61 q 429 56 426 61 l 429 56 l 439 39 q 438 24 444 29 l 438 24 q 308 -11 390 -11 l 308 -11 q 147 42 204 -11 q 89 189 89 94 l 89 189 q 184 371 89 308 q 457 433 279 433 l 457 433 l 604 433 l 604 506 q 542 666 604 607 q 376 725 481 725 l 376 725 q 234 688 293 725 q 143 585 175 650 l 143 585 q 138 578 140 579 q 128 578 135 576 l 128 578 l 110 583 q 103 599 99 588 l 103 599 q 207 722 136 676 q 376 767 278 767 l 376 767 z "},"ส":{"ha":781,"x_min":89,"x_max":736,"o":"m 382 758 l 725 758 q 736 747 736 758 l 736 747 l 736 729 q 725 718 736 718 l 725 718 l 515 718 q 613 636 578 693 q 647 503 647 579 l 647 503 l 647 11 q 636 0 647 0 l 636 0 l 615 0 q 604 11 604 0 l 604 11 l 604 392 l 457 392 q 216 340 300 392 q 132 189 132 289 l 132 189 q 178 73 132 115 q 308 31 225 31 l 308 31 q 414 57 374 31 l 414 57 q 423 61 419 61 q 429 56 426 61 l 429 56 l 439 39 q 438 24 444 29 l 438 24 q 308 -11 390 -11 l 308 -11 q 147 42 204 -11 q 89 189 89 94 l 89 189 q 184 371 89 308 q 457 433 279 433 l 457 433 l 604 433 l 604 503 q 543 659 604 601 q 378 717 482 717 l 378 717 q 235 679 294 717 q 143 576 175 642 l 143 576 q 138 569 140 571 q 128 569 135 568 l 128 569 l 110 575 q 103 590 99 579 l 103 590 q 208 713 136 668 q 382 758 281 758 l 382 758 z "},"บ":{"ha":822,"x_min":125,"x_max":697,"o":"m 411 -14 q 199 71 274 -14 q 125 314 125 156 l 125 314 l 125 742 q 136 753 125 753 l 136 753 l 157 753 q 168 742 168 753 l 168 742 l 168 314 q 231 102 168 176 q 411 28 294 28 l 411 28 q 591 103 528 28 q 654 314 654 178 l 654 314 l 654 742 q 665 753 654 753 l 665 753 l 686 753 q 697 742 697 753 l 697 742 l 697 314 q 623 71 697 156 q 411 -14 549 -14 l 411 -14 z "},"ป":{"ha":822,"x_min":125,"x_max":697,"o":"m 411 -14 q 199 71 274 -14 q 125 314 125 156 l 125 314 l 125 742 q 136 753 125 753 l 136 753 l 157 753 q 168 742 168 753 l 168 742 l 168 314 q 231 102 168 176 q 411 28 294 28 l 411 28 q 591 103 528 28 q 654 314 654 178 l 654 314 l 654 1064 q 665 1075 654 1075 l 665 1075 l 686 1075 q 697 1064 697 1075 l 697 1064 l 697 314 q 623 71 697 156 q 411 -14 549 -14 l 411 -14 z "},"ษ":{"ha":864,"x_min":125,"x_max":819,"o":"m 711 450 l 808 450 q 819 439 819 450 l 819 439 l 819 419 q 808 408 819 408 l 808 408 l 711 408 l 711 314 q 632 75 711 164 q 418 -14 553 -14 l 418 -14 q 204 75 283 -14 q 125 314 125 164 l 125 314 l 125 742 q 136 753 125 753 l 136 753 l 157 753 q 168 742 168 753 l 168 742 l 168 314 q 235 106 168 183 q 418 28 303 28 l 418 28 q 601 106 533 28 q 668 314 668 183 l 668 314 l 668 408 l 415 408 q 404 419 404 408 l 404 419 l 404 439 q 415 450 404 450 l 415 450 l 668 450 l 668 742 q 679 753 668 753 l 679 753 l 700 753 q 711 742 711 753 l 711 742 l 711 450 z "},"ย":{"ha":778,"x_min":92,"x_max":647,"o":"m 636 0 l 347 0 q 163 60 231 0 q 94 222 94 121 l 94 222 q 133 338 94 290 q 238 407 171 386 l 238 407 q 129 471 167 425 q 92 583 92 517 l 92 583 q 144 715 92 665 q 286 764 197 764 l 286 764 q 429 722 372 764 l 429 722 q 431 707 436 717 l 431 707 l 419 689 q 413 685 417 685 q 404 688 410 685 l 404 688 q 286 722 353 722 l 286 722 q 176 685 217 722 q 135 583 135 647 l 135 583 q 187 469 135 511 q 333 428 239 428 l 333 428 l 446 428 q 457 417 457 428 l 457 417 l 457 397 q 446 386 457 386 l 446 386 l 333 386 q 190 342 243 386 q 138 222 138 299 l 138 222 q 194 90 138 138 q 351 42 251 42 l 351 42 l 593 42 q 604 53 604 42 l 604 53 l 604 742 q 615 753 604 753 l 615 753 l 636 753 q 647 742 647 753 l 647 742 l 647 11 q 636 0 647 0 l 636 0 z "},"ผ":{"ha":858,"x_min":128,"x_max":728,"o":"m 168 0 l 139 0 q 128 11 128 0 l 128 11 l 128 539 q 175 703 128 646 q 310 761 222 761 l 310 761 q 408 731 372 761 l 408 731 q 410 715 415 724 l 410 715 l 399 699 q 383 697 393 689 l 383 697 q 310 719 356 719 l 310 719 q 207 672 243 719 q 171 539 171 625 l 171 539 l 171 60 l 408 363 q 422 369 413 369 l 422 369 l 433 369 q 447 363 443 369 l 447 363 l 685 60 l 685 742 q 696 753 685 753 l 696 753 l 717 753 q 728 742 728 753 l 728 742 l 728 11 q 717 0 728 0 l 717 0 l 688 0 q 674 7 678 0 l 674 7 l 428 321 l 182 7 q 168 0 178 0 l 168 0 z "},"ฝ":{"ha":858,"x_min":128,"x_max":728,"o":"m 168 0 l 139 0 q 128 11 128 0 l 128 11 l 128 539 q 175 703 128 646 q 310 761 222 761 l 310 761 q 408 731 372 761 l 408 731 q 410 715 415 724 l 410 715 l 399 699 q 383 697 393 689 l 383 697 q 310 719 356 719 l 310 719 q 207 672 243 719 q 171 539 171 625 l 171 539 l 171 60 l 408 363 q 422 369 413 369 l 422 369 l 433 369 q 447 363 443 369 l 447 363 l 685 60 l 685 1064 q 696 1075 685 1075 l 696 1075 l 717 1075 q 728 1064 728 1075 l 728 1064 l 728 11 q 717 0 728 0 l 717 0 l 688 0 q 674 7 678 0 l 674 7 l 428 321 l 182 7 q 168 0 178 0 l 168 0 z "},"ฟ":{"ha":861,"x_min":42,"x_max":872,"o":"m 838 1075 l 860 1075 q 869 1063 872 1075 l 869 1063 l 661 10 q 650 0 658 0 l 650 0 l 629 0 q 617 10 619 0 l 617 10 l 426 660 l 249 10 q 236 0 246 0 l 236 0 l 215 0 q 203 10 206 0 l 203 10 l 42 740 l 42 743 q 51 753 42 753 l 51 753 l 72 753 q 85 743 82 753 l 85 743 l 228 90 l 406 743 q 418 753 408 753 l 418 753 l 433 753 q 446 743 443 753 l 446 743 l 635 96 l 826 1065 q 838 1075 829 1075 l 838 1075 z "},"พ":{"ha":865,"x_min":42,"x_max":825,"o":"m 793 753 l 814 753 q 822 749 819 753 q 824 740 825 746 l 824 740 l 663 10 q 650 0 660 0 l 650 0 l 629 0 q 617 10 619 0 l 617 10 l 433 660 l 249 10 q 236 0 246 0 l 236 0 l 215 0 q 203 10 206 0 l 203 10 l 42 740 l 42 743 q 51 753 42 753 l 51 753 l 72 753 q 85 743 82 753 l 85 743 l 228 89 l 413 743 q 425 753 415 753 l 425 753 l 440 753 q 453 743 450 753 l 453 743 l 638 89 l 781 743 q 793 753 783 753 l 793 753 z "},"ห":{"ha":778,"x_min":131,"x_max":700,"o":"m 504 428 l 699 13 q 700 7 700 11 l 700 7 q 690 0 700 0 l 690 0 l 668 0 q 654 8 658 0 l 654 8 l 458 428 l 174 428 l 174 11 q 163 0 174 0 l 163 0 l 142 0 q 131 11 131 0 l 131 11 l 131 742 q 142 753 131 753 l 142 753 l 163 753 q 174 742 174 753 l 174 742 l 174 469 l 485 469 q 604 511 563 469 q 646 631 646 553 l 646 631 l 646 742 q 657 753 646 753 l 657 753 l 678 753 q 689 742 689 753 l 689 742 l 689 631 q 641 485 689 538 q 504 428 593 433 l 504 428 z "},"ฬ":{"ha":864,"x_min":42,"x_max":863,"o":"m 824 992 l 851 992 q 860 988 858 992 q 858 978 863 983 l 858 978 l 676 753 l 714 753 q 776 735 754 753 q 797 683 797 717 l 797 683 q 794 657 797 676 l 794 657 l 661 10 q 650 0 658 0 l 650 0 l 629 0 q 615 8 618 0 l 615 8 l 426 469 l 249 8 q 236 0 246 0 l 236 0 l 215 0 q 203 10 206 0 l 203 10 l 42 740 l 42 743 q 51 753 42 753 l 51 753 l 72 753 q 85 743 82 753 l 85 743 l 231 76 l 406 532 q 418 540 408 540 l 418 540 l 432 540 q 446 532 443 540 l 446 532 l 632 75 l 753 663 q 754 675 754 667 l 754 675 q 744 701 754 692 q 714 711 733 711 l 714 711 l 392 711 q 381 722 381 711 l 381 722 l 381 742 q 392 753 381 753 l 392 753 l 624 753 l 810 985 q 824 992 814 992 l 824 992 z "},"อ":{"ha":761,"x_min":61,"x_max":692,"o":"m 360 767 q 535 719 460 767 q 651 585 610 672 q 692 381 692 497 l 692 381 q 652 172 692 261 q 538 34 613 82 q 365 -14 464 -14 l 365 -14 q 145 77 226 -14 q 64 324 64 168 l 64 324 l 64 389 q 75 400 64 400 l 75 400 l 390 400 q 401 389 401 400 l 401 389 l 401 369 q 390 358 401 358 l 390 358 l 107 358 l 107 324 q 177 108 107 188 q 365 28 247 28 l 365 28 q 515 71 451 28 q 614 194 579 114 q 649 381 649 274 l 649 381 q 613 563 649 485 q 513 683 578 640 q 360 725 447 725 l 360 725 q 206 681 275 725 q 106 565 136 638 l 106 565 q 100 558 103 560 q 90 558 97 557 l 90 558 l 72 564 q 65 579 61 568 l 65 579 q 178 716 97 665 q 360 767 260 767 l 360 767 z "},"ฮ":{"ha":769,"x_min":61,"x_max":736,"o":"m 360 758 l 725 758 q 736 747 736 758 l 736 747 l 736 729 q 725 718 736 718 l 725 718 l 506 718 q 641 595 590 683 q 692 381 692 507 l 692 381 q 652 172 692 261 q 538 34 613 82 q 365 -14 464 -14 l 365 -14 q 145 77 226 -14 q 64 324 64 168 l 64 324 l 64 389 q 75 400 64 400 l 75 400 l 390 400 q 401 389 401 400 l 401 389 l 401 369 q 390 358 401 358 l 390 358 l 107 358 l 107 324 q 177 108 107 188 q 365 28 247 28 l 365 28 q 515 71 451 28 q 614 194 579 114 q 649 381 649 274 l 649 381 q 570 626 649 535 q 360 717 492 717 l 360 717 q 206 673 275 717 q 106 557 136 629 l 106 557 q 100 550 103 551 q 90 550 97 549 l 90 550 l 72 556 q 65 571 61 560 l 65 571 q 178 708 97 657 q 360 758 260 758 l 360 758 z "},"า":{"ha":572,"x_min":31,"x_max":447,"o":"m 436 0 l 415 0 q 404 11 404 0 l 404 11 l 404 539 q 359 675 404 625 q 236 725 314 725 l 236 725 q 136 694 178 725 q 74 606 94 664 l 74 606 q 58 599 69 594 l 58 599 l 42 604 q 35 619 31 608 l 35 619 q 112 728 58 690 q 239 767 165 767 l 239 767 q 392 706 336 767 q 447 539 447 644 l 447 539 l 447 11 q 436 0 447 0 l 436 0 z "},"ำ":{"ha":572,"x_min":-276,"x_max":447,"o":"m -160 864 q -244 897 -211 864 q -276 981 -276 929 l -276 981 q -244 1065 -276 1032 q -160 1097 -211 1097 l -160 1097 q -74 1065 -107 1097 q -40 981 -40 1032 l -40 981 q -74 897 -40 929 q -160 864 -107 864 l -160 864 z m -160 904 q -104 926 -126 904 q -82 981 -82 947 l -82 981 q -104 1035 -82 1014 q -160 1057 -126 1057 l -160 1057 q -213 1035 -192 1057 q -235 981 -235 1014 l -235 981 q -213 926 -235 947 q -160 904 -192 904 l -160 904 z m 436 0 l 415 0 q 404 11 404 0 l 404 11 l 404 539 q 359 675 404 625 q 236 725 314 725 l 236 725 q 136 694 178 725 q 74 606 94 664 l 74 606 q 58 599 69 594 l 58 599 l 42 604 q 35 619 31 608 l 35 619 q 112 728 58 690 q 239 767 165 767 l 239 767 q 392 706 336 767 q 447 539 447 644 l 447 539 l 447 11 q 436 0 447 0 l 436 0 z "},"ๅ":{"ha":572,"x_min":31,"x_max":447,"o":"m 436 -292 l 415 -292 q 404 -281 404 -292 l 404 -281 l 404 539 q 359 675 404 625 q 236 725 314 725 l 236 725 q 136 694 178 725 q 74 606 94 664 l 74 606 q 58 599 69 594 l 58 599 l 42 604 q 35 619 31 608 l 35 619 q 112 728 58 690 q 239 767 165 767 l 239 767 q 391 706 335 767 q 447 539 447 644 l 447 539 l 447 -281 q 436 -292 447 -292 l 436 -292 z "},"ะ":{"ha":489,"x_min":83,"x_max":406,"o":"m 394 474 l 214 474 q 117 506 151 474 q 83 599 83 539 l 83 599 l 83 654 q 94 665 83 665 l 94 665 l 115 665 q 126 654 126 665 l 126 654 l 126 599 q 149 537 126 558 q 214 515 171 515 l 214 515 l 394 515 q 406 504 406 515 l 406 504 l 406 485 q 394 474 406 474 l 394 474 z m 394 100 l 214 100 q 117 133 151 100 q 83 225 83 165 l 83 225 l 83 281 q 94 292 83 292 l 94 292 l 115 292 q 126 281 126 292 l 126 281 l 126 225 q 149 163 126 185 q 214 142 171 142 l 214 142 l 394 142 q 406 131 406 142 l 406 131 l 406 111 q 394 100 406 100 l 394 100 z "},"เ":{"ha":318,"x_min":144,"x_max":188,"o":"m 176 0 l 156 0 q 144 11 144 0 l 144 11 l 144 742 q 156 753 144 753 l 156 753 l 176 753 q 188 742 188 753 l 188 742 l 188 11 q 176 0 188 0 l 176 0 z "},"แ":{"ha":594,"x_min":144,"x_max":464,"o":"m 176 0 l 156 0 q 144 11 144 0 l 144 11 l 144 742 q 156 753 144 753 l 156 753 l 176 753 q 188 742 188 753 l 188 742 l 188 11 q 176 0 188 0 l 176 0 z m 453 0 l 432 0 q 421 11 421 0 l 421 11 l 421 742 q 432 753 421 753 l 432 753 l 453 753 q 464 742 464 753 l 464 742 l 464 11 q 453 0 464 0 l 453 0 z "},"ไ":{"ha":357,"x_min":19,"x_max":368,"o":"m 31 1247 l 357 1247 q 368 1236 368 1247 l 368 1236 l 368 1214 q 361 1201 368 1206 l 361 1201 q 258 1096 289 1158 q 226 936 226 1033 l 226 936 l 226 11 q 215 0 226 0 l 215 0 l 194 0 q 183 11 183 0 l 183 11 l 183 936 q 211 1094 183 1031 q 303 1206 239 1158 l 303 1206 l 31 1206 q 19 1217 19 1206 l 19 1217 l 19 1236 q 31 1247 19 1247 l 31 1247 z "},"ใ":{"ha":357,"x_min":18,"x_max":418,"o":"m 224 1261 q 365 1206 313 1261 q 418 1057 418 1151 l 418 1057 q 369 913 418 967 q 240 858 321 858 l 240 858 l 226 858 l 226 11 q 215 0 226 0 l 215 0 l 194 0 q 183 11 183 0 l 183 11 l 183 889 q 194 900 183 900 l 194 900 l 240 900 q 338 942 301 900 q 375 1057 375 985 l 375 1057 q 334 1176 375 1132 q 224 1219 293 1219 l 224 1219 q 124 1188 165 1219 q 63 1097 82 1157 l 63 1097 q 47 1089 58 1086 l 47 1089 l 28 1093 q 19 1106 18 1094 l 19 1106 q 96 1221 43 1181 q 224 1261 149 1261 l 224 1261 z "},"โ":{"ha":357,"x_min":42,"x_max":390,"o":"m 67 1247 l 379 1247 q 390 1236 390 1247 l 390 1236 l 390 1217 q 379 1206 390 1206 l 379 1206 l 107 1206 q 199 1094 171 1158 q 226 936 226 1031 l 226 936 l 226 11 q 215 0 226 0 l 215 0 l 194 0 q 183 11 183 0 l 183 11 l 183 936 q 152 1096 183 1033 q 49 1201 121 1158 l 49 1201 q 42 1214 42 1206 l 42 1214 l 42 1222 q 49 1240 42 1233 q 67 1247 56 1247 l 67 1247 z "},"ั":{"ha":0,"x_min":-419,"x_max":28,"o":"m 17 878 l -289 878 q -385 910 -351 878 q -419 1003 -419 943 l -419 1003 l -419 1044 q -408 1056 -419 1056 l -408 1056 l -389 1056 q -378 1044 -378 1056 l -378 1044 l -378 1003 q -355 940 -378 963 q -289 918 -332 918 l -289 918 l 17 918 q 28 907 28 918 l 28 907 l 28 889 q 17 878 28 878 l 17 878 z "},"่":{"ha":0,"x_min":-167,"x_max":-125,"o":"m -136 878 l -156 878 q -167 889 -167 878 l -167 889 l -167 1086 q -156 1097 -167 1097 l -156 1097 l -136 1097 q -125 1086 -125 1097 l -125 1086 l -125 889 q -136 878 -125 878 l -136 878 z "},"้":{"ha":0,"x_min":-454,"x_max":-22,"o":"m -306 918 l -33 918 q -22 907 -22 918 l -22 907 l -22 889 q -33 878 -22 878 l -33 878 l -336 878 q -347 889 -347 878 l -347 889 l -347 1029 l -443 1029 q -454 1040 -454 1029 l -454 1040 l -454 1058 q -443 1069 -454 1069 l -443 1069 l -340 1069 q -306 1035 -306 1069 l -306 1035 l -306 918 z "},"๊":{"ha":0,"x_min":-589,"x_max":-56,"o":"m -194 918 l -67 918 q -56 907 -56 918 l -56 907 l -56 889 q -67 878 -56 878 l -67 878 l -225 878 q -236 889 -236 878 l -236 889 l -236 993 q -250 1038 -236 1021 q -289 1058 -264 1056 l -289 1058 l -386 1000 l -397 1000 l -494 1058 q -533 1038 -519 1056 q -547 993 -547 1021 l -547 993 l -547 889 q -558 878 -547 878 l -558 878 l -578 878 q -589 889 -589 878 l -589 889 l -589 993 q -564 1068 -589 1039 q -492 1103 -539 1097 l -492 1103 l -392 1043 l -292 1103 q -219 1068 -244 1096 q -194 993 -194 1040 l -194 993 l -194 918 z "},"๋":{"ha":0,"x_min":-290,"x_max":-1,"o":"m -125 1029 l -12 1029 q -1 1018 -1 1029 l -1 1018 l -1 1000 q -12 989 -1 989 l -12 989 l -125 989 l -125 889 q -136 878 -125 878 l -136 878 l -156 878 q -167 889 -167 878 l -167 889 l -167 989 l -279 989 q -290 1000 -290 989 l -290 1000 l -290 1018 q -279 1029 -290 1029 l -279 1029 l -167 1029 l -167 1129 q -156 1140 -167 1140 l -156 1140 l -136 1140 q -125 1129 -125 1140 l -125 1129 l -125 1029 z "},"์":{"ha":0,"x_min":-310,"x_max":-29,"o":"m -279 878 l -299 878 q -310 889 -310 878 l -310 889 l -310 925 q -276 1017 -310 985 q -179 1050 -242 1050 l -179 1050 l -40 1050 q -29 1039 -29 1050 l -29 1039 l -29 1021 q -40 1010 -29 1010 l -40 1010 l -179 1010 q -245 988 -222 1010 q -268 925 -268 965 l -268 925 l -268 889 q -279 878 -268 878 l -279 878 z "},"็":{"ha":0,"x_min":-619,"x_max":-158,"o":"m -169 1088 l -472 1088 q -549 1063 -521 1088 q -578 996 -578 1038 l -578 996 q -556 933 -578 956 q -494 910 -533 910 l -494 910 q -399 999 -437 910 l -399 999 q -385 1007 -394 1007 l -385 1007 l -360 1007 q -347 999 -351 1007 l -347 999 l -324 957 q -295 928 -312 938 q -253 918 -278 918 l -253 918 l -169 918 q -158 907 -158 918 l -158 907 l -158 889 q -169 878 -158 878 l -169 878 l -253 878 q -358 936 -325 878 l -358 936 l -372 960 q -494 869 -414 869 l -494 869 q -585 903 -551 869 q -619 996 -619 938 l -619 996 q -580 1092 -619 1057 q -472 1128 -540 1128 l -472 1128 l -169 1128 q -158 1117 -158 1128 l -158 1117 l -158 1099 q -169 1088 -158 1088 l -169 1088 z "},"๎":{"ha":0,"x_min":-310,"x_max":-114,"o":"m -175 1117 l -125 1117 q -114 1106 -114 1117 l -114 1106 l -114 1088 q -125 1076 -114 1076 l -125 1076 l -175 1076 q -211 1067 -199 1076 q -224 1039 -224 1057 l -224 1039 q -211 1011 -224 1021 q -175 1001 -199 1001 l -175 1001 l -156 1001 q -144 990 -144 1001 l -144 990 l -144 972 q -156 961 -144 961 l -156 961 l -207 961 q -253 947 -237 961 q -268 903 -268 933 l -268 903 l -268 889 q -279 878 -268 878 l -279 878 l -299 878 q -310 889 -310 878 l -310 889 l -310 906 q -242 992 -310 975 l -242 992 q -265 1046 -265 1013 l -265 1046 q -242 1098 -265 1079 q -175 1117 -218 1117 l -175 1117 z "},"ิ":{"ha":0,"x_min":-658,"x_max":-125,"o":"m -153 878 l -647 878 q -658 889 -658 878 l -658 889 l -658 907 q -647 918 -658 918 l -647 918 l -133 918 q -125 910 -125 918 l -125 910 l -125 906 q -153 878 -125 878 l -153 878 z "},"ี":{"ha":0,"x_min":-658,"x_max":-125,"o":"m -153 878 l -647 878 q -658 889 -658 878 l -658 889 l -658 907 q -647 918 -658 918 l -647 918 l -167 918 l -167 1072 q -156 1083 -167 1083 l -156 1083 l -136 1083 q -125 1072 -125 1083 l -125 1072 l -125 906 q -153 878 -125 878 l -153 878 z "},"ึ":{"ha":0,"x_min":-658,"x_max":-81,"o":"m -194 1097 q -112 1067 -144 1097 q -81 988 -81 1036 l -81 988 q -112 908 -81 939 q -194 878 -144 878 l -194 878 l -647 878 q -658 889 -658 878 l -658 889 l -658 907 q -647 918 -658 918 l -647 918 l -282 918 q -306 988 -306 946 l -306 988 q -274 1066 -306 1035 q -194 1097 -243 1097 l -194 1097 z m -194 918 q -142 938 -162 918 q -122 988 -122 957 l -122 988 q -142 1038 -122 1018 q -194 1057 -162 1057 l -194 1057 q -244 1038 -225 1057 q -264 988 -264 1018 l -264 988 q -244 938 -264 957 q -194 918 -225 918 l -194 918 z "},"ื":{"ha":0,"x_min":-658,"x_max":-125,"o":"m -156 1083 l -136 1083 q -125 1072 -125 1083 l -125 1072 l -125 906 q -153 878 -125 878 l -153 878 l -647 878 q -658 889 -658 878 l -658 889 l -658 907 q -647 918 -658 918 l -647 918 l -319 918 l -319 1072 q -308 1083 -319 1083 l -308 1083 l -289 1083 q -278 1072 -278 1083 l -278 1072 l -278 918 l -167 918 l -167 1072 q -156 1083 -167 1083 l -156 1083 z "},"ํ":{"ha":0,"x_min":-276,"x_max":-40,"o":"m -160 864 q -244 897 -211 864 q -276 981 -276 929 l -276 981 q -244 1065 -276 1032 q -160 1097 -211 1097 l -160 1097 q -74 1065 -107 1097 q -40 981 -40 1032 l -40 981 q -74 897 -40 929 q -160 864 -107 864 l -160 864 z m -160 904 q -104 926 -126 904 q -82 981 -82 947 l -82 981 q -104 1035 -82 1014 q -160 1057 -126 1057 l -160 1057 q -213 1035 -192 1057 q -235 981 -235 1014 l -235 981 q -213 926 -235 947 q -160 904 -192 904 l -160 904 z "},"ุ":{"ha":0,"x_min":-283,"x_max":-125,"o":"m -136 -125 q -125 -136 -125 -125 l -125 -136 l -125 -350 q -136 -361 -125 -361 l -136 -361 l -156 -361 q -167 -350 -167 -361 l -167 -350 l -167 -165 l -272 -165 q -283 -154 -283 -165 l -283 -154 l -283 -136 q -272 -125 -283 -125 l -272 -125 l -136 -125 z "},"ู":{"ha":0,"x_min":-519,"x_max":-125,"o":"m -156 -125 l -136 -125 q -125 -136 -125 -125 l -125 -136 l -125 -224 q -167 -334 -125 -293 q -278 -375 -208 -375 l -278 -375 q -389 -334 -347 -375 q -431 -224 -431 -293 l -431 -224 l -431 -164 l -508 -164 q -519 -153 -519 -164 l -519 -153 l -519 -136 q -508 -125 -519 -125 l -508 -125 l -400 -125 q -389 -136 -389 -125 l -389 -136 l -389 -224 q -359 -305 -389 -275 q -278 -335 -329 -335 l -278 -335 q -197 -305 -226 -335 q -167 -224 -167 -275 l -167 -224 l -167 -136 q -156 -125 -167 -125 l -156 -125 z "},"ฺ":{"ha":0,"x_min":-200,"x_max":-94,"o":"m -147 -225 q -185 -210 -171 -225 q -200 -172 -200 -196 l -200 -172 q -185 -135 -200 -150 q -147 -119 -171 -119 l -147 -119 q -110 -135 -125 -119 q -94 -172 -94 -150 l -94 -172 q -110 -210 -94 -196 q -147 -225 -125 -225 l -147 -225 z "},"๐":{"ha":836,"x_min":76,"x_max":760,"o":"m 418 -14 q 242 31 321 -14 q 120 156 164 76 q 76 333 76 235 l 76 333 q 120 513 76 433 q 242 636 164 592 q 418 681 319 681 l 418 681 q 594 636 517 681 q 716 513 672 592 q 760 333 760 433 l 760 333 q 716 156 760 235 q 594 31 672 76 q 418 -14 515 -14 l 418 -14 z m 418 28 q 572 67 504 28 q 678 176 640 107 q 717 333 717 246 l 717 333 q 678 490 717 421 q 572 599 640 560 q 418 639 504 639 l 418 639 q 264 599 332 639 q 158 490 196 560 q 119 333 119 421 l 119 333 q 158 176 119 246 q 264 67 196 107 q 418 28 332 28 l 418 28 z "},"๑":{"ha":815,"x_min":69,"x_max":739,"o":"m 307 -111 l 303 -111 q 294 -103 297 -111 l 294 -103 l 292 -83 l 292 -81 q 301 -69 292 -72 l 301 -69 q 596 71 496 -29 q 696 329 696 171 l 696 329 q 617 556 696 474 q 399 639 538 639 l 399 639 q 191 570 269 639 q 113 389 113 501 l 113 389 q 167 237 113 296 q 310 178 222 178 l 310 178 q 425 204 381 178 l 425 204 q 434 208 431 208 q 440 203 438 207 l 440 203 l 450 186 q 449 171 456 176 l 449 171 q 310 136 396 136 l 310 136 q 136 206 203 136 q 69 389 69 275 l 69 389 q 110 542 69 475 q 226 644 151 608 q 399 681 300 681 l 399 681 q 648 587 557 681 q 739 329 739 493 l 739 329 q 307 -111 739 -24 l 307 -111 z "},"๒":{"ha":957,"x_min":125,"x_max":835,"o":"m 481 -14 q 209 44 293 -14 q 125 231 125 101 l 125 231 l 125 850 q 136 861 125 861 l 136 861 l 157 861 q 168 850 168 861 l 168 850 l 168 231 q 242 76 168 124 q 481 28 315 28 l 481 28 q 715 76 638 28 q 792 231 792 125 l 792 231 l 792 499 q 769 589 792 554 q 706 633 746 624 l 706 633 l 576 550 l 565 550 l 436 633 q 373 589 396 624 q 350 499 350 554 l 350 499 l 350 317 q 339 306 350 306 l 339 306 l 318 306 q 307 317 307 306 l 307 317 l 307 499 q 343 620 307 574 q 443 678 379 667 l 443 678 l 571 594 l 699 678 q 799 620 764 667 q 835 499 835 574 l 835 499 l 835 231 q 747 44 835 103 q 481 -14 660 -14 l 481 -14 z "},"๓":{"ha":928,"x_min":122,"x_max":803,"o":"m 629 678 q 756 625 708 678 q 803 485 803 572 l 803 485 l 803 11 q 792 0 803 0 l 792 0 l 771 0 q 760 11 760 0 l 760 11 l 760 485 q 724 595 760 554 q 629 636 689 636 l 629 636 q 527 592 565 636 q 489 471 489 547 l 489 471 l 489 217 q 478 206 489 206 l 478 206 l 457 206 q 446 217 446 206 l 446 217 l 446 471 q 406 591 446 546 q 300 636 367 636 l 300 636 q 201 596 236 636 q 165 485 165 556 l 165 485 l 165 211 q 201 78 165 125 q 304 31 238 31 l 304 31 q 378 53 350 31 l 378 53 q 393 51 388 61 l 393 51 l 404 35 q 403 19 410 26 l 403 19 q 304 -11 367 -11 l 304 -11 q 169 47 217 -11 q 122 211 122 104 l 122 211 l 122 485 q 170 626 122 574 q 300 678 218 678 l 300 678 q 403 647 360 678 q 467 554 446 617 l 467 554 q 529 647 488 617 q 629 678 571 678 l 629 678 z "},"๔":{"ha":788,"x_min":76,"x_max":729,"o":"m 499 42 l 718 42 q 729 31 729 42 l 729 31 l 729 11 q 718 0 729 0 l 718 0 l 386 0 q 223 41 293 0 q 115 158 153 82 q 76 335 76 233 l 76 335 q 115 510 76 435 q 223 626 153 585 q 386 667 293 667 l 386 667 l 532 667 q 636 705 600 667 q 672 813 672 743 l 672 813 l 672 850 q 683 861 672 861 l 683 861 l 704 861 q 715 850 715 861 l 715 850 l 715 813 q 668 674 715 722 q 532 625 621 625 l 532 625 l 386 625 q 192 547 264 625 q 119 335 119 468 l 119 335 q 192 121 119 200 q 386 42 264 42 l 386 42 l 456 42 l 456 210 q 499 333 456 288 q 618 378 543 378 l 618 378 l 676 378 q 688 367 688 378 l 688 367 l 688 347 q 676 336 688 336 l 676 336 l 618 336 q 531 302 563 336 q 499 210 499 268 l 499 210 l 499 42 z "},"๕":{"ha":788,"x_min":76,"x_max":729,"o":"m 499 42 l 718 42 q 729 31 729 42 l 729 31 l 729 11 q 718 0 729 0 l 718 0 l 386 0 q 223 41 293 0 q 115 158 153 82 q 76 335 76 233 l 76 335 q 138 547 76 463 q 306 656 199 632 l 306 656 q 265 750 265 692 l 265 750 q 301 840 265 804 q 390 875 336 875 l 390 875 q 478 840 443 875 q 513 750 513 804 l 513 750 q 483 667 513 703 l 483 667 l 532 667 q 636 705 600 667 q 672 813 672 743 l 672 813 l 672 850 q 683 861 672 861 l 683 861 l 704 861 q 715 850 715 861 l 715 850 l 715 813 q 668 674 715 722 q 532 625 621 625 l 532 625 l 386 625 q 192 547 264 625 q 119 335 119 468 l 119 335 q 192 121 119 200 q 386 42 264 42 l 386 42 l 456 42 l 456 210 q 499 333 456 288 q 618 378 543 378 l 618 378 l 676 378 q 688 367 688 378 l 688 367 l 688 347 q 676 336 688 336 l 676 336 l 618 336 q 531 302 563 336 q 499 210 499 268 l 499 210 l 499 42 z m 390 835 q 331 810 354 835 q 307 750 307 786 l 307 750 q 331 690 307 714 q 390 665 354 665 l 390 665 q 448 690 425 665 q 471 750 471 714 l 471 750 q 448 810 471 786 q 390 835 425 835 l 390 835 z "},"๖":{"ha":792,"x_min":11,"x_max":715,"o":"m 374 681 q 554 638 476 681 q 674 515 632 594 q 715 328 715 435 l 715 328 q 674 147 715 225 q 554 28 632 69 q 374 -14 476 -14 l 374 -14 q 190 36 265 -14 q 82 174 115 86 l 82 174 l 81 179 q 89 189 81 188 l 89 189 l 107 194 q 114 196 110 196 l 114 196 q 122 188 121 196 l 122 188 q 217 69 153 111 q 374 28 281 28 l 374 28 q 591 109 510 28 q 672 328 672 190 l 672 328 q 591 555 672 471 q 374 639 510 639 l 374 639 q 135 511 207 639 l 135 511 q 122 503 131 503 l 122 503 l 104 503 q 92 513 94 503 l 92 513 l 11 849 l 11 851 q 21 861 11 861 l 21 861 l 42 861 q 54 851 51 861 l 54 851 l 125 557 q 225 649 160 617 q 374 681 290 681 l 374 681 z "},"๗":{"ha":1132,"x_min":122,"x_max":1007,"o":"m 975 861 l 996 861 q 1007 850 1007 861 l 1007 850 l 1007 247 q 949 64 1007 128 q 786 0 892 0 l 786 0 l 738 0 q 726 11 726 0 l 726 11 l 726 485 q 694 595 726 554 q 608 636 661 636 l 608 636 q 510 591 547 636 q 474 471 474 546 l 474 471 l 474 217 q 463 206 474 206 l 463 206 l 442 206 q 431 217 431 206 l 431 217 l 431 471 q 392 591 431 546 q 289 636 353 636 l 289 636 q 199 595 233 636 q 165 485 165 554 l 165 485 l 165 211 q 203 78 165 126 q 307 31 240 31 l 307 31 q 381 53 353 31 l 381 53 q 396 51 390 61 l 396 51 l 407 35 q 406 19 413 26 l 406 19 q 307 -11 369 -11 l 307 -11 q 171 47 219 -11 q 122 211 122 104 l 122 211 l 122 485 q 168 625 122 572 q 289 678 214 678 l 289 678 q 388 647 346 678 q 451 553 431 615 l 451 553 q 513 647 472 615 q 608 678 554 678 l 608 678 q 726 626 682 678 q 769 485 769 574 l 769 485 l 769 42 l 786 42 q 918 95 872 42 q 964 247 964 149 l 964 247 l 964 850 q 975 861 964 861 l 975 861 z "},"๘":{"ha":853,"x_min":76,"x_max":756,"o":"m 724 314 l 744 314 q 752 310 749 314 q 756 303 756 307 l 756 303 l 756 158 q 713 42 756 86 q 585 -11 669 -1 l 585 -11 l 433 163 l 431 163 l 279 -11 q 128 102 179 18 q 76 314 76 186 l 76 314 q 117 498 76 418 q 234 622 158 578 q 410 667 310 667 l 410 667 l 556 667 q 660 705 624 667 q 696 813 696 743 l 696 813 l 696 850 q 707 861 696 861 l 707 861 l 728 861 q 739 850 739 861 l 739 850 l 739 813 q 692 674 739 722 q 556 625 644 625 l 556 625 l 410 625 q 256 585 322 625 q 155 476 190 546 q 119 314 119 406 l 119 314 q 157 138 119 210 q 267 38 194 67 l 267 38 l 421 214 l 443 214 l 601 32 q 685 76 657 43 q 713 158 713 108 l 713 158 l 713 303 q 716 310 713 307 q 724 314 719 314 l 724 314 z "},"๙":{"ha":782,"x_min":122,"x_max":747,"o":"m 715 861 l 736 861 q 747 850 747 861 l 747 850 l 747 799 q 703 670 747 715 q 578 625 660 625 l 578 625 l 533 625 q 483 615 500 625 q 467 578 467 604 l 467 578 q 482 515 467 557 l 482 515 l 669 13 l 671 8 q 667 3 671 6 q 660 0 664 0 l 660 0 l 639 0 q 626 10 629 0 l 626 10 l 439 511 q 293 636 393 636 l 293 636 q 200 596 235 636 q 165 488 165 556 l 165 488 l 165 211 q 203 78 165 126 q 307 31 240 31 l 307 31 q 381 53 353 31 l 381 53 q 396 51 390 61 l 396 51 l 407 35 q 406 19 413 26 l 406 19 q 307 -11 369 -11 l 307 -11 q 171 47 219 -11 q 122 211 122 104 l 122 211 l 122 488 q 169 626 122 574 q 293 678 215 678 l 293 678 q 378 658 340 678 q 435 600 415 638 l 435 600 q 533 667 446 667 l 533 667 l 578 667 q 672 701 639 667 q 704 799 704 735 l 704 799 l 704 850 q 715 861 704 861 l 715 861 z "},"๏":{"ha":839,"x_min":63,"x_max":776,"o":"m 419 42 q 235 85 317 42 q 108 207 154 129 q 63 383 63 285 l 63 383 q 108 560 63 482 q 235 681 154 638 q 419 725 317 725 l 419 725 q 603 681 522 725 q 731 560 685 638 q 776 383 776 482 l 776 383 q 731 207 776 285 q 603 85 685 129 q 419 42 522 42 l 419 42 z m 419 82 q 582 121 510 82 q 694 228 654 160 q 735 383 735 297 l 735 383 q 694 538 735 469 q 582 646 654 607 q 419 685 510 685 l 419 685 q 257 646 329 685 q 144 538 185 607 q 104 383 104 469 l 104 383 q 144 228 104 297 q 257 121 185 160 q 419 82 329 82 l 419 82 z m 419 217 q 303 264 349 217 q 257 383 257 311 l 257 383 q 303 503 257 456 q 419 550 349 550 l 419 550 q 536 503 490 550 q 582 383 582 456 l 582 383 q 536 264 582 311 q 419 217 490 217 l 419 217 z m 419 257 q 506 292 472 257 q 540 383 540 328 l 540 383 q 506 474 540 439 q 419 510 472 510 l 419 510 q 333 474 367 510 q 299 383 299 439 l 299 383 q 333 292 299 328 q 419 257 367 257 l 419 257 z "},"๛":{"ha":1147,"x_min":63,"x_max":1117,"o":"m 1101 315 l 1111 300 q 1110 285 1117 292 l 1110 285 q 1013 253 1071 253 l 1013 253 q 920 292 961 253 q 840 419 879 332 l 840 419 l 781 206 q 768 196 778 196 l 768 196 l 749 196 q 736 204 739 196 l 736 204 l 646 435 q 537 193 619 278 q 328 108 454 108 l 328 108 q 134 182 206 108 q 63 382 63 256 l 63 382 q 131 578 63 506 q 317 651 200 651 l 317 651 q 468 606 404 651 l 468 606 q 469 590 475 600 l 469 590 l 458 574 q 443 572 451 565 l 443 572 q 317 610 383 610 l 317 610 q 163 548 219 610 q 106 382 106 486 l 106 382 q 165 213 106 275 q 328 150 225 150 l 328 150 q 528 247 453 150 q 615 522 603 344 l 615 522 q 626 533 615 533 l 626 533 l 642 533 q 654 525 651 533 l 654 525 l 756 267 l 815 481 q 828 490 818 490 l 828 490 l 844 490 q 858 481 854 490 l 858 481 q 933 338 897 382 q 1013 293 969 293 l 1013 293 q 1086 317 1051 293 l 1086 317 q 1101 315 1096 325 l 1101 315 z "},"ๆ":{"ha":708,"x_min":56,"x_max":567,"o":"m 556 -292 l 535 -292 q 524 -281 524 -292 l 524 -281 l 524 585 q 433 719 524 700 l 433 719 l 317 636 l 306 636 l 189 719 q 122 675 144 710 q 99 585 99 640 l 99 585 l 99 375 q 88 364 99 364 l 88 364 l 67 364 q 56 375 56 364 l 56 375 l 56 585 q 92 708 56 661 q 196 764 128 754 l 196 764 l 311 681 l 426 764 q 531 707 494 753 q 567 585 567 661 l 567 585 l 567 -281 q 556 -292 567 -292 l 556 -292 z "},"ฯ":{"ha":714,"x_min":44,"x_max":569,"o":"m 538 753 l 558 753 q 569 742 569 753 l 569 742 l 569 11 q 558 0 569 0 l 558 0 l 538 0 q 526 11 526 0 l 526 11 l 526 347 l 315 347 q 115 403 185 347 q 44 561 44 458 l 44 561 q 103 710 44 656 q 264 764 161 764 l 264 764 q 393 729 346 764 l 393 729 q 394 714 400 724 l 394 714 l 385 697 q 378 692 382 693 q 369 696 375 692 l 369 696 q 264 722 328 722 l 264 722 q 135 679 182 722 q 88 561 88 636 l 88 561 q 147 433 88 478 q 315 389 206 389 l 315 389 l 526 389 l 526 742 q 538 753 526 753 l 538 753 z "},"๚":{"ha":924,"x_min":44,"x_max":779,"o":"m 538 753 l 558 753 q 569 742 569 753 l 569 742 l 569 11 q 558 0 569 0 l 558 0 l 538 0 q 526 11 526 0 l 526 11 l 526 347 l 315 347 q 115 403 185 347 q 44 561 44 458 l 44 561 q 103 710 44 656 q 264 764 161 764 l 264 764 q 393 729 346 764 l 393 729 q 394 714 400 724 l 394 714 l 385 697 q 378 692 382 693 q 369 696 375 692 l 369 696 q 264 722 328 722 l 264 722 q 135 679 182 722 q 88 561 88 636 l 88 561 q 147 433 88 478 q 315 389 206 389 l 315 389 l 526 389 l 526 742 q 538 753 526 753 l 538 753 z m 747 753 l 768 753 q 779 742 779 753 l 779 742 l 779 11 q 768 0 779 0 l 768 0 l 747 0 q 736 11 736 0 l 736 11 l 736 742 q 747 753 736 753 l 747 753 z "},"ﬁ":{"ha":743,"x_min":25,"x_max":642,"o":"m 193 0 l 174 0 q 163 11 163 0 l 163 11 l 163 643 l 36 643 q 25 654 25 643 l 25 654 l 25 672 q 36 683 25 683 l 36 683 l 163 683 l 163 821 q 215 993 163 936 q 358 1050 267 1050 l 358 1050 q 511 985 447 1050 l 511 985 q 510 968 519 978 l 510 968 l 499 957 q 482 957 490 949 l 482 957 q 425 997 454 985 q 358 1008 396 1008 l 358 1008 q 242 961 281 1008 q 204 814 204 914 l 204 814 l 204 683 l 610 683 q 621 672 621 683 l 621 672 l 621 11 q 610 0 621 0 l 610 0 l 590 0 q 579 11 579 0 l 579 11 l 579 643 l 204 643 l 204 11 q 193 0 204 0 l 193 0 z m 600 872 q 570 884 582 872 q 558 914 558 896 l 558 914 q 570 943 558 932 q 600 954 582 954 l 600 954 q 630 943 618 954 q 642 914 642 932 l 642 914 q 630 884 642 896 q 600 872 618 872 l 600 872 z "},"ﬂ":{"ha":743,"x_min":25,"x_max":621,"o":"m 193 0 l 174 0 q 163 11 163 0 l 163 11 l 163 643 l 36 643 q 25 654 25 643 l 25 654 l 25 672 q 36 683 25 683 l 36 683 l 163 683 l 163 821 q 215 993 163 936 q 358 1050 267 1050 l 358 1050 q 511 985 447 1050 l 511 985 q 510 968 519 978 l 510 968 l 499 957 q 482 957 490 949 l 482 957 q 425 997 454 985 q 358 1008 396 1008 l 358 1008 q 242 961 281 1008 q 204 814 204 914 l 204 814 l 204 683 l 421 683 q 432 672 432 683 l 432 672 l 432 654 q 421 643 432 643 l 421 643 l 204 643 l 204 11 q 193 0 204 0 l 193 0 z m 610 0 l 590 0 q 579 11 579 0 l 579 11 l 579 1031 q 590 1042 579 1042 l 590 1042 l 610 1042 q 621 1031 621 1042 l 621 1031 l 621 11 q 610 0 621 0 l 610 0 z "},"⁄":{"ha":139,"x_min":-272,"x_max":411,"o":"m -239 0 l -262 0 q -270 4 -268 0 q -269 14 -272 8 l -269 14 l 365 1013 q 371 1018 368 1017 q 378 1019 374 1019 l 378 1019 l 401 1019 q 409 1015 407 1019 q 408 1006 411 1011 l 408 1006 l -226 7 q -239 0 -232 0 l -239 0 z "},"½":{"ha":1222,"x_min":151,"x_max":1146,"o":"m 326 461 l 301 461 q 293 469 293 461 l 293 469 l 293 957 l 169 896 q 158 899 161 892 l 158 899 l 154 907 q 157 918 151 914 l 157 918 l 300 1017 q 310 1019 304 1019 l 310 1019 l 326 1019 q 335 1011 335 1019 l 335 1011 l 335 469 q 326 461 335 461 l 326 461 z m 282 0 l 258 0 q 251 4 253 0 q 251 14 249 8 l 251 14 l 886 1013 q 892 1018 889 1017 q 899 1019 894 1019 l 899 1019 l 922 1019 q 930 1015 928 1019 q 929 1006 932 1011 l 929 1006 l 294 7 q 282 0 289 0 l 282 0 z m 1138 0 l 761 0 q 753 8 753 0 l 753 8 l 753 15 q 757 25 753 21 l 757 25 l 904 171 q 1012 288 976 243 q 1060 363 1047 332 q 1072 426 1072 393 l 1072 426 q 1038 502 1072 474 q 947 531 1003 531 l 947 531 q 854 506 893 531 q 796 431 815 481 l 796 431 q 785 425 793 422 l 785 425 l 761 431 q 756 442 753 432 l 756 442 q 828 538 776 503 q 947 572 879 572 l 947 572 q 1067 531 1018 572 q 1115 426 1115 490 l 1115 426 q 1103 354 1115 389 q 1051 270 1090 319 q 933 144 1011 221 l 933 144 l 826 40 l 1138 40 q 1146 32 1146 40 l 1146 32 l 1146 8 q 1138 0 1146 0 l 1138 0 z "},"¼":{"ha":1222,"x_min":151,"x_max":1167,"o":"m 326 461 l 301 461 q 293 469 293 461 l 293 469 l 293 957 l 169 896 q 158 899 161 892 l 158 899 l 154 907 q 157 918 151 914 l 157 918 l 300 1017 q 310 1019 304 1019 l 310 1019 l 326 1019 q 335 1011 335 1019 l 335 1011 l 335 469 q 326 461 335 461 l 326 461 z m 317 0 l 293 0 q 285 4 288 0 q 286 14 283 8 l 286 14 l 921 1013 q 926 1018 924 1017 q 933 1019 929 1019 l 933 1019 l 957 1019 q 965 1015 963 1019 q 964 1006 967 1011 l 964 1006 l 329 7 q 317 0 324 0 l 317 0 z m 1063 0 l 1038 0 q 1029 8 1029 0 l 1029 8 l 1029 131 l 740 131 q 732 139 732 131 l 732 139 l 732 146 q 736 156 732 150 l 736 156 l 1036 553 q 1047 558 1042 558 l 1047 558 l 1063 558 q 1071 550 1071 558 l 1071 550 l 1071 171 l 1158 171 q 1167 163 1167 171 l 1167 163 l 1167 139 q 1158 131 1167 131 l 1158 131 l 1071 131 l 1071 8 q 1063 0 1071 0 l 1063 0 z m 1029 482 l 794 171 l 1029 171 l 1029 482 z "},"¾":{"ha":1222,"x_min":63,"x_max":1167,"o":"m 269 447 q 146 483 203 447 q 67 579 89 519 l 67 579 q 72 593 63 589 l 72 593 l 88 600 q 93 601 89 601 l 93 601 q 103 594 100 601 l 103 594 q 167 518 122 547 q 269 489 211 489 l 269 489 q 386 524 340 489 q 432 615 432 560 l 432 615 q 390 701 432 667 q 279 735 349 735 l 279 735 l 249 735 q 238 746 238 735 l 238 746 l 238 764 q 249 775 238 775 l 249 775 l 279 775 q 377 806 340 775 q 414 882 414 836 l 414 882 q 376 963 414 933 q 276 992 339 992 l 276 992 q 182 966 222 992 q 126 896 142 940 l 126 896 q 113 889 122 888 l 113 889 l 94 893 q 86 907 83 896 l 86 907 q 156 999 106 965 q 276 1033 207 1033 l 276 1033 q 406 992 356 1033 q 457 888 457 950 l 457 888 q 431 808 457 844 q 358 756 404 772 l 358 756 q 444 703 413 740 q 475 613 475 665 l 475 613 q 415 494 475 540 q 269 447 356 447 l 269 447 z m 358 0 l 335 0 q 327 4 329 0 q 328 14 325 8 l 328 14 l 963 1013 q 968 1018 965 1017 q 975 1019 971 1019 l 975 1019 l 999 1019 q 1006 1015 1004 1019 q 1006 1006 1008 1011 l 1006 1006 l 371 7 q 358 0 365 0 l 358 0 z m 1063 0 l 1038 0 q 1029 8 1029 0 l 1029 8 l 1029 131 l 740 131 q 732 139 732 131 l 732 139 l 732 146 q 736 156 732 150 l 736 156 l 1036 553 q 1047 558 1042 558 l 1047 558 l 1063 558 q 1071 550 1071 558 l 1071 550 l 1071 171 l 1158 171 q 1167 163 1167 171 l 1167 163 l 1167 139 q 1158 131 1167 131 l 1158 131 l 1071 131 l 1071 8 q 1063 0 1071 0 l 1063 0 z m 1029 482 l 794 171 l 1029 171 l 1029 482 z "},".":{"ha":269,"x_min":86,"x_max":183,"o":"m 135 -14 q 100 -1 114 -14 q 86 35 86 13 l 86 35 q 100 69 86 56 q 135 82 114 82 l 135 82 q 169 69 156 82 q 183 35 183 56 l 183 35 q 169 -1 183 13 q 135 -14 156 -14 l 135 -14 z "},",":{"ha":269,"x_min":67,"x_max":183,"o":"m 90 -199 l 76 -199 q 69 -189 67 -199 l 69 -189 l 122 -12 q 97 3 107 -10 q 86 35 86 17 l 86 35 q 100 69 86 56 q 135 82 114 82 l 135 82 q 169 69 156 82 q 183 35 183 56 l 183 35 q 165 -39 183 4 l 165 -39 l 100 -192 q 90 -199 97 -199 l 90 -199 z "},":":{"ha":269,"x_min":86,"x_max":183,"o":"m 135 596 q 100 609 114 596 q 86 644 86 622 l 86 644 q 100 678 86 665 q 135 692 114 692 l 135 692 q 169 678 156 692 q 183 644 183 665 l 183 644 q 169 609 183 622 q 135 596 156 596 l 135 596 z m 135 -14 q 100 -1 114 -14 q 86 35 86 13 l 86 35 q 100 69 86 56 q 135 82 114 82 l 135 82 q 169 69 156 82 q 183 35 183 56 l 183 35 q 169 -1 183 13 q 135 -14 156 -14 l 135 -14 z "},";":{"ha":269,"x_min":67,"x_max":183,"o":"m 135 596 q 100 609 114 596 q 86 644 86 622 l 86 644 q 100 678 86 665 q 135 692 114 692 l 135 692 q 169 678 156 692 q 183 644 183 665 l 183 644 q 169 609 183 622 q 135 596 156 596 l 135 596 z m 90 -199 l 76 -199 q 69 -189 67 -199 l 69 -189 l 122 -12 q 97 3 107 -10 q 86 35 86 17 l 86 35 q 100 69 86 56 q 135 82 114 82 l 135 82 q 169 69 156 82 q 183 35 183 56 l 183 35 q 165 -39 183 4 l 165 -39 l 100 -192 q 90 -199 97 -199 l 90 -199 z "},"…":{"ha":1389,"x_min":165,"x_max":1224,"o":"m 214 -14 q 179 -1 193 -14 q 165 35 165 13 l 165 35 q 179 69 165 56 q 214 82 193 82 l 214 82 q 249 69 235 82 q 263 35 263 56 l 263 35 q 249 -1 263 13 q 214 -14 235 -14 l 214 -14 z m 694 -14 q 660 -1 674 -14 q 646 35 646 13 l 646 35 q 660 69 646 56 q 694 82 674 82 l 694 82 q 729 69 715 82 q 743 35 743 56 l 743 35 q 729 -1 743 13 q 694 -14 715 -14 l 694 -14 z m 1175 -14 q 1140 -1 1154 -14 q 1126 35 1126 13 l 1126 35 q 1140 69 1126 56 q 1175 82 1154 82 l 1175 82 q 1210 69 1196 82 q 1224 35 1224 56 l 1224 35 q 1210 -1 1224 13 q 1175 -14 1196 -14 l 1175 -14 z "},"!":{"ha":269,"x_min":86,"x_max":183,"o":"m 143 265 l 126 265 q 115 276 115 265 l 115 276 l 111 1008 q 122 1019 111 1019 l 122 1019 l 147 1019 q 158 1008 158 1019 l 158 1008 l 154 276 q 143 265 154 265 l 143 265 z m 135 -14 q 100 -1 114 -14 q 86 35 86 13 l 86 35 q 100 69 86 56 q 135 82 114 82 l 135 82 q 169 69 156 82 q 183 35 183 56 l 183 35 q 169 -1 183 13 q 135 -14 156 -14 l 135 -14 z "},"?":{"ha":721,"x_min":53,"x_max":654,"o":"m 314 169 l 297 169 q 286 181 286 169 l 286 181 l 285 501 q 296 513 285 513 l 296 513 l 357 513 q 542 584 475 513 q 608 772 608 656 l 608 772 q 543 931 608 868 q 368 994 478 994 l 368 994 q 97 786 167 994 l 97 786 q 82 779 93 775 l 82 779 l 63 786 q 56 800 53 790 l 56 800 q 173 977 92 915 q 368 1039 254 1039 l 368 1039 q 517 1003 453 1039 q 618 907 582 968 q 654 772 654 846 l 654 772 q 617 618 654 686 q 513 511 581 550 q 354 472 444 472 l 354 472 l 326 472 l 325 181 q 314 169 325 169 l 314 169 z m 306 -14 q 271 -1 285 -14 q 257 35 257 13 l 257 35 q 271 69 257 56 q 306 82 285 82 l 306 82 q 340 69 326 82 q 354 35 354 56 l 354 35 q 340 -1 354 13 q 306 -14 326 -14 l 306 -14 z "},"·":{"ha":428,"x_min":165,"x_max":263,"o":"m 214 404 q 179 417 193 404 q 165 453 165 431 l 165 453 q 179 487 165 474 q 214 500 193 500 l 214 500 q 249 487 235 500 q 263 453 263 474 l 263 453 q 249 417 263 431 q 214 404 235 404 l 214 404 z "},"•":{"ha":561,"x_min":151,"x_max":410,"o":"m 281 299 q 190 337 228 299 q 151 428 151 375 l 151 428 q 190 519 151 481 q 281 557 228 557 l 281 557 q 372 519 333 557 q 410 428 410 481 l 410 428 q 372 337 410 375 q 281 299 333 299 l 281 299 z "},"*":{"ha":631,"x_min":69,"x_max":560,"o":"m 140 540 l 131 547 q 129 563 122 553 l 129 563 l 275 746 l 78 861 q 74 876 69 868 l 74 876 l 81 888 q 96 892 86 897 l 96 892 l 292 789 l 297 1008 q 308 1019 297 1019 l 308 1019 l 322 1019 q 333 1008 333 1019 l 333 1008 l 338 789 l 535 892 q 550 888 544 897 l 550 888 l 557 876 q 558 867 560 872 q 553 861 557 863 l 553 861 l 356 746 l 501 563 q 500 547 508 553 l 500 547 l 490 540 q 475 542 481 533 l 475 542 l 315 721 l 156 542 q 140 540 150 533 l 140 540 z "},"#":{"ha":1039,"x_min":89,"x_max":951,"o":"m 229 0 l 211 0 q 203 3 206 0 q 201 13 200 7 l 201 13 l 271 296 l 100 296 q 90 308 89 296 l 90 308 l 96 328 q 108 338 99 338 l 108 338 l 282 338 l 367 682 l 196 682 q 186 694 185 682 l 186 694 l 192 714 q 204 724 194 724 l 204 724 l 376 724 l 447 1010 q 460 1019 450 1019 l 460 1019 l 479 1019 q 488 1016 485 1019 q 489 1007 490 1013 l 489 1007 l 418 724 l 725 724 l 796 1010 q 808 1019 799 1019 l 808 1019 l 828 1019 q 836 1016 833 1019 q 838 1007 839 1013 l 838 1007 l 767 724 l 939 724 q 949 711 951 724 l 949 711 l 943 692 q 931 682 940 682 l 931 682 l 757 682 l 672 338 l 843 338 q 853 325 856 338 l 853 325 l 847 306 q 835 296 844 296 l 835 296 l 661 296 l 590 10 q 578 0 588 0 l 578 0 l 560 0 q 551 3 554 0 q 550 13 549 7 l 550 13 l 619 296 l 313 296 l 242 10 q 229 0 239 0 l 229 0 z m 408 682 l 324 338 l 631 338 l 715 682 l 408 682 z "},"/":{"ha":503,"x_min":71,"x_max":433,"o":"m 104 -153 l 82 -153 q 72 -140 71 -153 l 72 -140 l 386 1032 q 399 1042 389 1042 l 399 1042 l 421 1042 q 431 1029 433 1042 l 431 1029 l 117 -143 q 104 -153 114 -153 l 104 -153 z "},"\\":{"ha":503,"x_min":72,"x_max":431,"o":"m 421 -153 l 399 -153 q 386 -143 389 -153 l 386 -143 l 72 1029 l 72 1032 q 82 1042 72 1042 l 82 1042 l 104 1042 q 117 1032 114 1042 l 117 1032 l 431 -140 l 431 -143 q 421 -153 431 -153 l 421 -153 z "},"(":{"ha":493,"x_min":81,"x_max":465,"o":"m 454 -208 q 81 444 81 -187 l 81 444 q 454 1097 81 1076 l 454 1097 q 465 1086 465 1097 l 465 1086 l 465 1067 q 454 1056 465 1056 l 454 1056 q 208 899 289 1047 q 126 444 126 750 l 126 444 q 208 -10 126 139 q 454 -167 289 -158 l 454 -167 q 465 -178 465 -167 l 465 -178 l 465 -197 q 454 -208 465 -208 l 454 -208 z "},")":{"ha":493,"x_min":28,"x_max":413,"o":"m 39 -208 q 28 -197 28 -208 l 28 -197 l 28 -178 q 39 -167 28 -167 l 39 -167 q 285 -10 204 -158 q 367 444 367 139 l 367 444 q 285 899 367 750 q 39 1056 204 1047 l 39 1056 q 28 1067 28 1056 l 28 1067 l 28 1086 q 39 1097 28 1097 l 39 1097 q 413 444 413 1076 l 413 444 q 39 -208 413 -187 l 39 -208 z "},"{":{"ha":519,"x_min":89,"x_max":492,"o":"m 481 -208 l 474 -208 q 277 -150 349 -208 q 206 33 206 -92 l 206 33 l 206 339 q 192 404 206 385 q 144 424 179 424 l 144 424 l 100 424 q 89 435 89 424 l 89 435 l 89 454 q 100 465 89 465 l 100 465 l 144 465 q 192 485 179 465 q 206 550 206 504 l 206 550 l 206 856 q 277 1039 206 981 q 474 1097 349 1097 l 474 1097 l 481 1097 q 492 1086 492 1097 l 492 1086 l 492 1067 q 481 1056 492 1056 l 481 1056 l 471 1056 q 301 1003 356 1056 q 247 840 247 950 l 247 840 l 247 542 q 237 475 247 501 q 206 444 226 449 l 206 444 q 237 412 226 438 q 247 347 247 386 l 247 347 l 247 49 q 301 -114 247 -61 q 471 -167 356 -167 l 471 -167 l 481 -167 q 492 -178 492 -167 l 492 -178 l 492 -197 q 481 -208 492 -208 l 481 -208 z "},"}":{"ha":519,"x_min":28,"x_max":431,"o":"m 46 -208 l 39 -208 q 28 -197 28 -208 l 28 -197 l 28 -178 q 39 -167 28 -167 l 39 -167 l 49 -167 q 218 -114 164 -167 q 272 49 272 -61 l 272 49 l 272 347 q 283 414 272 388 q 314 444 293 440 l 314 444 q 283 477 293 451 q 272 542 272 503 l 272 542 l 272 840 q 218 1003 272 950 q 49 1056 164 1056 l 49 1056 l 39 1056 q 28 1067 28 1056 l 28 1067 l 28 1086 q 39 1097 28 1097 l 39 1097 l 46 1097 q 242 1039 171 1097 q 314 856 314 981 l 314 856 l 314 550 q 327 485 314 504 q 375 465 340 465 l 375 465 l 419 465 q 431 454 431 465 l 431 454 l 431 435 q 419 424 431 424 l 419 424 l 375 424 q 327 404 340 424 q 314 339 314 385 l 314 339 l 314 33 q 242 -150 314 -92 q 46 -208 171 -208 l 46 -208 z "},"[":{"ha":379,"x_min":94,"x_max":351,"o":"m 340 -208 l 106 -208 q 94 -197 94 -208 l 94 -197 l 94 1086 q 106 1097 94 1097 l 106 1097 l 340 1097 q 351 1086 351 1097 l 351 1086 l 351 1068 q 340 1057 351 1057 l 340 1057 l 136 1057 l 136 -168 l 340 -168 q 351 -179 351 -168 l 351 -179 l 351 -197 q 340 -208 351 -208 l 340 -208 z "},"]":{"ha":379,"x_min":28,"x_max":285,"o":"m 274 -208 l 39 -208 q 28 -197 28 -208 l 28 -197 l 28 -179 q 39 -168 28 -168 l 39 -168 l 243 -168 l 243 1057 l 39 1057 q 28 1068 28 1057 l 28 1068 l 28 1086 q 39 1097 28 1097 l 39 1097 l 274 1097 q 285 1086 285 1097 l 285 1086 l 285 -197 q 274 -208 285 -208 l 274 -208 z "},"-":{"ha":654,"x_min":115,"x_max":539,"o":"m 528 432 l 126 432 q 115 443 115 432 l 115 443 l 115 463 q 126 474 115 474 l 126 474 l 528 474 q 539 463 539 474 l 539 463 l 539 443 q 528 432 539 432 l 528 432 z "},"­":{"ha":654,"x_min":115,"x_max":539,"o":"m 528 432 l 126 432 q 115 443 115 432 l 115 443 l 115 463 q 126 474 115 474 l 126 474 l 528 474 q 539 463 539 474 l 539 463 l 539 443 q 528 432 539 432 l 528 432 z "},"–":{"ha":694,"x_min":0,"x_max":694,"o":"m 683 432 l 11 432 q 0 443 0 432 l 0 443 l 0 463 q 11 474 0 474 l 11 474 l 683 474 q 694 463 694 474 l 694 463 l 694 443 q 683 432 694 432 l 683 432 z "},"—":{"ha":1389,"x_min":0,"x_max":1389,"o":"m 1378 432 l 11 432 q 0 443 0 432 l 0 443 l 0 463 q 11 474 0 474 l 11 474 l 1378 474 q 1389 463 1389 474 l 1389 463 l 1389 443 q 1378 432 1389 432 l 1378 432 z "},"‐":{"ha":654,"x_min":115,"x_max":539,"o":"m 528 432 l 126 432 q 115 443 115 432 l 115 443 l 115 463 q 126 474 115 474 l 126 474 l 528 474 q 539 463 539 474 l 539 463 l 539 443 q 528 432 539 432 l 528 432 z "},"‑":{"ha":654,"x_min":115,"x_max":539,"o":"m 528 432 l 126 432 q 115 443 115 432 l 115 443 l 115 463 q 126 474 115 474 l 126 474 l 528 474 q 539 463 539 474 l 539 463 l 539 443 q 528 432 539 432 l 528 432 z "},"_":{"ha":781,"x_min":69,"x_max":711,"o":"m 700 -164 l 79 -164 q 73 -160 76 -164 q 69 -153 69 -157 l 69 -153 l 69 -133 q 73 -126 69 -129 q 79 -122 76 -122 l 79 -122 l 700 -122 q 708 -126 704 -122 q 711 -133 711 -129 l 711 -133 l 711 -153 q 708 -160 711 -157 q 700 -164 704 -164 l 700 -164 z "},"“":{"ha":439,"x_min":75,"x_max":357,"o":"m 124 750 q 88 763 101 750 q 75 797 75 776 l 75 797 q 99 878 75 819 l 99 878 l 153 1013 q 163 1019 156 1019 l 163 1019 l 178 1019 q 185 1010 188 1019 l 185 1010 l 131 843 q 160 828 150 840 q 171 797 171 817 l 171 797 q 158 763 171 776 q 124 750 144 750 l 124 750 z m 293 750 q 258 763 271 750 q 244 797 244 776 l 244 797 q 268 878 244 819 l 268 878 l 322 1013 q 332 1019 325 1019 l 332 1019 l 347 1019 q 354 1010 357 1019 l 354 1010 l 300 843 q 330 828 319 840 q 340 797 340 817 l 340 797 q 327 763 340 776 q 293 750 314 750 l 293 750 z "},"”":{"ha":438,"x_min":82,"x_max":363,"o":"m 107 764 l 92 764 q 85 774 82 764 l 85 774 l 139 940 q 109 955 119 943 q 99 986 99 967 l 99 986 q 112 1020 99 1007 q 146 1033 125 1033 l 146 1033 q 181 1020 168 1033 q 194 986 194 1007 l 194 986 q 171 906 194 964 l 171 906 l 117 771 q 107 764 114 764 l 107 764 z m 275 764 l 260 764 q 253 774 250 764 l 253 774 l 307 940 q 277 955 288 943 q 267 986 267 967 l 267 986 q 280 1020 267 1007 q 314 1033 293 1033 l 314 1033 q 349 1020 336 1033 q 363 986 363 1007 l 363 986 q 339 906 363 964 l 339 906 l 285 771 q 275 764 282 764 l 275 764 z "},"‘":{"ha":269,"x_min":75,"x_max":188,"o":"m 124 750 q 88 763 101 750 q 75 797 75 776 l 75 797 q 99 878 75 819 l 99 878 l 153 1013 q 163 1019 156 1019 l 163 1019 l 178 1019 q 185 1010 188 1019 l 185 1010 l 131 843 q 160 828 150 840 q 171 797 171 817 l 171 797 q 158 763 171 776 q 124 750 144 750 l 124 750 z "},"’":{"ha":269,"x_min":82,"x_max":194,"o":"m 107 764 l 92 764 q 85 774 82 764 l 85 774 l 139 940 q 109 955 119 943 q 99 986 99 967 l 99 986 q 112 1020 99 1007 q 146 1033 125 1033 l 146 1033 q 181 1020 168 1033 q 194 986 194 1007 l 194 986 q 171 906 194 964 l 171 906 l 117 771 q 107 764 114 764 l 107 764 z "},"\"":{"ha":439,"x_min":113,"x_max":326,"o":"m 143 764 l 126 764 q 118 772 118 764 l 118 772 l 113 1011 q 121 1019 113 1019 l 121 1019 l 149 1019 q 157 1011 157 1019 l 157 1011 l 151 772 q 143 764 151 764 l 143 764 z m 313 764 l 296 764 q 288 772 288 764 l 288 772 l 282 1011 q 290 1019 282 1019 l 290 1019 l 318 1019 q 326 1011 326 1019 l 326 1011 l 321 772 q 313 764 321 764 l 313 764 z "},"'":{"ha":269,"x_min":113,"x_max":157,"o":"m 143 764 l 126 764 q 118 772 118 764 l 118 772 l 113 1011 q 121 1019 113 1019 l 121 1019 l 149 1019 q 157 1011 157 1019 l 157 1011 l 151 772 q 143 764 151 764 l 143 764 z "}," ":{"ha":1389,"x_min":null,"x_max":null,"o":""}," ":{"ha":1389,"x_min":null,"x_max":null,"o":""}," ":{"ha":694,"x_min":null,"x_max":null,"o":""}," ":{"ha":694,"x_min":null,"x_max":null,"o":""}," ":{"ha":833,"x_min":null,"x_max":null,"o":""}," ":{"ha":347,"x_min":null,"x_max":null,"o":""}," ":{"ha":231,"x_min":null,"x_max":null,"o":""}," ":{"ha":269,"x_min":null,"x_max":null,"o":""}," ":{"ha":232,"x_min":null,"x_max":null,"o":""}," ":{"ha":314,"x_min":null,"x_max":null,"o":""}," ":{"ha":278,"x_min":null,"x_max":null,"o":""}," ":{"ha":463,"x_min":null,"x_max":null,"o":""},"​":{"ha":0,"x_min":null,"x_max":null,"o":""},"‍":{"ha":0,"x_min":null,"x_max":null,"o":""},"‌":{"ha":0,"x_min":null,"x_max":null,"o":""},"⁠":{"ha":0,"x_min":null,"x_max":null,"o":""},"﻿":{"ha":0,"x_min":null,"x_max":null,"o":""},"฿":{"ha":776,"x_min":125,"x_max":697,"o":"m 697 299 q 622 119 697 183 q 406 50 547 56 l 406 50 l 406 -71 q 394 -82 406 -82 l 394 -82 l 374 -82 q 363 -71 363 -82 l 363 -71 l 363 50 l 136 50 q 125 61 125 50 l 125 61 l 125 958 q 136 969 125 969 l 136 969 l 363 969 l 363 1083 q 374 1094 363 1094 l 374 1094 l 394 1094 q 406 1083 406 1094 l 406 1083 l 406 968 q 588 901 525 960 q 650 739 650 843 l 650 739 q 608 603 650 657 q 493 533 567 549 l 493 533 q 646 456 594 515 q 697 299 697 397 l 697 299 z m 363 926 l 358 926 l 169 926 l 169 551 l 342 551 l 363 551 l 363 926 z m 606 739 q 406 925 606 907 l 406 925 l 406 554 q 555 612 504 565 q 606 739 606 658 l 606 739 z m 349 508 l 169 508 l 169 93 l 363 93 l 363 508 l 349 508 z m 406 507 l 406 94 q 588 153 525 100 q 651 299 651 206 l 651 299 q 590 446 651 394 q 406 507 529 497 l 406 507 z "},"¢":{"ha":722,"x_min":63,"x_max":669,"o":"m 394 0 l 374 0 q 363 11 363 0 l 363 11 l 363 143 q 204 197 272 150 q 99 321 136 243 q 63 497 63 399 l 63 497 q 99 673 63 594 q 204 798 136 751 q 363 851 272 844 l 363 851 l 363 1008 q 374 1019 363 1019 l 374 1019 l 394 1019 q 406 1008 406 1019 l 406 1008 l 406 853 q 563 806 499 850 q 660 678 628 761 l 660 678 l 661 672 q 653 664 661 667 l 653 664 l 635 658 q 631 657 633 657 l 631 657 q 621 665 624 657 l 621 665 q 406 811 564 806 l 406 811 l 406 183 q 628 338 565 189 l 628 338 q 642 343 632 347 l 642 343 l 660 336 q 665 321 669 332 l 665 321 q 565 190 632 235 q 406 142 499 144 l 406 142 l 406 11 q 394 0 406 0 l 394 0 z m 106 497 q 172 283 106 371 q 363 185 238 194 l 363 185 l 363 810 q 172 711 238 800 q 106 497 106 622 l 106 497 z "},"¤":{"ha":742,"x_min":61,"x_max":681,"o":"m 78 243 l 64 257 q 61 265 61 260 q 64 274 61 271 l 64 274 l 167 372 q 115 536 115 439 l 115 536 q 167 700 115 633 l 167 700 l 64 799 q 61 807 61 801 q 64 815 61 813 l 64 815 l 78 829 q 86 832 81 832 q 94 829 92 832 l 94 829 l 196 732 q 371 794 265 794 l 371 794 q 546 732 476 794 l 546 732 l 647 831 q 656 833 650 833 q 664 829 661 832 l 664 829 l 678 815 q 681 807 681 813 q 678 799 681 801 l 678 799 l 575 700 q 626 536 626 633 l 626 536 q 575 372 626 439 l 575 372 l 678 274 q 681 265 681 271 q 678 257 681 260 l 678 257 l 664 243 q 656 240 661 240 q 647 243 650 240 l 647 243 l 546 340 q 371 278 476 278 l 371 278 q 196 340 265 278 l 196 340 l 94 243 q 86 240 92 240 q 78 243 81 240 l 78 243 z m 371 321 q 523 381 464 321 q 582 536 582 440 l 582 536 q 523 692 582 632 q 371 751 464 751 l 371 751 q 219 692 278 751 q 160 536 160 632 l 160 536 q 219 381 160 440 q 371 321 278 321 l 371 321 z "},"$":{"ha":776,"x_min":65,"x_max":697,"o":"m 414 -82 l 393 -82 q 382 -71 382 -82 l 382 -71 l 382 43 q 180 104 258 47 q 65 275 101 161 l 65 275 l 65 278 q 74 289 65 285 l 74 289 l 94 296 l 99 297 q 108 288 106 297 l 108 288 q 209 138 142 186 q 382 88 276 90 l 382 88 l 382 511 l 346 521 q 170 611 231 551 q 110 750 110 671 l 110 750 q 144 862 110 813 q 241 940 179 911 q 382 969 303 968 l 382 969 l 382 1083 q 393 1094 382 1094 l 393 1094 l 414 1094 q 425 1083 425 1094 l 425 1083 l 425 968 q 601 908 532 961 q 697 760 671 856 l 697 760 l 697 757 q 689 746 697 750 l 689 746 l 668 739 l 665 739 q 654 747 657 739 l 654 747 q 572 873 628 831 q 425 922 515 915 l 425 922 l 425 543 l 444 538 q 697 275 697 468 l 697 275 q 622 114 697 178 q 425 43 546 50 l 425 43 l 425 -71 q 414 -82 425 -82 l 414 -82 z m 382 556 l 382 924 q 219 872 282 921 q 157 750 157 824 l 157 750 q 360 561 157 618 l 360 561 l 382 556 z m 425 500 l 425 89 q 588 145 526 94 q 650 274 650 196 l 650 274 q 429 499 650 439 l 429 499 l 425 500 z "},"€":{"ha":964,"x_min":56,"x_max":875,"o":"m 174 390 l 67 390 q 56 401 56 390 l 56 401 l 56 422 q 67 433 56 433 l 67 433 l 169 433 q 167 510 167 483 l 167 510 q 169 586 167 536 l 169 586 l 67 586 q 56 597 56 586 l 56 597 l 56 618 q 67 629 56 629 l 67 629 l 174 629 q 290 931 196 824 q 533 1039 385 1039 l 533 1039 q 726 981 646 1039 q 850 819 807 924 l 850 819 q 851 815 851 818 l 851 815 q 844 806 851 808 l 844 806 l 824 797 q 819 796 822 796 l 819 796 q 810 803 813 796 l 810 803 q 701 946 768 897 q 533 994 633 994 l 533 994 q 322 900 403 994 q 219 629 240 806 l 219 629 l 600 629 q 611 618 611 629 l 611 618 l 611 597 q 600 586 611 586 l 600 586 l 215 586 q 213 510 213 536 l 213 510 q 215 433 213 483 l 215 433 l 600 433 q 611 422 611 433 l 611 422 l 611 401 q 600 390 611 390 l 600 390 l 219 390 q 322 119 240 214 q 533 25 403 25 l 533 25 q 832 267 757 25 l 832 267 q 846 274 835 278 l 846 274 l 865 267 q 872 251 875 263 l 872 251 q 744 51 831 122 q 533 -19 657 -19 l 533 -19 q 290 88 385 -19 q 174 390 196 196 l 174 390 z "},"£":{"ha":844,"x_min":100,"x_max":761,"o":"m 744 0 l 125 0 q 114 11 114 0 l 114 11 l 114 18 q 118 32 114 24 l 118 32 q 194 196 175 129 q 214 361 214 263 l 214 361 q 203 465 214 406 l 203 465 l 111 465 q 100 476 100 465 l 100 476 l 100 497 q 111 508 100 508 l 111 508 l 196 508 l 189 547 q 164 742 164 678 l 164 742 q 241 958 164 878 q 450 1039 318 1039 l 450 1039 q 647 980 565 1039 q 761 814 728 921 l 761 814 l 761 811 q 753 800 761 803 l 753 800 l 731 794 l 728 794 q 717 801 719 794 l 717 801 q 617 944 686 894 q 451 994 549 994 l 451 994 q 274 928 338 994 q 210 742 210 861 l 210 742 q 217 652 210 699 q 238 538 224 606 l 238 538 l 243 508 l 515 508 q 526 497 526 508 l 526 497 l 526 476 q 515 465 526 465 l 515 465 l 250 465 q 260 361 260 403 l 260 361 q 241 205 260 272 q 169 43 222 138 l 169 43 l 744 43 q 756 32 756 43 l 756 32 l 756 11 q 744 0 756 0 l 744 0 z "},"¥":{"ha":896,"x_min":42,"x_max":856,"o":"m 426 224 l 182 224 q 171 235 171 224 l 171 235 l 171 256 q 182 267 171 267 l 182 267 l 426 267 l 426 410 l 182 410 q 171 421 171 410 l 171 421 l 171 442 q 182 453 171 453 l 182 453 l 401 453 l 43 1006 q 42 1011 42 1007 l 42 1011 q 44 1017 42 1014 q 51 1019 47 1019 l 51 1019 l 74 1019 q 86 1013 83 1019 l 86 1013 l 449 454 l 811 1013 q 824 1019 815 1019 l 824 1019 l 844 1019 q 853 1015 851 1019 q 853 1006 856 1011 l 853 1006 l 494 453 l 715 453 q 726 442 726 453 l 726 442 l 726 421 q 715 410 726 410 l 715 410 l 471 410 l 471 267 l 715 267 q 726 256 726 267 l 726 256 l 726 235 q 715 224 726 224 l 715 224 l 471 224 l 471 11 q 460 0 471 0 l 460 0 l 438 0 q 426 11 426 0 l 426 11 l 426 224 z "},"+":{"ha":833,"x_min":100,"x_max":733,"o":"m 428 135 l 406 135 q 398 138 401 135 q 394 146 394 142 l 394 146 l 394 432 l 111 432 q 103 435 107 432 q 100 443 100 439 l 100 443 l 100 463 q 103 470 100 467 q 111 474 107 474 l 111 474 l 394 474 l 394 760 q 398 767 394 764 q 406 771 401 771 l 406 771 l 428 771 q 435 767 432 771 q 439 760 439 764 l 439 760 l 439 474 l 722 474 q 730 470 726 474 q 733 463 733 467 l 733 463 l 733 443 q 730 435 733 439 q 722 432 726 432 l 722 432 l 439 432 l 439 146 q 435 138 439 142 q 428 135 432 135 l 428 135 z "},"−":{"ha":833,"x_min":100,"x_max":733,"o":"m 722 432 l 111 432 q 103 435 107 432 q 100 443 100 439 l 100 443 l 100 463 q 103 470 100 467 q 111 474 107 474 l 111 474 l 722 474 q 730 470 726 474 q 733 463 733 467 l 733 463 l 733 443 q 730 435 733 439 q 722 432 726 432 l 722 432 z "},"×":{"ha":833,"x_min":144,"x_max":689,"o":"m 167 190 l 154 204 q 154 219 147 213 l 154 219 l 389 456 l 151 692 q 151 707 144 699 l 151 707 l 165 722 q 174 726 168 726 q 182 722 179 725 l 182 722 l 419 486 l 653 721 q 661 724 656 724 q 669 721 667 725 l 669 721 l 682 707 q 681 690 689 699 l 681 690 l 449 457 l 682 224 q 682 208 689 217 l 682 208 l 668 193 q 660 190 665 189 q 651 193 654 190 l 651 193 l 418 426 l 183 190 q 175 187 181 188 q 167 190 169 186 l 167 190 z "},"÷":{"ha":833,"x_min":100,"x_max":733,"o":"m 410 665 q 377 678 390 665 q 364 711 364 690 l 364 711 q 377 743 364 731 q 410 756 390 756 l 410 756 q 442 743 429 756 q 456 711 456 731 l 456 711 q 442 678 456 690 q 410 665 429 665 l 410 665 z m 722 432 l 111 432 q 103 435 107 432 q 100 443 100 439 l 100 443 l 100 463 q 103 470 100 467 q 111 474 107 474 l 111 474 l 722 474 q 730 470 726 474 q 733 463 733 467 l 733 463 l 733 443 q 730 435 733 439 q 722 432 726 432 l 722 432 z m 410 139 q 377 151 390 139 q 364 185 364 164 l 364 185 q 377 217 364 204 q 410 229 390 229 l 410 229 q 442 217 429 229 q 456 185 456 204 l 456 185 q 442 151 456 164 q 410 139 429 139 l 410 139 z "},"=":{"ha":833,"x_min":100,"x_max":733,"o":"m 722 621 l 111 621 q 103 624 107 621 q 100 632 100 628 l 100 632 l 100 651 q 103 659 100 656 q 111 663 107 663 l 111 663 l 722 663 q 730 659 726 663 q 733 651 733 656 l 733 651 l 733 632 q 730 624 733 628 q 722 621 726 621 l 722 621 z m 722 264 l 111 264 q 103 267 107 264 q 100 275 100 271 l 100 275 l 100 294 q 103 302 100 299 q 111 306 107 306 l 111 306 l 722 306 q 730 302 726 306 q 733 294 733 299 l 733 294 l 733 275 q 730 267 733 271 q 722 264 726 264 l 722 264 z "},">":{"ha":833,"x_min":138,"x_max":711,"o":"m 703 432 l 150 151 q 144 150 149 150 l 144 150 q 138 160 138 150 l 138 160 l 138 181 q 146 193 138 189 l 146 193 l 661 453 l 146 711 q 138 724 138 715 l 138 724 l 138 746 q 141 755 138 753 q 150 754 144 757 l 150 754 l 703 474 q 711 461 711 469 l 711 461 l 711 444 q 703 432 711 436 l 703 432 z "},"<":{"ha":833,"x_min":122,"x_max":696,"o":"m 696 182 l 696 160 q 692 151 696 153 q 683 151 689 149 l 683 151 l 131 432 q 122 444 122 436 l 122 444 l 122 461 q 131 474 122 469 l 131 474 l 683 754 q 689 756 685 756 l 689 756 q 696 746 696 756 l 696 746 l 696 725 q 688 713 696 717 l 688 713 l 172 454 l 688 194 q 696 182 696 190 l 696 182 z "},"~":{"ha":833,"x_min":79,"x_max":754,"o":"m 574 318 q 491 335 524 318 q 440 377 458 353 q 399 443 421 401 l 399 443 q 342 523 369 496 q 261 550 314 550 l 261 550 q 161 499 200 550 q 117 358 122 447 l 117 358 q 106 347 117 347 l 106 347 l 90 347 q 79 358 79 347 l 79 358 q 131 526 82 464 q 260 589 179 589 l 260 589 q 342 572 310 589 q 394 530 375 554 q 435 464 413 506 l 435 464 q 492 384 464 411 q 572 357 519 357 l 572 357 q 672 408 633 357 q 717 549 711 460 l 717 549 q 728 560 717 560 l 728 560 l 743 560 q 754 544 754 560 l 754 544 q 701 380 750 442 q 574 318 653 318 l 574 318 z "},"¬":{"ha":833,"x_min":88,"x_max":660,"o":"m 649 222 l 626 222 q 615 233 615 222 l 615 233 l 615 501 l 99 501 q 88 513 88 501 l 88 513 l 88 532 q 99 543 88 543 l 99 543 l 649 543 q 660 532 660 543 l 660 532 l 660 233 q 649 222 660 222 l 649 222 z "},"^":{"ha":833,"x_min":117,"x_max":715,"o":"m 150 488 l 128 488 q 119 492 122 488 q 119 501 117 496 l 119 501 l 396 1011 q 408 1019 400 1019 l 408 1019 l 425 1019 q 438 1011 433 1019 l 438 1011 l 714 501 q 715 496 715 500 l 715 496 q 713 490 715 493 q 706 488 710 488 l 706 488 l 685 488 q 672 496 676 488 l 672 496 l 417 969 l 163 496 q 150 488 158 488 l 150 488 z "},"%":{"ha":1222,"x_min":51,"x_max":1171,"o":"m 271 447 q 110 525 168 447 q 51 740 51 603 l 51 740 q 110 956 51 878 q 271 1033 168 1033 l 271 1033 q 432 956 374 1033 q 490 740 490 878 l 490 740 q 432 525 490 603 q 271 447 374 447 l 271 447 z m 303 0 l 279 0 q 272 4 274 0 q 272 14 269 8 l 272 14 l 907 1013 q 913 1018 910 1017 q 919 1019 915 1019 l 919 1019 l 943 1019 q 951 1015 949 1019 q 950 1006 953 1011 l 950 1006 l 315 7 q 303 0 310 0 l 303 0 z m 271 489 q 401 554 356 489 q 447 740 447 619 l 447 740 q 401 926 447 861 q 271 992 356 992 l 271 992 q 140 926 186 992 q 94 740 94 861 l 94 740 q 140 554 94 619 q 271 489 186 489 l 271 489 z m 951 -14 q 790 64 849 -14 q 732 279 732 142 l 732 279 q 790 494 732 417 q 951 572 849 572 l 951 572 q 1113 494 1054 572 q 1171 279 1171 417 l 1171 279 q 1113 64 1171 142 q 951 -14 1054 -14 l 951 -14 z m 951 28 q 1082 93 1036 28 q 1128 279 1128 158 l 1128 279 q 1082 465 1128 400 q 951 531 1036 531 l 951 531 q 821 465 867 531 q 775 279 775 400 l 775 279 q 821 93 775 158 q 951 28 867 28 l 951 28 z "},"‰":{"ha":1764,"x_min":51,"x_max":1713,"o":"m 271 447 q 110 525 168 447 q 51 740 51 603 l 51 740 q 110 956 51 878 q 271 1033 168 1033 l 271 1033 q 432 956 374 1033 q 490 740 490 878 l 490 740 q 432 525 490 603 q 271 447 374 447 l 271 447 z m 303 0 l 279 0 q 272 4 274 0 q 272 14 269 8 l 272 14 l 907 1013 q 913 1018 910 1017 q 919 1019 915 1019 l 919 1019 l 943 1019 q 951 1015 949 1019 q 950 1006 953 1011 l 950 1006 l 315 7 q 303 0 310 0 l 303 0 z m 271 489 q 401 554 356 489 q 447 740 447 619 l 447 740 q 401 926 447 861 q 271 992 356 992 l 271 992 q 140 926 186 992 q 94 740 94 861 l 94 740 q 140 554 94 619 q 271 489 186 489 l 271 489 z m 951 -14 q 790 64 849 -14 q 732 279 732 142 l 732 279 q 790 494 732 417 q 951 572 849 572 l 951 572 q 1113 494 1054 572 q 1171 279 1171 417 l 1171 279 q 1113 64 1171 142 q 951 -14 1054 -14 l 951 -14 z m 1493 -14 q 1332 64 1390 -14 q 1274 279 1274 142 l 1274 279 q 1332 494 1274 417 q 1493 572 1390 572 l 1493 572 q 1654 494 1596 572 q 1713 279 1713 417 l 1713 279 q 1654 64 1713 142 q 1493 -14 1596 -14 l 1493 -14 z m 951 28 q 1082 93 1036 28 q 1128 279 1128 158 l 1128 279 q 1082 465 1128 400 q 951 531 1036 531 l 951 531 q 821 465 867 531 q 775 279 775 400 l 775 279 q 821 93 775 158 q 951 28 867 28 l 951 28 z m 1493 28 q 1624 93 1578 28 q 1669 279 1669 158 l 1669 279 q 1624 465 1669 400 q 1493 531 1578 531 l 1493 531 q 1363 465 1408 531 q 1317 279 1317 400 l 1317 279 q 1363 93 1317 158 q 1493 28 1408 28 l 1493 28 z "},"✉":{"ha":1389,"x_min":249,"x_max":1138,"o":"m 1031 106 l 358 106 q 281 137 313 106 q 249 214 249 168 l 249 214 l 249 743 q 281 822 249 789 q 358 854 313 854 l 358 854 l 1031 854 q 1106 822 1075 854 q 1138 743 1138 789 l 1138 743 l 1138 214 q 1106 138 1138 169 q 1031 106 1075 106 l 1031 106 z m 693 419 l 1019 694 q 1031 717 1031 703 l 1031 717 q 1024 733 1031 725 q 1006 742 1018 742 l 1006 742 q 988 735 996 742 l 988 735 l 693 486 l 399 735 q 381 742 389 742 l 381 742 q 362 733 368 742 q 356 717 356 725 l 356 717 q 367 694 356 703 l 367 694 l 693 419 z "},"@":{"ha":1294,"x_min":83,"x_max":1211,"o":"m 649 -251 q 348 -182 475 -251 q 152 15 221 -112 q 83 311 83 142 l 83 311 q 153 608 83 481 q 353 804 224 735 q 656 874 482 874 l 656 874 q 952 805 826 874 q 1144 609 1078 736 q 1211 313 1211 482 l 1211 313 q 1185 146 1211 221 q 1113 28 1160 71 q 1004 -15 1065 -15 l 1004 -15 q 907 23 940 -15 q 874 135 874 61 l 874 135 q 776 28 843 69 q 629 -14 708 -14 l 629 -14 q 472 26 540 -14 q 366 139 404 67 q 328 304 328 211 l 328 304 q 366 469 328 397 q 472 582 404 542 q 629 622 540 622 l 629 622 q 781 578 711 622 q 878 465 850 535 l 878 465 l 883 599 q 894 610 883 610 l 894 610 l 906 610 q 917 599 917 610 l 917 599 l 917 142 q 938 53 917 81 q 1004 26 958 26 l 1004 26 q 1090 64 1053 26 q 1148 167 1128 101 q 1168 311 1168 232 l 1168 311 q 1103 595 1168 478 q 922 772 1038 713 q 656 832 806 832 l 656 832 q 383 772 503 832 q 194 595 263 713 q 126 311 126 478 l 126 311 q 193 27 126 144 q 378 -150 260 -90 q 649 -210 496 -210 l 649 -210 q 768 -199 706 -210 l 768 -199 l 771 -199 q 781 -208 781 -199 l 781 -208 l 781 -228 q 772 -239 781 -237 l 772 -239 q 649 -251 718 -251 l 649 -251 z m 626 28 q 812 103 742 28 q 882 304 882 179 l 882 304 q 812 505 882 429 q 626 581 742 581 l 626 581 q 441 505 511 581 q 371 304 371 429 l 371 304 q 441 103 371 179 q 626 28 511 28 l 626 28 z "},"&":{"ha":935,"x_min":94,"x_max":879,"o":"m 435 -19 q 249 21 326 -19 q 133 129 172 61 q 94 278 94 197 l 94 278 q 144 448 94 381 q 293 540 194 515 l 293 540 q 168 628 211 564 q 125 778 125 693 l 125 778 q 165 911 125 851 q 272 1005 204 971 q 425 1039 340 1039 l 425 1039 q 619 977 536 1039 q 728 815 701 915 l 728 815 l 728 811 q 721 801 728 806 l 721 801 l 700 794 l 696 794 q 686 803 689 794 l 686 803 q 590 943 658 892 q 425 994 521 994 l 425 994 q 295 967 353 994 q 204 889 238 939 q 171 778 171 839 l 171 778 q 231 623 171 685 q 389 561 290 561 l 389 561 l 449 561 q 460 550 460 561 l 460 550 l 460 529 q 449 518 460 518 l 449 518 l 396 518 q 208 453 275 518 q 140 278 140 388 l 140 278 q 174 149 140 206 q 274 58 208 92 q 435 25 340 25 l 435 25 q 670 98 590 25 q 750 292 750 171 l 750 292 q 731 403 750 350 q 681 488 713 456 q 615 519 650 519 l 615 519 l 603 519 q 592 531 592 519 l 592 531 l 592 550 q 603 561 592 561 l 603 561 l 868 561 q 879 550 879 561 l 879 550 l 879 529 q 868 518 879 518 l 868 518 l 694 518 q 769 431 742 489 q 796 292 796 372 l 796 292 q 756 133 796 203 q 635 22 715 63 q 435 -19 554 -19 l 435 -19 z "},"¶":{"ha":763,"x_min":83,"x_max":610,"o":"m 474 -125 l 454 -125 q 443 -114 443 -125 l 443 -114 l 443 361 l 404 361 q 241 400 314 361 q 126 513 168 439 q 83 690 83 588 l 83 690 q 126 867 83 793 q 241 981 168 942 q 404 1019 314 1019 l 404 1019 l 599 1019 q 610 1008 610 1019 l 610 1008 l 610 -114 q 599 -125 610 -125 l 599 -125 l 579 -125 q 568 -114 568 -125 l 568 -114 l 568 979 l 485 979 l 485 -114 q 474 -125 485 -125 l 474 -125 z "},"§":{"ha":693,"x_min":96,"x_max":599,"o":"m 307 -147 q 183 -108 236 -147 q 97 10 129 -69 l 97 10 q 96 15 96 11 l 96 15 q 104 25 96 24 l 104 25 l 124 32 l 128 32 q 138 25 135 32 l 138 25 q 208 -74 167 -43 q 307 -106 249 -106 l 307 -106 q 420 -65 378 -106 q 463 38 463 -25 l 463 38 q 417 200 463 118 l 417 200 q 350 193 382 193 l 350 193 q 169 264 238 193 q 101 446 101 335 l 101 446 q 135 582 101 522 q 229 672 168 642 l 229 672 q 176 854 176 760 l 176 854 q 231 985 176 932 q 375 1039 286 1039 l 375 1039 q 499 1000 446 1039 q 585 882 553 961 l 585 882 q 586 876 586 881 l 586 876 q 578 867 586 869 l 578 867 l 558 860 l 554 860 q 544 867 549 860 l 544 867 q 474 966 515 935 q 375 997 433 997 l 375 997 q 262 957 304 997 q 219 854 219 917 l 219 854 q 268 688 219 771 l 268 688 q 350 699 308 699 l 350 699 q 531 628 463 699 q 599 446 599 557 l 599 446 q 561 303 599 364 q 456 214 524 242 l 456 214 q 506 38 506 129 l 506 38 q 451 -94 506 -40 q 307 -147 396 -147 l 307 -147 z m 350 235 q 498 293 440 235 q 556 446 556 351 l 556 446 q 498 599 556 540 q 350 657 440 657 l 350 657 q 202 599 260 657 q 144 446 144 540 l 144 446 q 202 293 144 351 q 350 235 260 235 l 350 235 z "},"©":{"ha":1200,"x_min":83,"x_max":1117,"o":"m 600 -19 q 333 48 451 -19 q 149 235 215 115 q 83 510 83 356 l 83 510 q 149 784 83 664 q 333 972 215 904 q 600 1039 451 1039 l 600 1039 q 867 972 749 1039 q 1051 784 985 904 q 1117 510 1117 664 l 1117 510 q 1051 235 1117 356 q 867 48 985 115 q 600 -19 749 -19 l 600 -19 z m 600 25 q 850 90 743 25 q 1014 266 957 156 q 1071 510 1071 376 l 1071 510 q 1014 753 1071 643 q 850 929 957 864 q 600 994 743 994 l 600 994 q 350 929 457 994 q 186 753 243 864 q 129 510 129 643 l 129 510 q 186 266 129 376 q 350 90 243 156 q 600 25 457 25 l 600 25 z m 603 224 q 408 303 479 224 q 336 510 336 382 l 336 510 q 369 657 336 592 q 464 759 403 722 q 603 796 525 796 l 603 796 q 739 760 682 796 q 824 657 796 725 l 824 657 q 825 651 825 656 l 825 651 q 817 643 825 646 l 817 643 l 796 639 l 792 639 q 782 646 786 639 l 782 646 q 713 726 758 699 q 603 753 667 753 l 603 753 q 438 683 496 753 q 381 510 381 613 l 381 510 q 437 336 381 406 q 603 267 493 267 l 603 267 q 717 297 669 267 q 788 381 764 326 l 788 381 q 801 388 792 392 l 801 388 l 821 381 q 828 367 832 376 l 828 367 q 741 260 800 296 q 603 224 682 224 l 603 224 z "},"®":{"ha":881,"x_min":83,"x_max":797,"o":"m 440 326 q 256 372 338 326 q 129 500 175 418 q 83 686 83 582 l 83 686 q 129 872 83 790 q 256 1000 175 954 q 440 1046 338 1046 l 440 1046 q 624 1000 543 1046 q 751 872 706 954 q 797 686 797 790 l 797 686 q 751 500 797 582 q 624 372 706 418 q 440 326 543 326 l 440 326 z m 440 368 q 607 411 536 368 q 716 526 678 454 q 754 686 754 599 l 754 686 q 716 846 754 774 q 607 961 678 918 q 440 1004 536 1004 l 440 1004 q 274 961 344 1004 q 165 846 203 918 q 126 686 126 774 l 126 686 q 165 526 126 599 q 274 411 203 454 q 440 368 344 368 l 440 368 z m 360 528 l 342 528 q 331 539 331 528 l 331 539 l 331 858 q 342 869 331 869 l 342 869 l 436 869 q 534 841 503 869 q 565 764 565 813 l 565 764 q 494 663 565 685 l 494 663 l 568 542 q 569 535 569 539 l 569 535 q 561 528 569 528 l 561 528 l 539 528 q 526 535 531 528 l 526 535 l 454 656 l 436 656 l 371 656 l 371 539 q 360 528 371 528 l 360 528 z m 435 831 l 371 831 l 371 694 l 435 694 q 503 711 482 694 q 524 764 524 728 l 524 764 q 503 814 524 797 q 435 831 482 831 l 435 831 z "},"™":{"ha":1278,"x_min":36,"x_max":1208,"o":"m 283 458 l 264 458 q 253 469 253 458 l 253 469 l 253 979 l 47 979 q 36 990 36 979 l 36 990 l 36 1008 q 47 1019 36 1019 l 47 1019 l 500 1019 q 511 1008 511 1019 l 511 1008 l 511 990 q 500 979 511 979 l 500 979 l 294 979 l 294 469 q 283 458 294 458 l 283 458 z m 639 458 l 619 458 q 608 469 608 458 l 608 469 l 608 1008 q 619 1019 608 1019 l 619 1019 l 646 1019 q 658 1013 656 1019 l 658 1013 l 910 615 l 1160 1013 q 1172 1019 1164 1019 l 1172 1019 l 1197 1019 q 1208 1008 1208 1019 l 1208 1008 l 1208 469 q 1197 458 1208 458 l 1197 458 l 1178 458 q 1167 469 1167 458 l 1167 469 l 1167 949 l 929 572 q 917 565 926 565 l 917 565 l 900 565 q 888 572 892 565 l 888 572 l 650 949 l 650 469 q 639 458 650 458 l 639 458 z "},"°":{"ha":547,"x_min":83,"x_max":464,"o":"m 274 653 q 135 707 188 653 q 83 846 83 761 l 83 846 q 135 985 83 931 q 274 1039 188 1039 l 274 1039 q 412 985 360 1039 q 464 846 464 931 l 464 846 q 412 707 464 761 q 274 653 360 653 l 274 653 z m 274 690 q 383 733 340 690 q 425 846 425 775 l 425 846 q 383 959 425 917 q 274 1001 340 1001 l 274 1001 q 165 959 207 1001 q 122 846 122 917 l 122 846 q 165 733 122 775 q 274 690 207 690 l 274 690 z "},"|":{"ha":344,"x_min":151,"x_max":193,"o":"m 182 -153 l 163 -153 q 155 -149 158 -153 q 151 -142 151 -146 l 151 -142 l 151 1031 q 155 1038 151 1035 q 163 1042 158 1042 l 163 1042 l 182 1042 q 190 1038 186 1042 q 193 1031 193 1035 l 193 1031 l 193 -142 q 190 -149 193 -146 q 182 -153 186 -153 l 182 -153 z "},"†":{"ha":647,"x_min":83,"x_max":564,"o":"m 336 -125 l 311 -125 q 303 -117 303 -125 l 303 -117 l 303 664 l 92 664 q 83 672 83 664 l 83 672 l 83 696 q 92 704 83 704 l 92 704 l 303 704 l 303 1011 q 311 1019 303 1019 l 311 1019 l 336 1019 q 344 1011 344 1019 l 344 1011 l 344 704 l 556 704 q 564 696 564 704 l 564 696 l 564 672 q 556 664 564 664 l 556 664 l 344 664 l 344 -117 q 336 -125 344 -125 l 336 -125 z "},"‡":{"ha":647,"x_min":83,"x_max":564,"o":"m 303 204 l 92 204 q 83 213 83 204 l 83 213 l 83 236 q 92 244 83 244 l 92 244 l 303 244 l 303 664 l 92 664 q 83 672 83 664 l 83 672 l 83 696 q 92 704 83 704 l 92 704 l 303 704 l 303 1011 q 311 1019 303 1019 l 311 1019 l 336 1019 q 344 1011 344 1019 l 344 1011 l 344 704 l 556 704 q 564 696 564 704 l 564 696 l 564 672 q 556 664 564 664 l 556 664 l 344 664 l 344 244 l 556 244 q 564 236 564 244 l 564 236 l 564 213 q 556 204 564 204 l 556 204 l 344 204 l 344 -117 q 336 -125 344 -125 l 336 -125 l 311 -125 q 303 -117 303 -125 l 303 -117 l 303 204 z "},"🎵":{"ha":1389,"x_min":275,"x_max":1025,"o":"m 404 49 q 313 88 351 49 q 275 179 275 126 l 275 179 q 313 274 275 235 q 404 314 351 314 l 404 314 q 472 296 436 314 l 472 296 l 472 744 q 485 781 472 764 q 517 803 499 797 l 517 803 l 951 918 q 965 919 956 919 l 965 919 q 1007 902 989 919 q 1025 863 1025 885 l 1025 863 l 1025 313 q 986 217 1025 257 q 890 178 947 178 l 890 178 q 798 216 836 178 q 760 313 760 254 l 760 313 q 799 404 760 365 q 890 443 838 443 l 890 443 q 960 425 925 443 l 960 425 l 960 724 l 540 611 l 540 179 q 500 88 540 126 q 404 49 460 49 l 404 49 z "},"👤":{"ha":1389,"x_min":261,"x_max":1129,"o":"m 261 0 l 261 126 q 278 192 261 161 q 324 242 294 224 l 324 242 l 565 392 q 581 422 581 401 l 581 422 q 574 454 581 440 q 567 471 568 468 l 567 471 l 535 531 q 526 547 531 538 q 514 569 521 557 l 514 569 q 481 608 492 583 q 469 658 469 633 l 469 658 q 482 707 469 682 l 482 707 q 545 874 486 810 q 696 938 604 938 l 696 938 q 847 874 788 938 q 908 707 906 810 l 908 707 q 921 658 921 682 l 921 658 q 910 608 921 633 q 876 569 899 583 l 876 569 q 865 547 869 557 q 856 531 860 538 l 856 531 l 824 471 q 810 422 810 440 l 810 422 q 825 392 810 401 l 825 392 l 1067 243 q 1113 193 1096 225 q 1129 126 1129 161 l 1129 126 l 1129 0 l 261 0 z "},"💬":{"ha":1389,"x_min":260,"x_max":1128,"o":"m 485 22 l 453 54 q 319 239 379 128 q 260 475 260 350 l 260 475 q 314 709 260 608 q 467 864 368 810 q 700 918 567 918 l 700 918 q 926 872 829 918 q 1075 740 1022 825 q 1128 539 1128 654 l 1128 539 q 1077 346 1128 435 q 939 205 1026 257 q 749 153 851 153 l 749 153 l 632 153 q 553 126 586 153 q 503 61 521 100 l 503 61 l 485 22 z m 513 467 q 544 481 531 467 q 558 513 558 494 l 558 513 q 545 547 558 533 q 513 560 532 560 l 513 560 q 481 547 493 560 q 468 513 468 533 l 468 513 q 481 481 468 494 q 513 467 494 467 l 513 467 z m 690 467 q 722 481 708 467 q 736 513 736 494 l 736 513 q 722 547 736 533 q 690 560 708 560 l 690 560 q 658 547 671 560 q 646 513 646 533 l 646 513 q 659 481 646 494 q 690 467 672 467 l 690 467 z m 868 467 q 899 481 886 467 q 913 513 913 494 l 913 513 q 899 547 913 533 q 868 560 886 560 l 868 560 q 835 547 847 560 q 822 513 822 533 l 822 513 q 835 481 822 494 q 868 467 849 467 l 868 467 z "},"📞":{"ha":1389,"x_min":236,"x_max":1154,"o":"m 940 19 q 720 83 839 19 q 483 265 601 147 l 483 265 q 303 507 369 379 q 236 732 236 635 l 236 732 q 272 839 236 801 l 272 839 l 342 910 q 411 938 369 938 l 411 938 q 490 903 460 938 l 490 903 l 597 781 q 611 744 611 764 l 611 744 q 592 704 611 724 l 592 704 l 499 608 q 540 526 500 582 q 633 417 581 469 l 633 417 q 742 326 685 365 q 824 283 799 286 l 824 283 l 918 378 q 961 396 936 396 l 961 396 q 1000 381 982 396 l 1000 381 l 1121 272 q 1154 197 1154 243 l 1154 197 q 1126 128 1154 156 l 1126 128 l 1057 57 q 1009 29 1040 39 q 940 19 978 19 l 940 19 z "},"📷":{"ha":1389,"x_min":250,"x_max":1138,"o":"m 1079 81 l 307 81 q 267 98 283 81 q 250 139 250 115 l 250 139 l 250 775 q 267 817 250 800 q 307 835 283 835 l 307 835 l 479 835 l 524 899 q 574 924 540 924 l 574 924 l 813 924 q 838 917 825 924 q 858 900 850 911 l 858 900 l 908 835 l 1079 835 q 1120 817 1103 835 q 1138 775 1138 800 l 1138 775 l 1138 139 q 1120 98 1138 115 q 1079 81 1103 81 l 1079 81 z m 693 267 q 789 292 744 267 q 859 362 833 318 q 885 457 885 406 l 885 457 q 859 554 885 510 q 789 624 833 599 q 693 650 744 650 l 693 650 q 598 624 642 650 q 528 554 554 599 q 503 457 503 510 l 503 457 q 528 362 503 406 q 598 292 554 318 q 693 267 642 267 l 693 267 z m 693 317 q 594 358 636 317 q 551 457 551 400 l 551 457 q 593 557 551 515 q 693 599 635 599 l 693 599 q 793 558 751 599 q 835 457 835 517 l 835 457 q 793 358 835 400 q 693 317 751 317 l 693 317 z "},"🔈":{"ha":1389,"x_min":199,"x_max":1189,"o":"m 785 21 q 760 29 771 21 l 760 29 l 514 268 l 232 268 q 208 277 218 268 q 199 299 199 286 l 199 299 l 199 658 q 208 681 199 672 q 232 690 218 690 l 232 690 l 514 690 l 760 929 q 786 940 771 940 l 786 940 q 808 930 799 940 q 817 904 817 919 l 817 904 l 817 51 q 809 28 817 35 q 785 21 801 21 l 785 21 z m 1022 169 l 988 226 q 1088 333 1051 267 q 1125 475 1125 399 l 1125 475 q 988 722 1125 626 l 988 722 l 1022 778 q 1144 647 1099 729 q 1189 475 1189 565 l 1189 475 q 1145 301 1189 381 q 1022 169 1101 221 l 1022 169 z m 943 297 l 907 353 q 974 481 974 400 l 974 481 q 956 543 974 514 q 907 594 939 572 l 907 594 l 943 650 q 1016 573 993 615 q 1039 474 1039 531 l 1039 474 q 1013 375 1039 422 q 943 297 988 328 l 943 297 z "},"🔍":{"ha":1389,"x_min":240,"x_max":1149,"o":"m 1079 18 l 825 271 q 606 196 732 196 l 606 196 q 423 245 507 196 q 290 378 339 294 q 240 561 240 463 l 240 561 q 290 744 240 660 q 423 877 339 828 q 606 926 507 926 l 606 926 q 790 877 706 926 q 923 744 874 828 q 972 561 972 660 l 972 561 q 896 342 972 438 l 896 342 l 1149 88 l 1079 18 z m 606 296 q 738 331 678 296 q 834 428 799 367 q 869 561 869 489 l 869 561 q 834 694 869 633 q 738 790 799 754 q 606 825 678 825 l 606 825 q 473 790 533 825 q 377 694 413 754 q 342 561 342 633 l 342 561 q 377 428 342 489 q 473 332 413 368 q 606 296 533 296 l 606 296 z "},"🕓":{"ha":1389,"x_min":228,"x_max":1160,"o":"m 693 13 q 460 75 567 13 q 291 244 354 138 q 228 476 228 351 l 228 476 q 291 708 228 601 q 461 878 354 815 q 693 940 568 940 l 693 940 q 926 877 819 940 q 1097 708 1033 814 q 1160 475 1160 601 l 1160 475 q 1097 244 1160 350 q 926 75 1033 138 q 693 13 819 13 l 693 13 z m 668 461 l 842 361 l 865 406 l 718 490 l 718 731 l 668 731 l 668 461 z "},"🛍":{"ha":1389,"x_min":314,"x_max":1074,"o":"m 314 249 l 314 760 q 331 801 314 783 q 371 818 349 818 l 371 818 l 513 818 q 537 910 513 868 q 603 976 561 951 q 693 1000 644 1000 l 693 1000 q 785 976 743 1000 q 851 910 826 951 q 875 818 875 868 l 875 818 l 1015 818 q 1056 801 1039 818 q 1074 760 1074 783 l 1074 760 l 1074 249 l 314 249 z m 578 818 l 810 818 q 776 901 810 867 q 693 935 742 935 l 693 935 q 612 901 646 935 q 578 818 578 867 l 578 818 z m 1015 24 l 371 24 q 331 41 347 24 q 314 83 314 58 l 314 83 l 314 200 l 1074 200 l 1074 83 q 1056 41 1074 58 q 1015 24 1039 24 l 1015 24 z "},"☻":{"ha":1389,"x_min":228,"x_max":1160,"o":"m 693 13 q 460 75 567 13 q 291 244 354 138 q 228 476 228 351 l 228 476 q 291 708 228 601 q 461 878 354 815 q 693 940 568 940 l 693 940 q 926 877 819 940 q 1097 708 1033 814 q 1160 475 1160 601 l 1160 475 q 1097 244 1160 350 q 926 75 1033 138 q 693 13 819 13 l 693 13 z m 550 517 q 584 532 569 517 q 599 568 599 547 l 599 568 q 584 603 599 588 q 550 618 569 618 l 550 618 q 513 603 528 618 q 497 568 497 589 l 497 568 q 513 532 497 547 q 550 517 528 517 l 550 517 z m 840 517 q 877 532 863 517 q 892 568 892 547 l 892 568 q 877 603 892 589 q 840 618 863 618 l 840 618 q 806 603 821 618 q 792 568 792 588 l 792 568 q 806 532 792 547 q 840 517 821 517 l 840 517 z m 694 272 q 801 300 751 272 q 878 376 850 328 l 878 376 q 882 390 882 383 l 882 390 q 868 410 882 404 l 868 410 q 856 413 860 413 l 856 413 q 832 401 839 413 l 832 401 q 776 342 814 364 q 694 321 738 321 l 694 321 q 617 342 653 321 q 557 401 581 364 l 557 401 q 533 413 550 413 l 533 413 q 515 406 522 413 q 508 390 508 400 l 508 390 q 513 376 508 383 l 513 376 q 592 300 544 328 q 694 272 640 272 l 694 272 z "},"":{"ha":1389,"x_min":204,"x_max":1183,"o":"m 963 0 l 425 0 q 315 30 365 0 q 234 110 264 60 q 204 221 204 161 l 204 221 l 204 758 q 234 869 204 818 q 315 949 264 919 q 425 979 365 979 l 425 979 l 963 979 q 1073 949 1022 979 q 1153 869 1124 919 q 1183 758 1183 818 l 1183 758 l 1183 221 q 1153 110 1183 161 q 1073 30 1124 60 q 963 0 1022 0 l 963 0 z m 676 178 q 694 183 681 178 l 694 183 q 817 259 728 197 q 951 372 906 321 l 951 372 q 1021 535 1021 453 l 1021 535 q 977 668 1021 607 q 858 765 933 729 q 694 801 783 801 l 694 801 q 532 765 607 801 q 413 668 457 729 q 368 535 368 607 l 368 535 q 403 415 368 471 q 501 322 439 360 q 640 274 564 285 l 640 274 q 669 258 664 271 l 669 258 q 671 246 671 256 l 671 246 q 669 228 671 232 l 669 228 l 664 192 q 676 178 664 178 l 676 178 z m 572 451 l 481 451 q 475 458 475 451 l 475 458 l 475 600 q 476 605 475 603 q 481 607 478 607 l 481 607 l 504 607 q 508 605 507 607 q 510 600 510 603 l 510 600 l 510 488 l 572 488 q 578 481 578 488 l 578 481 l 578 458 q 572 451 578 451 l 572 451 z m 628 451 l 604 451 q 597 458 597 451 l 597 458 l 597 600 q 599 605 597 603 q 604 607 601 607 l 604 607 l 628 607 q 633 605 631 607 q 635 600 635 603 l 635 600 l 635 458 q 628 451 635 451 l 628 451 z m 686 451 l 663 451 q 657 458 657 451 l 657 458 l 657 600 q 658 605 657 603 q 663 607 660 607 l 663 607 l 685 607 q 692 601 689 607 l 692 601 l 756 515 l 756 600 q 757 605 756 603 q 761 607 758 607 l 761 607 l 786 607 q 790 605 789 607 q 792 600 792 603 l 792 600 l 792 458 q 786 451 792 451 l 786 451 l 763 451 q 756 456 758 451 l 756 456 l 692 542 l 692 458 q 686 451 692 451 l 686 451 z m 911 451 l 821 451 q 814 458 814 451 l 814 458 l 814 600 q 816 605 814 603 q 821 607 818 607 l 821 607 l 911 607 q 916 605 914 607 q 918 600 918 603 l 918 600 l 918 578 q 916 572 918 575 q 911 569 914 569 l 911 569 l 850 569 l 850 546 l 911 546 q 918 540 918 546 l 918 540 l 918 517 q 911 511 918 511 l 911 511 l 850 511 l 850 488 l 911 488 q 918 481 918 488 l 918 481 l 918 458 q 911 451 918 451 l 911 451 z "},"":{"ha":2022,"x_min":225,"x_max":1797,"o":"m 572 204 l 247 204 q 232 210 239 204 q 225 225 225 217 l 225 225 l 225 732 q 232 747 225 742 q 247 753 239 753 l 247 753 l 331 753 q 347 747 340 753 q 353 732 353 742 l 353 732 l 353 331 l 572 331 q 588 324 582 331 q 594 308 594 318 l 594 308 l 594 225 q 588 210 594 215 q 572 204 582 204 l 572 204 z m 768 204 l 686 204 q 671 210 676 204 q 665 225 665 215 l 665 225 l 665 732 q 671 747 665 742 q 686 753 676 753 l 686 753 l 768 753 q 784 747 778 753 q 790 732 790 742 l 790 732 l 790 225 q 784 210 790 215 q 768 204 778 204 l 768 204 z m 974 204 l 892 204 q 876 210 882 204 q 869 225 869 215 l 869 225 l 869 732 q 876 747 869 742 q 892 753 882 753 l 892 753 l 971 753 q 996 740 988 753 l 996 740 l 1222 431 l 1222 732 q 1228 747 1222 742 q 1243 753 1235 753 l 1243 753 l 1328 753 q 1343 747 1336 753 q 1350 732 1350 742 l 1350 732 l 1350 225 q 1343 210 1350 217 q 1328 204 1336 204 l 1328 204 l 1246 204 q 1221 217 1229 204 l 1221 217 l 994 526 l 994 225 q 989 210 994 215 q 974 204 983 204 l 974 204 z m 1775 204 l 1450 204 q 1435 210 1442 204 q 1428 225 1428 217 l 1428 225 l 1428 732 q 1435 747 1428 742 q 1450 753 1442 753 l 1450 753 l 1775 753 q 1790 747 1783 753 q 1797 732 1797 742 l 1797 732 l 1797 649 q 1790 634 1797 640 q 1775 628 1783 628 l 1775 628 l 1553 628 l 1553 542 l 1775 542 q 1790 535 1783 542 q 1797 521 1797 529 l 1797 521 l 1797 436 q 1790 422 1797 428 q 1775 415 1783 415 l 1775 415 l 1553 415 l 1553 331 l 1775 331 q 1790 324 1783 331 q 1797 308 1797 318 l 1797 308 l 1797 225 q 1790 210 1797 217 q 1775 204 1783 204 l 1775 204 z "},"":{"ha":1553,"x_min":69,"x_max":1483,"o":"m 246 308 q 119 358 168 308 q 69 486 69 407 l 69 486 q 119 613 69 564 q 246 663 168 663 l 246 663 q 374 613 324 663 q 424 486 424 564 l 424 486 q 374 358 424 407 q 246 308 324 308 l 246 308 z m 779 329 l 575 329 q 569 335 569 329 l 569 335 l 569 636 q 575 643 569 643 l 575 643 l 622 643 q 628 636 628 643 l 628 636 l 628 385 l 779 385 q 783 379 783 385 l 783 379 l 783 335 q 779 329 783 329 l 779 329 z m 874 329 l 828 329 q 822 335 822 329 l 822 335 l 822 636 q 828 643 822 643 l 828 643 l 874 643 q 879 636 879 643 l 879 636 l 879 335 q 874 329 879 329 l 874 329 z m 996 329 l 951 329 q 946 335 946 329 l 946 335 l 946 636 q 951 643 946 643 l 951 643 l 1000 643 q 1007 639 1004 643 l 1007 639 l 1147 424 l 1147 636 q 1153 643 1147 643 l 1153 643 l 1196 643 q 1201 636 1201 643 l 1201 636 l 1201 335 q 1196 329 1201 329 l 1196 329 l 1149 329 q 1142 333 1144 329 l 1142 333 l 1001 550 l 1001 335 q 996 329 1001 329 l 996 329 z m 1476 329 l 1274 329 q 1268 335 1268 329 l 1268 335 l 1268 636 q 1274 643 1268 643 l 1274 643 l 1472 643 q 1478 636 1478 643 l 1478 636 l 1478 593 q 1472 588 1478 588 l 1472 588 l 1325 588 l 1325 517 l 1458 517 q 1463 511 1463 517 l 1463 511 l 1463 468 q 1458 464 1463 464 l 1458 464 l 1325 464 l 1325 383 l 1476 383 q 1483 378 1483 383 l 1483 378 l 1483 335 q 1476 329 1483 329 l 1476 329 z m 246 340 q 349 381 310 340 q 389 486 389 422 l 389 486 q 349 590 389 549 q 246 631 310 631 l 246 631 q 142 590 182 631 q 103 486 103 549 l 103 486 q 142 381 103 422 q 246 340 182 340 l 246 340 z m 247 390 q 179 417 204 390 q 154 486 154 443 l 154 486 q 179 554 154 528 q 246 581 204 581 l 246 581 q 329 529 311 581 l 329 529 q 325 522 331 525 l 325 522 l 296 514 q 288 518 292 513 l 288 518 q 271 535 279 531 q 249 540 263 540 l 249 540 q 213 525 225 540 q 200 486 200 510 l 200 486 q 213 447 200 463 q 250 431 226 431 l 250 431 q 274 437 264 431 q 289 454 285 443 l 289 454 q 296 458 290 460 l 296 458 l 328 450 q 332 443 333 449 l 332 443 q 300 403 324 417 q 247 390 276 390 l 247 390 z "},"ﬄ":{"ha":1160,"x_min":25,"x_max":1038,"o":"m 193 0 l 174 0 q 163 11 163 0 l 163 11 l 163 643 l 36 643 q 25 654 25 643 l 25 654 l 25 672 q 36 683 25 683 l 36 683 l 163 683 l 163 821 q 215 993 163 936 q 358 1050 267 1050 l 358 1050 q 511 985 447 1050 l 511 985 q 510 968 519 978 l 510 968 l 499 957 q 482 957 490 949 l 482 957 q 425 997 454 985 q 358 1008 396 1008 l 358 1008 q 242 961 281 1008 q 204 814 204 914 l 204 814 l 204 683 l 579 683 l 579 821 q 631 993 579 936 q 775 1050 683 1050 l 775 1050 q 928 985 867 1050 l 928 985 q 926 968 935 976 l 926 968 l 915 957 q 899 957 907 949 l 899 957 q 842 997 871 985 q 775 1008 813 1008 l 775 1008 q 659 961 697 1008 q 621 814 621 914 l 621 814 l 621 683 l 838 683 q 849 672 849 683 l 849 672 l 849 654 q 838 643 849 643 l 838 643 l 621 643 l 621 11 q 610 0 621 0 l 610 0 l 590 0 q 579 11 579 0 l 579 11 l 579 643 l 204 643 l 204 11 q 193 0 204 0 l 193 0 z m 1026 0 l 1007 0 q 996 11 996 0 l 996 11 l 996 1031 q 1007 1042 996 1042 l 1007 1042 l 1026 1042 q 1038 1031 1038 1042 l 1038 1031 l 1038 11 q 1026 0 1038 0 l 1026 0 z "},"ﬃ":{"ha":1160,"x_min":25,"x_max":1058,"o":"m 193 0 l 174 0 q 163 11 163 0 l 163 11 l 163 643 l 36 643 q 25 654 25 643 l 25 654 l 25 672 q 36 683 25 683 l 36 683 l 163 683 l 163 821 q 215 993 163 936 q 358 1050 267 1050 l 358 1050 q 511 985 447 1050 l 511 985 q 510 968 519 978 l 510 968 l 499 957 q 482 957 490 949 l 482 957 q 425 997 454 985 q 358 1008 396 1008 l 358 1008 q 242 961 281 1008 q 204 814 204 914 l 204 814 l 204 683 l 579 683 l 579 821 q 631 993 579 936 q 775 1050 683 1050 l 775 1050 q 928 985 867 1050 l 928 985 q 926 968 935 976 l 926 968 l 915 957 q 899 957 907 949 l 899 957 q 842 997 871 985 q 775 1008 813 1008 l 775 1008 q 659 961 697 1008 q 621 814 621 914 l 621 814 l 621 683 l 1026 683 q 1038 672 1038 683 l 1038 672 l 1038 11 q 1026 0 1038 0 l 1026 0 l 1007 0 q 996 11 996 0 l 996 11 l 996 643 l 621 643 l 621 11 q 610 0 621 0 l 610 0 l 590 0 q 579 11 579 0 l 579 11 l 579 643 l 204 643 l 204 11 q 193 0 204 0 l 193 0 z m 1017 872 q 987 884 999 872 q 975 914 975 896 l 975 914 q 987 943 975 932 q 1017 954 999 954 l 1017 954 q 1047 943 1035 954 q 1058 914 1058 932 l 1058 914 q 1047 884 1058 896 q 1017 872 1035 872 l 1017 872 z "},"ﬀ":{"ha":886,"x_min":25,"x_max":933,"o":"m 193 0 l 174 0 q 163 11 163 0 l 163 11 l 163 643 l 36 643 q 25 654 25 643 l 25 654 l 25 672 q 36 683 25 683 l 36 683 l 163 683 l 163 821 q 215 993 163 936 q 358 1050 267 1050 l 358 1050 q 511 985 447 1050 l 511 985 q 510 968 519 978 l 510 968 l 499 957 q 482 957 490 949 l 482 957 q 425 997 454 985 q 358 1008 396 1008 l 358 1008 q 242 961 281 1008 q 204 814 204 914 l 204 814 l 204 683 l 579 683 l 579 821 q 629 992 579 935 q 761 1050 679 1050 l 761 1050 q 932 929 881 1050 l 932 929 q 933 924 933 928 l 933 924 q 925 914 933 917 l 925 914 l 907 908 q 903 907 906 907 l 903 907 q 893 915 896 907 l 893 915 q 761 1008 851 1008 l 761 1008 q 621 814 621 1008 l 621 814 l 621 683 l 838 683 q 849 672 849 683 l 849 672 l 849 654 q 838 643 849 643 l 838 643 l 621 643 l 621 11 q 610 0 621 0 l 610 0 l 590 0 q 579 11 579 0 l 579 11 l 579 643 l 204 643 l 204 11 q 193 0 204 0 l 193 0 z "}}}
